<?xml version="1.0" encoding="UTF-8"?>
<svg version="1.1" xmlns="http://www.w3.org/2000/svg" width="840" height="287">
<path d="M0 0 C277.2 0 554.4 0 840 0 C840 94.71 840 189.42 840 287 C562.8 287 285.6 287 0 287 C0 192.29 0 97.58 0 0 Z " fill="#FDFDFD" transform="translate(0,0)"/>
<path d="M0 0 C3.49817439 1.53499569 6.05446037 3.63648159 8.9375 6.125 C22.77991781 17.5600408 39.56328366 25.91081181 56 33 C57.66801361 33.72385496 59.33602537 34.44771425 61.00390625 35.171875 C62.56147728 35.81806885 64.13544919 36.42477236 65.71484375 37.015625 C73.41632419 39.98916957 79.50206313 43.95100274 86 49 C87.485 49.99 87.485 49.99 89 51 C89.0928125 50.30390625 89.185625 49.6078125 89.28125 48.890625 C91.68212246 39.2349423 99.53576382 30.22235287 107 24 C107.65097656 23.45214844 108.30195313 22.90429688 108.97265625 22.33984375 C115.86254938 17.57400245 124.96863031 17.59455972 133 19 C137.65075705 20.75745497 141.57831989 22.91068006 144.4140625 27.078125 C146.50683398 29.61419291 148.3785567 30.06021062 151.5 31 C155.68001308 32.25849856 157.68105863 33.23955453 160 37 C159.32195312 37.01417969 158.64390625 37.02835938 157.9453125 37.04296875 C150.94963873 37.40147281 144.55809004 38.48803165 139 43 C133.15407015 50.14458877 130.14473166 58.50723192 126.87695312 67.02929688 C122.34854537 78.41936903 115.47690918 87.23476058 107 96 C106.32453125 96.70125 105.6490625 97.4025 104.953125 98.125 C95.55196549 107.17273247 83.34815262 112.07991278 71.3359375 116.67578125 C68.5118744 117.79680864 65.86950287 119.01904 63.1875 120.4375 C62.135625 120.953125 61.08375 121.46875 60 122 C59.01 121.505 59.01 121.505 58 121 C60.97 117.7 63.94 114.4 67 111 C60.70514435 114.14742782 55.94183542 117.67204745 50.80859375 122.4609375 C30.30153846 141 30.30153846 141 23 141 C23 142.98 23 144.96 23 147 C42.14 147 61.28 147 81 147 C81 142.05 81 137.1 81 132 C81.43758256 121.76056803 81.43758256 121.76056803 82 119 C85 117 85 117 89 117 C89 126.57 89 136.14 89 146 C97.58 146 106.16 146 115 146 C117 151 117 151 117 154 C107.76 154 98.52 154 89 154 C89 158.62 89 163.24 89 168 C85.535 168.99 85.535 168.99 82 170 C82 164.72 82 159.44 82 154 C62.53 154 43.06 154 23 154 C25.05794034 168.23192867 25.05794034 168.23192867 29.3125 181.4375 C29.77197021 182.55330444 29.77197021 182.55330444 30.24072266 183.69165039 C34.85225475 194.67598071 40.49224141 204.49224141 49 213 C49.33 205.08 49.66 197.16 50 189 C58.90510949 184.54744526 58.90510949 184.54744526 63.75 183.0625 C67.77849441 181.76816431 71.67261409 180.35226236 75.5625 178.6875 C85.24917564 174.56145861 95.18923084 171.03480729 105.12109375 167.546875 C106.33925781 167.11890625 107.55742187 166.6909375 108.8125 166.25 C109.87082031 165.88390625 110.92914063 165.5178125 112.01953125 165.140625 C115.0797018 164.03564037 115.0797018 164.03564037 118.13671875 162.359375 C121 161 121 161 125 161 C124.54762239 159.08191891 124.08785537 157.16557967 123.625 155.25 C123.36976563 154.18265625 123.11453125 153.1153125 122.8515625 152.015625 C121.5814945 147.25992534 121.5814945 147.25992534 118.30419922 143.81152344 C117.64436035 143.49731445 116.98452148 143.18310547 116.3046875 142.859375 C115.58925781 142.51132813 114.87382812 142.16328125 114.13671875 141.8046875 C113.39035156 141.45664063 112.64398438 141.10859375 111.875 140.75 C111.12089844 140.38648438 110.36679688 140.02296875 109.58984375 139.6484375 C107.73178414 138.75468731 105.86655182 137.87587625 104 137 C104.33 136.01 104.66 135.02 105 134 C107.81510313 132.59244844 109.87820588 133.13930976 113 133.4375 C114.17304688 133.52644531 115.34609375 133.61539063 116.5546875 133.70703125 C118.60665778 133.88151852 120.65681231 134.09423829 122.6953125 134.38671875 C128.62546742 134.96829343 131.41377984 133.35833511 136.0625 129.625 C139.51458261 126.68731062 139.51458261 126.68731062 142 123 C140.98679688 122.70996094 140.98679688 122.70996094 139.953125 122.4140625 C139.06109375 122.15367187 138.1690625 121.89328125 137.25 121.625 C136.36828125 121.36976563 135.4865625 121.11453125 134.578125 120.8515625 C132 120 132 120 128 118 C128 121.63 128 125.26 128 129 C121.125 128.125 121.125 128.125 120 127 C119.79605136 123.66883892 119.68040296 120.33955495 119.57421875 117.00390625 C119.34180717 113.88317766 119.34180717 113.88317766 116.95703125 112.58984375 C116.31121094 112.39519531 115.66539062 112.20054687 115 112 C115 111.34 115 110.68 115 110 C111.04 109.67 107.08 109.34 103 109 C103 107 103 107 104.50390625 105.4921875 C110.74389464 100.59018523 110.74389464 100.59018523 115 100.625 C115.99 100.74875 116.98 100.8725 118 101 C117.896875 99.80375 117.79375 98.6075 117.6875 97.375 C117.65644487 93.88440321 118.2385682 92.16275632 120.5 89.5 C121.325 88.675 122.15 87.85 123 87 C126.57386064 90.57386064 125.69029248 96.14791553 126 101 C137.385 100.505 137.385 100.505 149 100 C147.59062212 93.71454264 147.59062212 93.71454264 145.23046875 88.18359375 C144.90103271 87.56822754 144.57159668 86.95286133 144.23217773 86.31884766 C143.88743408 85.69800293 143.54269043 85.0771582 143.1875 84.4375 C142.83437744 83.78056152 142.48125488 83.12362305 142.11743164 82.44677734 C140.28475373 79.09404252 138.39176768 76.06874242 135.9375 73.125 C133.55234554 69.27797669 133.77597525 67.25671819 134.5078125 62.91796875 C135 61 135 61 136 59 C140.45021661 59.61527616 144.08585705 61.33506633 148 63.4375 C148.65355469 63.78804443 149.30710938 64.13858887 149.98046875 64.49975586 C159.72482586 69.89142927 172.4372059 77.7195077 177.4375 87.9375 C177.623125 88.618125 177.80875 89.29875 178 90 C176.25 91.5625 176.25 91.5625 174 93 C170.21217201 92.66555112 168.66157593 90.86746681 166.1875 88.125 C162.11930533 83.9003363 157.78067294 80.39070043 153.0625 76.9375 C152.39951904 76.44846191 151.73653809 75.95942383 151.0534668 75.45556641 C147.85046175 72.88017296 147.85046175 72.88017296 144 72 C144.35191406 72.41507812 144.70382813 72.83015625 145.06640625 73.2578125 C152.0643937 81.99159319 156.86274212 92.29641429 160 103 C158.02 104.32 156.04 105.64 154 107 C161.8628674 107.78304933 166.11382653 106.4918487 172.25 101.625 C172.97018311 101.08568848 173.69036621 100.54637695 174.43237305 99.99072266 C175.91068074 98.88357701 177.38234779 97.76750788 178.84716797 96.64257812 C182.11744808 94.14740409 185.46308667 91.76219544 188.8125 89.375 C189.3806543 88.9620166 189.94880859 88.5490332 190.53417969 88.12353516 C195.45387775 84.57174586 198.48772173 82.71691494 204.625 82.75 C205.58664063 82.74484375 206.54828125 82.7396875 207.5390625 82.734375 C210 83 210 83 212 85 C211.390894 95.13484703 197.74892761 104.29980702 190.50537109 110.73876953 C188.52844193 112.39508093 186.4124688 113.78597175 184.25 115.1875 C181.16306192 117.43756996 181.03556661 117.79859137 180.31640625 121.87109375 C179.75700611 128.98726748 179.71943118 136.15395345 179.65820312 143.2890625 C179.63048828 144.36671875 179.60277344 145.444375 179.57421875 146.5546875 C179.55963623 147.52905762 179.54505371 148.50342773 179.5300293 149.50732422 C179 152 179 152 177.21411133 153.84033203 C175 155 175 155 171 155 C170.76925781 154.45472656 170.53851563 153.90945312 170.30078125 153.34765625 C167.37796762 146.58937177 164.08808443 140.13212665 160 134 C152.74470629 135.45105874 146.1609077 139.40846058 139.671875 142.79296875 C137 144 137 144 134 144 C133.89042969 144.66386719 133.78085938 145.32773438 133.66796875 146.01171875 C132.01176471 155.23529412 132.01176471 155.23529412 129 159 C128.34 159 127.68 159 127 159 C127 159.66 127 160.32 127 161 C127.58265625 161.17015625 128.1653125 161.3403125 128.765625 161.515625 C134.31347872 163.1555566 139.81277508 164.9047457 145.29296875 166.7578125 C148.31156579 167.76931288 151.33500649 168.76030032 154.36328125 169.7421875 C155.78483521 170.2067334 155.78483521 170.2067334 157.23510742 170.68066406 C159.14392679 171.30441276 161.05422906 171.9236437 162.96606445 172.53808594 C163.84609131 172.8271582 164.72611816 173.11623047 165.6328125 173.4140625 C166.82221436 173.80005615 166.82221436 173.80005615 168.03564453 174.19384766 C170 175 170 175 172 177 C172.31884766 179.61376953 172.31884766 179.61376953 172.4140625 182.8828125 C172.45273438 184.04941406 172.49140625 185.21601563 172.53125 186.41796875 C172.57765625 188.25294922 172.57765625 188.25294922 172.625 190.125 C172.66367188 191.35605469 172.70234375 192.58710938 172.7421875 193.85546875 C172.8366999 196.90349376 172.92225494 199.95150862 173 203 C183.18866804 188.31094599 188.65846028 171.82331348 190 154 C188.02 154 186.04 154 184 154 C184.33 151.69 184.66 149.38 185 147 C186.65 147 188.3 147 190 147 C189.69215623 144.04111327 189.37894426 141.08296833 189.0625 138.125 C188.97548828 137.28324219 188.88847656 136.44148437 188.79882812 135.57421875 C188.71181641 134.76855469 188.62480469 133.96289062 188.53515625 133.1328125 C188.41732788 132.01737061 188.41732788 132.01737061 188.29711914 130.87939453 C188.08362653 128.91553684 188.08362653 128.91553684 187 127 C186.6875 124.0625 186.6875 124.0625 187 121 C188.8125 119.0625 188.8125 119.0625 191 118 C191.99 118.33 192.98 118.66 194 119 C201.24133824 138.3505995 199.80188301 161.5121421 194 181 C193.72285156 181.99515625 193.44570312 182.9903125 193.16015625 184.015625 C186.80279568 204.05449426 170.61798792 223.18892642 152.375 233.3125 C150.5879588 234.21752516 148.7964175 235.11373199 147 236 C146.17886719 236.45117188 145.35773438 236.90234375 144.51171875 237.3671875 C138.21297745 240.76268121 131.98284697 242.53762367 125 244 C124.13890625 244.20625 123.2778125 244.4125 122.390625 244.625 C100.53557481 249.39337459 78.15604525 244.10383428 59.1875 232.75 C35.71553088 216.84042823 22.08759043 193.75412132 16.25 166.375 C14.44444915 156.90430883 12.88034848 144.25743114 16 135 C17.92578125 134.1640625 17.92578125 134.1640625 20.3125 133.625 C23.7859666 132.6349514 25.58050043 131.87885441 27.5625 128.8125 C28.036875 127.884375 28.51125 126.95625 29 126 C27.39536551 126.31008884 25.79130769 126.62316287 24.1875 126.9375 C22.84751953 127.19853516 22.84751953 127.19853516 21.48046875 127.46484375 C18.88602829 127.97741153 18.88602829 127.97741153 16 129 C13.13408445 129.12213515 10.30320488 129.18512182 7.4375 129.1875 C6.65697266 129.19974609 5.87644531 129.21199219 5.07226562 129.22460938 C3.04679965 129.22985217 1.02177448 129.12234328 -1 129 C-1.66 128.34 -2.32 127.68 -3 127 C-2.25878906 126.67128906 -1.51757812 126.34257812 -0.75390625 126.00390625 C20.10150637 116.58450936 40.75440089 105.44007029 57 89 C56.410979 88.84442627 55.82195801 88.68885254 55.21508789 88.52856445 C52.49407962 87.80226927 49.77843946 87.05751626 47.0625 86.3125 C46.13630859 86.06822266 45.21011719 85.82394531 44.25585938 85.57226562 C36.16199559 83.32870338 28.90168977 80.14478543 22.625 74.4375 C21.99851562 73.87933594 21.37203125 73.32117188 20.7265625 72.74609375 C18.9462391 70.94563094 17.46896952 69.05926096 16 67 C16.33 66.34 16.66 65.68 17 65 C18.7015625 65.47566406 18.7015625 65.47566406 20.4375 65.9609375 C24.96003145 67.09157036 29.35505777 67.43179616 34 67.625 C34.77472656 67.66367188 35.54945312 67.70234375 36.34765625 67.7421875 C38.23143415 67.83521357 40.11568256 67.91863175 42 68 C42 67.34 42 66.68 42 66 C40.948125 66.103125 39.89625 66.20625 38.8125 66.3125 C30.26865108 66.29732442 21.2419618 62.10019009 14.7109375 56.7265625 C9.61902746 51.588151 4 43.51471025 4 36 C6.38084044 36.92161566 8.72560391 37.86572106 11.01953125 38.98828125 C16.45320101 41.60519751 20.97686851 42.61757895 27 43 C26.23816406 42.59910156 25.47632812 42.19820312 24.69140625 41.78515625 C13.0448464 35.37300532 4.6518303 28.00142587 0.37890625 15.12890625 C-0.15091994 12.15204774 -0.0927057 9.27057015 -0.0625 6.25 C-0.05347656 5.07953125 -0.04445312 3.9090625 -0.03515625 2.703125 C-0.02355469 1.81109375 -0.01195312 0.9190625 0 0 Z " fill="#C52925" transform="translate(42,18)"/>
<path d="M0 0 C4.45021661 0.61527616 8.08585705 2.33506633 12 4.4375 C12.65355469 4.78804443 13.30710937 5.13858887 13.98046875 5.49975586 C23.72482586 10.89142927 36.4372059 18.7195077 41.4375 28.9375 C41.623125 29.618125 41.80875 30.29875 42 31 C40.25 32.5625 40.25 32.5625 38 34 C34.21217201 33.66555112 32.66157593 31.86746681 30.1875 29.125 C26.11930533 24.9003363 21.78067294 21.39070043 17.0625 17.9375 C16.06802856 17.20394287 16.06802856 17.20394287 15.0534668 16.45556641 C11.85046175 13.88017296 11.85046175 13.88017296 8 13 C8.35191406 13.41507813 8.70382813 13.83015625 9.06640625 14.2578125 C16.0643937 22.99159319 20.86274212 33.29641429 24 44 C22.02 45.32 20.04 46.64 18 48 C25.8628674 48.78304933 30.11382653 47.4918487 36.25 42.625 C36.97018311 42.08568848 37.69036621 41.54637695 38.43237305 40.99072266 C39.91068074 39.88357701 41.38234779 38.76750788 42.84716797 37.64257812 C46.11744808 35.14740409 49.46308667 32.76219544 52.8125 30.375 C53.3806543 29.9620166 53.94880859 29.5490332 54.53417969 29.12353516 C59.45387775 25.57174586 62.48772173 23.71691494 68.625 23.75 C69.58664063 23.74484375 70.54828125 23.7396875 71.5390625 23.734375 C74 24 74 24 76 26 C75.390894 36.13484703 61.74892761 45.29980702 54.50537109 51.73876953 C52.52844193 53.39508093 50.4124688 54.78597175 48.25 56.1875 C45.16306192 58.43756996 45.03556661 58.79859137 44.31640625 62.87109375 C43.75700611 69.98726748 43.71943118 77.15395345 43.65820312 84.2890625 C43.63048828 85.36671875 43.60277344 86.444375 43.57421875 87.5546875 C43.55963623 88.52905762 43.54505371 89.50342773 43.5300293 90.50732422 C43 93 43 93 41.21411133 94.84033203 C39 96 39 96 35 96 C34.65388672 95.18208984 34.65388672 95.18208984 34.30078125 94.34765625 C31.37796762 87.58937177 28.08808443 81.13212665 24 75 C16.74470629 76.45105874 10.1609077 80.40846058 3.671875 83.79296875 C1 85 1 85 -2 85 C-2.10957031 85.66386719 -2.21914062 86.32773438 -2.33203125 87.01171875 C-3.98823529 96.23529412 -3.98823529 96.23529412 -7 100 C-7.66 100 -8.32 100 -9 100 C-9 100.66 -9 101.32 -9 102 C-8.41734375 102.17015625 -7.8346875 102.3403125 -7.234375 102.515625 C-1.68652128 104.1555566 3.81277508 105.9047457 9.29296875 107.7578125 C12.31156579 108.76931288 15.33500649 109.76030032 18.36328125 110.7421875 C19.31098389 111.05188477 20.25868652 111.36158203 21.23510742 111.68066406 C23.14392679 112.30441276 25.05422906 112.9236437 26.96606445 113.53808594 C27.84609131 113.8271582 28.72611816 114.11623047 29.6328125 114.4140625 C30.42574707 114.6713916 31.21868164 114.9287207 32.03564453 115.19384766 C34 116 34 116 36 118 C36.31884766 120.61376953 36.31884766 120.61376953 36.4140625 123.8828125 C36.45273438 125.04941406 36.49140625 126.21601563 36.53125 127.41796875 C36.5621875 128.64128906 36.593125 129.86460937 36.625 131.125 C36.66367188 132.35605469 36.70234375 133.58710938 36.7421875 134.85546875 C36.8366999 137.90349376 36.92225494 140.95150862 37 144 C47.18866804 129.31094599 52.65846028 112.82331348 54 95 C52.02 95 50.04 95 48 95 C48.33 92.69 48.66 90.38 49 88 C50.65 88 52.3 88 54 88 C53.69215623 85.04111327 53.37894426 82.08296833 53.0625 79.125 C52.93198242 77.86236328 52.93198242 77.86236328 52.79882812 76.57421875 C52.71181641 75.76855469 52.62480469 74.96289062 52.53515625 74.1328125 C52.456604 73.38918457 52.37805176 72.64555664 52.29711914 71.87939453 C52.08362653 69.91553684 52.08362653 69.91553684 51 68 C50.6875 65.0625 50.6875 65.0625 51 62 C52.8125 60.0625 52.8125 60.0625 55 59 C55.99 59.33 56.98 59.66 58 60 C65.24133824 79.3505995 63.80188301 102.5121421 58 122 C57.72285156 122.99515625 57.44570312 123.9903125 57.16015625 125.015625 C50.80279568 145.05449426 34.61798792 164.18892642 16.375 174.3125 C14.5879588 175.21752516 12.7964175 176.11373199 11 177 C10.17886719 177.45117188 9.35773438 177.90234375 8.51171875 178.3671875 C2.21297745 181.76268121 -4.01715303 183.53762367 -11 185 C-11.86109375 185.20625 -12.7221875 185.4125 -13.609375 185.625 C-36.63330732 190.64840342 -59.7280895 184.41213732 -79.41015625 172.1640625 C-79.93480469 171.77992188 -80.45945312 171.39578125 -81 171 C-81 170.67 -81 170.34 -81 170 C-57.9 170 -34.8 170 -11 170 C-11.06187156 157.09158317 -11.06187156 157.09158317 -11.16015625 144.18359375 C-11.20835588 138.9125952 -11.25245111 133.64180266 -11.27099609 128.37060547 C-11.28623143 124.11688917 -11.32079729 119.86371481 -11.36830902 115.61024094 C-11.38305236 113.99414172 -11.39103694 112.3779651 -11.39188385 110.76179886 C-11.23723534 97.81221371 -11.23723534 97.81221371 -16 86 C-18.59794301 83.92424923 -21.18010405 82.62790806 -24.25 81.375 C-24.99507812 81.03855469 -25.74015625 80.70210938 -26.5078125 80.35546875 C-28.32522546 79.53996293 -30.16098345 78.7655441 -32 78 C-31.505 76.515 -31.505 76.515 -31 75 C-28.18489687 73.59244844 -26.12179412 74.13930976 -23 74.4375 C-21.24042969 74.57091797 -21.24042969 74.57091797 -19.4453125 74.70703125 C-17.39334222 74.88151852 -15.34318769 75.09423829 -13.3046875 75.38671875 C-7.37453258 75.96829343 -4.58622016 74.35833511 0.0625 70.625 C3.51458261 67.68731062 3.51458261 67.68731062 6 64 C5.32453125 63.80664062 4.6490625 63.61328125 3.953125 63.4140625 C3.06109375 63.15367187 2.1690625 62.89328125 1.25 62.625 C0.36828125 62.36976563 -0.5134375 62.11453125 -1.421875 61.8515625 C-4 61 -4 61 -8 59 C-8 62.63 -8 66.26 -8 70 C-14.875 69.125 -14.875 69.125 -16 68 C-16.20394864 64.66883892 -16.31959704 61.33955495 -16.42578125 58.00390625 C-16.65819283 54.88317766 -16.65819283 54.88317766 -19.04296875 53.58984375 C-19.68878906 53.39519531 -20.33460938 53.20054687 -21 53 C-21 52.34 -21 51.68 -21 51 C-24.96 50.67 -28.92 50.34 -33 50 C-33 48 -33 48 -31.49609375 46.4921875 C-25.25610536 41.59018523 -25.25610536 41.59018523 -21 41.625 C-19.515 41.810625 -19.515 41.810625 -18 42 C-18.1546875 40.205625 -18.1546875 40.205625 -18.3125 38.375 C-18.34355513 34.88440321 -17.7614318 33.16275632 -15.5 30.5 C-14.2625 29.2625 -14.2625 29.2625 -13 28 C-9.42613936 31.57386064 -10.30970752 37.14791553 -10 42 C1.385 41.505 1.385 41.505 13 41 C11.59062212 34.71454264 11.59062212 34.71454264 9.23046875 29.18359375 C8.90103271 28.56822754 8.57159668 27.95286133 8.23217773 27.31884766 C7.88743408 26.69800293 7.54269043 26.0771582 7.1875 25.4375 C6.65781616 24.45209229 6.65781616 24.45209229 6.11743164 23.44677734 C4.28475373 20.09404252 2.39176768 17.06874242 -0.0625 14.125 C-2.44765446 10.27797669 -2.22402475 8.25671819 -1.4921875 3.91796875 C-1 2 -1 2 0 0 Z " fill="#0A1D35" transform="translate(178,77)"/>
<path d="M0 0 C0 22.44 0 44.88 0 68 C-17.51863661 68.20054405 -17.51863661 68.20054405 -24.99414062 68.24414062 C-30.09246888 68.27401471 -35.19034757 68.30933014 -40.28833008 68.37719727 C-44.3991672 68.43157963 -48.50952218 68.46143341 -52.6206913 68.47438622 C-54.1880178 68.48361508 -55.75531832 68.50163749 -57.32243919 68.52865028 C-59.52046808 68.56502658 -61.71651279 68.56994225 -63.91479492 68.56762695 C-65.16499924 68.57873001 -66.41520355 68.58983307 -67.70329285 68.60127258 C-71.92860478 67.83063567 -73.40353384 66.36024882 -76 63 C-76.37028197 60.05807273 -76.45684841 57.76176299 -76.26953125 54.85546875 C-76.24026047 54.08568192 -76.21098969 53.31589508 -76.18083191 52.52278137 C-76.08224333 50.07593008 -75.9479225 47.63256169 -75.8125 45.1875 C-75.73916872 43.52419124 -75.66817912 41.86077748 -75.59960938 40.19726562 C-75.42683986 36.12979452 -75.22201892 32.06506825 -75 28 C-70.49497717 25.65156145 -66.12271624 23.55597376 -61.25 22.0625 C-57.22150559 20.76816431 -53.32738591 19.35226236 -49.4375 17.6875 C-39.75082436 13.56145861 -29.81076916 10.03480729 -19.87890625 6.546875 C-18.05166016 5.90492188 -18.05166016 5.90492188 -16.1875 5.25 C-15.12917969 4.88390625 -14.07085937 4.5178125 -12.98046875 4.140625 C-9.9202982 3.03564037 -9.9202982 3.03564037 -6.86328125 1.359375 C-4 0 -4 0 0 0 Z " fill="#C53532" transform="translate(167,179)"/>
<path d="M0 0 C4.45021661 0.61527616 8.08585705 2.33506633 12 4.4375 C12.65355469 4.78804443 13.30710938 5.13858887 13.98046875 5.49975586 C23.72482586 10.89142927 36.4372059 18.7195077 41.4375 28.9375 C41.623125 29.618125 41.80875 30.29875 42 31 C40.25 32.5625 40.25 32.5625 38 34 C34.21217201 33.66555112 32.66157593 31.86746681 30.1875 29.125 C26.11930533 24.9003363 21.78067294 21.39070043 17.0625 17.9375 C16.06802856 17.20394287 16.06802856 17.20394287 15.0534668 16.45556641 C11.85046175 13.88017296 11.85046175 13.88017296 8 13 C8.35191406 13.41507813 8.70382813 13.83015625 9.06640625 14.2578125 C16.0643937 22.99159319 20.86274212 33.29641429 24 44 C22.02 45.32 20.04 46.64 18 48 C25.8628674 48.78304933 30.11382653 47.4918487 36.25 42.625 C36.97018311 42.08568848 37.69036621 41.54637695 38.43237305 40.99072266 C39.91068074 39.88357701 41.38234779 38.76750788 42.84716797 37.64257812 C46.11744808 35.14740409 49.46308667 32.76219544 52.8125 30.375 C53.3806543 29.9620166 53.94880859 29.5490332 54.53417969 29.12353516 C59.45387775 25.57174586 62.48772173 23.71691494 68.625 23.75 C69.58664063 23.74484375 70.54828125 23.7396875 71.5390625 23.734375 C74 24 74 24 76 26 C75.390894 36.13484703 61.74892761 45.29980702 54.50537109 51.73876953 C52.52844193 53.39508093 50.4124688 54.78597175 48.25 56.1875 C45.16306192 58.43756996 45.03556661 58.79859137 44.31640625 62.87109375 C43.75700611 69.98726748 43.71943118 77.15395345 43.65820312 84.2890625 C43.63048828 85.36671875 43.60277344 86.444375 43.57421875 87.5546875 C43.55963623 88.52905762 43.54505371 89.50342773 43.5300293 90.50732422 C43 93 43 93 41.21411133 94.84033203 C39 96 39 96 35 96 C34.65388672 95.18208984 34.65388672 95.18208984 34.30078125 94.34765625 C31.37796762 87.58937177 28.08808443 81.13212665 24 75 C16.74470629 76.45105874 10.1609077 80.40846058 3.671875 83.79296875 C1 85 1 85 -2 85 C-2.16435547 85.99580078 -2.16435547 85.99580078 -2.33203125 87.01171875 C-3.98823529 96.23529412 -3.98823529 96.23529412 -7 100 C-7.66 100 -8.32 100 -9 100 C-9 100.66 -9 101.32 -9 102 C-9.66 102 -10.32 102 -11 102 C-11.19335938 101.18015625 -11.38671875 100.3603125 -11.5859375 99.515625 C-11.84632813 98.43796875 -12.10671875 97.3603125 -12.375 96.25 C-12.63023437 95.18265625 -12.88546875 94.1153125 -13.1484375 93.015625 C-14.4185055 88.25992534 -14.4185055 88.25992534 -17.69580078 84.81152344 C-18.68555908 84.34020996 -18.68555908 84.34020996 -19.6953125 83.859375 C-20.41074219 83.51132813 -21.12617188 83.16328125 -21.86328125 82.8046875 C-22.60964844 82.45664063 -23.35601562 82.10859375 -24.125 81.75 C-24.87910156 81.38648438 -25.63320312 81.02296875 -26.41015625 80.6484375 C-28.26821586 79.75468731 -30.13344818 78.87587625 -32 78 C-31.67 77.01 -31.34 76.02 -31 75 C-28.18489687 73.59244844 -26.12179412 74.13930976 -23 74.4375 C-21.24042969 74.57091797 -21.24042969 74.57091797 -19.4453125 74.70703125 C-17.39334222 74.88151852 -15.34318769 75.09423829 -13.3046875 75.38671875 C-7.37453258 75.96829343 -4.58622016 74.35833511 0.0625 70.625 C3.51458261 67.68731062 3.51458261 67.68731062 6 64 C5.32453125 63.80664062 4.6490625 63.61328125 3.953125 63.4140625 C3.06109375 63.15367187 2.1690625 62.89328125 1.25 62.625 C0.36828125 62.36976563 -0.5134375 62.11453125 -1.421875 61.8515625 C-4 61 -4 61 -8 59 C-8 62.63 -8 66.26 -8 70 C-14.875 69.125 -14.875 69.125 -16 68 C-16.20394864 64.66883892 -16.31959704 61.33955495 -16.42578125 58.00390625 C-16.65819283 54.88317766 -16.65819283 54.88317766 -19.04296875 53.58984375 C-19.68878906 53.39519531 -20.33460938 53.20054687 -21 53 C-21 52.34 -21 51.68 -21 51 C-24.96 50.67 -28.92 50.34 -33 50 C-33 48 -33 48 -31.49609375 46.4921875 C-25.25610536 41.59018523 -25.25610536 41.59018523 -21 41.625 C-19.515 41.810625 -19.515 41.810625 -18 42 C-18.103125 40.80375 -18.20625 39.6075 -18.3125 38.375 C-18.34355513 34.88440321 -17.7614318 33.16275632 -15.5 30.5 C-14.675 29.675 -13.85 28.85 -13 28 C-9.42613936 31.57386064 -10.30970752 37.14791553 -10 42 C-2.41 41.67 5.18 41.34 13 41 C11.59062212 34.71454264 11.59062212 34.71454264 9.23046875 29.18359375 C8.90103271 28.56822754 8.57159668 27.95286133 8.23217773 27.31884766 C7.88743408 26.69800293 7.54269043 26.0771582 7.1875 25.4375 C6.83437744 24.78056152 6.48125488 24.12362305 6.11743164 23.44677734 C4.28475373 20.09404252 2.39176768 17.06874242 -0.0625 14.125 C-2.44765446 10.27797669 -2.22402475 8.25671819 -1.4921875 3.91796875 C-1 2 -1 2 0 0 Z " fill="#C52B27" transform="translate(178,77)"/>
<path d="M0 0 C4.455 0.99 4.455 0.99 9 2 C8.67506385 5.5742977 8.36129314 7.55712453 6.0625 10.375 C4 12 4 12 2 12 C2.66 13.134375 3.32 14.26875 4 15.4375 C6.26300378 20.00391835 6.93210324 23.9666425 6 29 C2.91966502 34.94064604 -0.76931368 37.85928934 -7 40 C-9.26296407 40.28121242 -11.53630662 40.48704889 -13.8125 40.625 C-14.97394531 40.69976562 -16.13539063 40.77453125 -17.33203125 40.8515625 C-18.21246094 40.90054688 -19.09289062 40.94953125 -20 41 C-19.67 42.65 -19.34 44.3 -19 46 C-17.19015625 46.05607422 -17.19015625 46.05607422 -15.34375 46.11328125 C-13.72913822 46.17899219 -12.11455622 46.24543771 -10.5 46.3125 C-9.70851563 46.33505859 -8.91703125 46.35761719 -8.1015625 46.38085938 C-1.53434784 46.67692233 4.2297277 47.78378216 9.5 52 C11.80808406 56.61616812 11.73631586 60.9424769 11 66 C8.60928616 70.86997264 5.34576818 74.76550272 0.13671875 76.6875 C-10.35790962 79.45025409 -22.79332169 79.3854609 -32.4375 74.125 C-36.41340581 70.82790738 -36.84746807 69.20118891 -37.5 64.0625 C-37.44861352 61.56324859 -37.28532456 60.37533231 -35.76171875 58.37109375 C-33.11774537 56.06827822 -31.54860447 55 -28 55 C-28.99 53.700625 -28.99 53.700625 -30 52.375 C-32.16116027 48.72804204 -32.72001783 47.14010252 -32 43 C-30.1875 40.8125 -30.1875 40.8125 -28 39 C-27.13375 38.13375 -27.13375 38.13375 -26.25 37.25 C-25.8375 36.8375 -25.425 36.425 -25 36 C-25.598125 35.773125 -26.19625 35.54625 -26.8125 35.3125 C-29.66427601 33.6014344 -30.52032612 31.96766054 -32 29 C-32.8178406 23.52562552 -32.70195287 18.57237443 -30.4375 13.5 C-26.24042862 9.1953114 -22.38936691 6.78803252 -16.37890625 6.609375 C-14.77296736 6.63559441 -13.16724476 6.68275848 -11.5625 6.75 C-10.73556641 6.76804687 -9.90863281 6.78609375 -9.05664062 6.8046875 C-7.03725067 6.8513786 -5.01846555 6.92310607 -3 7 C-2.01 4.69 -1.02 2.38 0 0 Z " fill="#091E36" transform="translate(725,97)"/>
<path d="M0 0 C2.97379443 2.33439847 4.61257541 3.80538749 5.80078125 7.44921875 C5.82140625 8.15046875 5.84203125 8.85171875 5.86328125 9.57421875 C4.62696445 10.46844789 3.37356563 11.33909766 2.11328125 12.19921875 C1.4171875 12.68648437 0.72109375 13.17375 0.00390625 13.67578125 C-2.13671875 14.57421875 -2.13671875 14.57421875 -4.2734375 13.8515625 C-6.4991419 12.32576514 -8.23172881 10.47920869 -10.13671875 8.57421875 C-13.45669814 7.46755895 -16.07978502 7.37181603 -19.57421875 7.32421875 C-20.70730469 7.2984375 -21.84039062 7.27265625 -23.0078125 7.24609375 C-26.42294757 7.60423526 -27.59817832 8.3768489 -30.13671875 10.57421875 C-30.79671875 10.57421875 -31.45671875 10.57421875 -32.13671875 10.57421875 C-34.66106397 16.80093697 -35.37702501 21.59582977 -35.44921875 28.26171875 C-35.47822266 29.13505859 -35.50722656 30.00839844 -35.53710938 30.90820312 C-35.59618267 36.99275267 -34.57212125 41.49038984 -31.13671875 46.57421875 C-27.26973773 50.20683728 -23.53573139 50.87650863 -18.26953125 50.7890625 C-14.65068509 50.42452671 -12.30217811 49.41018518 -9.13671875 47.57421875 C-6.76562132 43.69424114 -6.80517541 40.25341536 -6.13671875 35.57421875 C-11.08671875 35.57421875 -16.03671875 35.57421875 -21.13671875 35.57421875 C-21.13671875 32.27421875 -21.13671875 28.97421875 -21.13671875 25.57421875 C-11.89671875 25.57421875 -2.65671875 25.57421875 6.86328125 25.57421875 C6.86328125 37.45421875 6.86328125 49.33421875 6.86328125 61.57421875 C2.90328125 61.57421875 -1.05671875 61.57421875 -5.13671875 61.57421875 C-5.13671875 58.60421875 -5.13671875 55.63421875 -5.13671875 52.57421875 C-5.79671875 52.57421875 -6.45671875 52.57421875 -7.13671875 52.57421875 C-7.34296875 53.31671875 -7.54921875 54.05921875 -7.76171875 54.82421875 C-9.57399612 58.44877349 -11.61553857 59.64102179 -15.13671875 61.57421875 C-22.64618589 63.94562943 -30.11345644 62.78559892 -37.13671875 59.57421875 C-44.26080241 55.05316566 -47.54438818 47.90975828 -49.44921875 39.82421875 C-51.34706107 28.218183 -51.29578708 16.3118749 -44.51171875 6.32421875 C-33.45785076 -7.22568395 -14.41862955 -9.62120619 0 0 Z " fill="#091D36" transform="translate(443.13671875,92.42578125)"/>
<path d="M0 0 C0.94875 0.5775 1.8975 1.155 2.875 1.75 C3.74125 2.265625 4.6075 2.78125 5.5 3.3125 C11.27900335 9.24358238 13.38530689 15.5065531 13.5 23.75 C13.38413775 31.43912185 11.63426658 37.59767337 6.41796875 43.359375 C-0.11245126 49.21779928 -6.21760289 50.29836695 -14.70703125 50.1015625 C-20.71198775 49.48390983 -24.24597436 47.24467948 -28.875 43.5625 C-35.9482307 34.72096162 -36.16504661 25.66512837 -35.125 14.75 C-33.57797732 8.50698541 -29.43974612 4.21950163 -24.125 0.75 C-17.51804586 -2.59341548 -6.93905318 -2.80939542 0 0 Z " fill="#091E36" transform="translate(777.125,105.25)"/>
<path d="M0 0 C0 9.57 0 19.14 0 29 C8.58 29 17.16 29 26 29 C28 34 28 34 28 37 C18.76 37 9.52 37 0 37 C0 41.62 0 46.24 0 51 C-2.31 51.66 -4.62 52.32 -7 53 C-7 47.72 -7 42.44 -7 37 C-26.47 37 -45.94 37 -66 37 C-63.94205966 51.23192867 -63.94205966 51.23192867 -59.6875 64.4375 C-59.22802979 65.55330444 -59.22802979 65.55330444 -58.75927734 66.69165039 C-53.92682843 78.20218833 -47.89214142 88.10785858 -39 97 C-38.8046875 99.3828125 -38.8046875 99.3828125 -38.875 102.125 C-38.89304688 103.03507812 -38.91109375 103.94515625 -38.9296875 104.8828125 C-38.95289063 105.58148438 -38.97609375 106.28015625 -39 107 C-47.93334857 103.1282101 -53.88544474 93.90655885 -59 86 C-59.51304688 85.278125 -60.02609375 84.55625 -60.5546875 83.8125 C-72.27627506 66.32121909 -75.04594768 42.51666605 -74 22 C-73.67 20.68 -73.34 19.36 -73 18 C-70.03 17.34 -67.06 16.68 -64 16 C-64.33 16.639375 -64.66 17.27875 -65 17.9375 C-66.46560267 21.88896969 -66.46560267 21.88896969 -66 30 C-46.86 30 -27.72 30 -8 30 C-8 25.05 -8 20.1 -8 15 C-7.56241744 4.76056803 -7.56241744 4.76056803 -7 2 C-4 0 -4 0 0 0 Z " fill="#0F2035" transform="translate(131,135)"/>
<path d="M0 0 C2.78520373 2.19260719 4.69536548 4.29260961 6.0625 7.625 C6.1875 9.6875 6.1875 9.6875 5.0625 11.625 C2.78872985 13.36513022 0.70602927 14.39439155 -1.9375 15.625 C-5.93841915 14.29136028 -7.27396167 11.821246 -9.9375 8.625 C-15.58514147 6.74245284 -22.83463843 6.08133932 -28.27734375 8.7890625 C-32.26028213 12.07309203 -34.59095548 15.39613439 -35.15600586 20.66088867 C-36.17414424 34.42838059 -36.17414424 34.42838059 -30.9375 46.625 C-25.39948829 50.80262904 -19.59261866 50.36259502 -12.9375 49.625 C-7.44908915 47.21780226 -5.52142824 43.79285647 -2.9375 38.625 C2.0125 41.1 2.0125 41.1 7.0625 43.625 C5.19969642 51.19263953 2.66073371 55.35351186 -3.9375 59.625 C-11.84065876 63.75285802 -21.36901036 63.96206248 -29.8125 61.375 C-37.07802985 58.55534491 -42.7079712 54.28606189 -46.1015625 47.19140625 C-50.41511156 36.74889359 -51.99601164 25.52779804 -48.1875 14.625 C-44.64317445 6.21953351 -40.06027182 0.6191027 -31.8046875 -3.41796875 C-21.32282337 -7.41911043 -9.36717125 -6.22514316 0 0 Z " fill="#0A1F37" transform="translate(585.9375,92.375)"/>
<path d="M0 0 C4.62 0 9.24 0 14 0 C18.02344389 9.51173386 21.1008437 19.29933278 24.25 29.125 C24.80957528 30.86208246 25.36946851 32.59906253 25.9296875 34.3359375 C27.29012783 38.55611984 28.64625497 42.77766543 30 47 C31.73448771 44.39826844 32.56598761 42.63653949 33.49633789 39.72802734 C33.77324966 38.87058929 34.05016144 38.01315125 34.33546448 37.12973022 C34.62823776 36.20777863 34.92101105 35.28582703 35.22265625 34.3359375 C35.52819931 33.38812408 35.83374237 32.44031067 36.14854431 31.46377563 C37.12427252 28.4355805 38.09387207 25.40547311 39.0625 22.375 C40.03525364 19.33757256 41.00935488 16.30060388 41.98716736 13.26480103 C42.59570063 11.37498675 43.20121041 9.48419584 43.80348206 7.59237671 C44.07724167 6.74124298 44.35100128 5.89010925 44.63305664 5.01318359 C44.87351212 4.26056244 45.11396759 3.50794128 45.36170959 2.73251343 C46 1 46 1 47 0 C49.18639453 -0.07258946 51.37500389 -0.08373783 53.5625 -0.0625 C55.35880859 -0.04896484 55.35880859 -0.04896484 57.19140625 -0.03515625 C58.11824219 -0.02355469 59.04507813 -0.01195313 60 0 C59.38133335 3.35491586 58.57361627 6.53152306 57.49707031 9.76757812 C57.19295227 10.68623657 56.88883423 11.60489502 56.57550049 12.5513916 C56.08179962 14.02642151 56.08179962 14.02642151 55.578125 15.53125 C55.2362616 16.55875366 54.89439819 17.58625732 54.54217529 18.64489746 C53.81735333 20.82072339 53.09101798 22.99604566 52.36328125 25.17089844 C51.26377108 28.45881962 50.17059953 31.7487979 49.078125 35.0390625 C45.60739977 45.45717918 42.07369081 55.79973482 38 66 C32.72 66 27.44 66 22 66 C21.51120361 64.52313721 21.02240723 63.04627441 20.51879883 61.5246582 C18.68615917 55.99024981 16.84940618 50.45721356 15.01147461 44.92456055 C14.22000554 42.54016126 13.42961866 40.15540244 12.64038086 37.77026367 C7.08457811 20.80798166 7.08457811 20.80798166 0.78393555 4.11401367 C0 2 0 2 0 0 Z " fill="#091E36" transform="translate(328,88)"/>
<path d="M0 0 C0.72896484 -0.01998047 1.45792969 -0.03996094 2.20898438 -0.06054688 C7.39808863 -0.05587621 10.3004474 1.0753636 14.4375 4.4375 C18.16437376 8.67842532 18.57868035 12.3233368 18.75390625 17.85546875 C18.79580078 19.10908203 18.83769531 20.36269531 18.88085938 21.65429688 C18.92017578 22.96462891 18.95949219 24.27496094 19 25.625 C19.04320992 26.96029978 19.086825 28.29558652 19.13085938 29.63085938 C19.23706502 32.89963297 19.33910997 36.16848333 19.4375 39.4375 C21.0875 39.7675 22.7375 40.0975 24.4375 40.4375 C24.46439216 41.91656892 24.48384621 43.39577483 24.5 44.875 C24.51160156 45.69871094 24.52320313 46.52242187 24.53515625 47.37109375 C24.4375 49.4375 24.4375 49.4375 23.4375 50.4375 C21.67121914 50.58931257 19.89756915 50.65932672 18.125 50.6875 C17.15949219 50.71328125 16.19398438 50.7390625 15.19921875 50.765625 C12.00382483 50.38597424 10.75383426 49.62600124 8.4375 47.4375 C7.7775 46.4475 7.1175 45.4575 6.4375 44.4375 C5.695 45.22125 4.9525 46.005 4.1875 46.8125 C0.41188002 50.41650089 -2.21327792 51.73112582 -7.4375 51.8125 C-12.24651017 51.69934682 -14.91664962 50.73612653 -18.5625 47.4375 C-21.78639163 43.87425135 -22.85037581 41.14665693 -23.0625 36.4375 C-22.8195328 31.67820137 -22.02722316 28.90222316 -18.5625 25.4375 C-11.79580597 21.69666726 -4.04244616 20.13398263 3.4375 18.4375 C4.0975 16.1275 4.7575 13.8175 5.4375 11.4375 C-3.69610733 10.56963099 -3.69610733 10.56963099 -11.875 13.9375 C-12.761875 14.7625 -13.64875 15.5875 -14.5625 16.4375 C-17.85398243 15.30250606 -18.5584869 14.44466624 -20.3125 11.3125 C-20.725 10.36375 -21.1375 9.415 -21.5625 8.4375 C-14.81268833 2.34620654 -9.05748185 -0.08856204 0 0 Z " fill="#0B2038" transform="translate(622.5625,103.5625)"/>
<path d="M0 0 C4.29 0 8.58 0 13 0 C13 18.15 13 36.3 13 55 C22.57 55 32.14 55 42 55 C42 58.63 42 62.26 42 66 C28.14 66 14.28 66 0 66 C0 44.22 0 22.44 0 0 Z " fill="#0A1E37" transform="translate(465,88)"/>
<path d="M0 0 C4.45021661 0.61527616 8.08585705 2.33506633 12 4.4375 C12.65355469 4.78804443 13.30710938 5.13858887 13.98046875 5.49975586 C23.72482586 10.89142927 36.4372059 18.7195077 41.4375 28.9375 C41.623125 29.618125 41.80875 30.29875 42 31 C40.25 32.5625 40.25 32.5625 38 34 C34.21217201 33.66555112 32.66157593 31.86746681 30.1875 29.125 C26.11930533 24.9003363 21.78067294 21.39070043 17.0625 17.9375 C16.06802856 17.20394287 16.06802856 17.20394287 15.0534668 16.45556641 C11.85046175 13.88017296 11.85046175 13.88017296 8 13 C8.35191406 13.41507813 8.70382813 13.83015625 9.06640625 14.2578125 C16.0643937 22.99159319 20.86274212 33.29641429 24 44 C19.2305785 47.81374825 15.69161643 48.54858603 9.57421875 48.35546875 C8.78602249 48.34743729 7.99782623 48.33940582 7.18574524 48.33113098 C4.68562548 48.30228458 2.18708524 48.24602194 -0.3125 48.1875 C-2.82972826 48.14502222 -5.34692359 48.10820575 -7.86430359 48.07600403 C-9.42692972 48.05425918 -10.98947695 48.02554402 -12.55183411 47.98930359 C-14.36758163 47.95568081 -16.18414715 47.97265081 -18 48 C-18.495 48.495 -18.495 48.495 -19 49 C-21.18639453 49.07258946 -23.37500389 49.08373783 -25.5625 49.0625 C-27.35880859 49.04896484 -27.35880859 49.04896484 -29.19140625 49.03515625 C-30.11824219 49.02355469 -31.04507813 49.01195312 -32 49 C-27.25 43.125 -27.25 43.125 -25 42 C-22.6670134 41.95977609 -20.33293334 41.95679753 -18 42 C-18.103125 40.80375 -18.20625 39.6075 -18.3125 38.375 C-18.34355513 34.88440321 -17.7614318 33.16275632 -15.5 30.5 C-14.675 29.675 -13.85 28.85 -13 28 C-9.42613936 31.57386064 -10.30970752 37.14791553 -10 42 C-2.41 41.67 5.18 41.34 13 41 C11.59062212 34.71454264 11.59062212 34.71454264 9.23046875 29.18359375 C8.90103271 28.56822754 8.57159668 27.95286133 8.23217773 27.31884766 C7.88743408 26.69800293 7.54269043 26.0771582 7.1875 25.4375 C6.83437744 24.78056152 6.48125488 24.12362305 6.11743164 23.44677734 C4.28475373 20.09404252 2.39176768 17.06874242 -0.0625 14.125 C-2.44765446 10.27797669 -2.22402475 8.25671819 -1.4921875 3.91796875 C-1 2 -1 2 0 0 Z " fill="#0F2137" transform="translate(178,77)"/>
<path d="M0 0 C1.32 0 2.64 0 4 0 C4 72.6 4 145.2 4 220 C2.68 220 1.36 220 0 220 C0 147.4 0 74.8 0 0 Z " fill="#203248" transform="translate(292,32)"/>
<path d="M0 0 C1.32 0 2.64 0 4 0 C4 72.6 4 145.2 4 220 C2.68 220 1.36 220 0 220 C0 147.4 0 74.8 0 0 Z " fill="#203349" transform="translate(280,32)"/>
<path d="M0 0 C3.96 0 7.92 0 12 0 C12 2.64 12 5.28 12 8 C12.66 8 13.32 8 14 8 C14.226875 7.236875 14.45375 6.47375 14.6875 5.6875 C16.36264849 2.25743404 17.46213383 1.43020122 21 0 C24.01869552 -0.23298657 26.97954755 -0.17767367 30 0 C31.16063604 4.25566547 30.76173392 7.6835078 30 12 C28.75283203 12.05607422 28.75283203 12.05607422 27.48046875 12.11328125 C25.85044922 12.21189453 25.85044922 12.21189453 24.1875 12.3125 C22.56908203 12.39951172 22.56908203 12.39951172 20.91796875 12.48828125 C17.7800897 13.03856526 16.82263873 13.45072788 15 16 C13.83597273 19.49208181 13.78881492 22.39147772 13.68359375 26.07421875 C13.66281265 26.7580513 13.64203156 27.44188385 13.62062073 28.1464386 C13.55533846 30.3266921 13.49633983 32.50706405 13.4375 34.6875 C13.39429447 36.16732986 13.35067953 37.64714783 13.30664062 39.12695312 C13.19967917 42.75117622 13.09835177 46.37553189 13 50 C8.71 50 4.42 50 0 50 C0 33.5 0 17 0 0 Z " fill="#0C2139" transform="translate(655,104)"/>
<path d="M0 0 C0.33 0.99 0.66 1.98 1 3 C0.67 3.66 0.34 4.32 0 5 C1.65 4.67 3.3 4.34 5 4 C4.67 5.65 4.34 7.3 4 9 C4.66 9 5.32 9 6 9 C6 8.34 6 7.68 6 7 C6.66 7 7.32 7 8 7 C9.50606515 10.01213029 9.12160331 13.11282622 9.09765625 16.4140625 C9.0962413 17.14370209 9.09482635 17.87334167 9.09336853 18.62509155 C9.08776531 20.95843585 9.07521235 23.29168464 9.0625 25.625 C9.05748541 27.20572778 9.05292243 28.78645707 9.04882812 30.3671875 C9.03779484 34.24482854 9.02052811 38.12239807 9 42 C6.26916098 42.13548815 3.54508193 42.23429855 0.8125 42.3125 C-0.34088867 42.3753418 -0.34088867 42.3753418 -1.51757812 42.43945312 C-2.64389648 42.46362305 -2.64389648 42.46362305 -3.79296875 42.48828125 C-4.82200317 42.52755737 -4.82200317 42.52755737 -5.87182617 42.56762695 C-9.39159648 41.62883311 -10.82983157 39.86785689 -13 37 C-13.37028197 34.05807273 -13.45684841 31.76176299 -13.26953125 28.85546875 C-13.24026047 28.08568192 -13.21098969 27.31589508 -13.18083191 26.52278137 C-13.08224333 24.07593008 -12.9479225 21.63256169 -12.8125 19.1875 C-12.73916872 17.52419124 -12.66817912 15.86077748 -12.59960938 14.19726562 C-12.42683986 10.12979452 -12.22201892 6.06506825 -12 2 C-10.56656 1.46809459 -9.12804633 0.94984742 -7.6875 0.4375 C-6.48673828 0.00244141 -6.48673828 0.00244141 -5.26171875 -0.44140625 C-3 -1 -3 -1 0 0 Z " fill="#C53B37" transform="translate(104,205)"/>
<path d="M0 0 C0 22.44 0 44.88 0 68 C-2.97 68 -5.94 68 -9 68 C-9 51.17 -9 34.34 -9 17 C-11.31 17 -13.62 17 -16 17 C-16 16.34 -16 15.68 -16 15 C-15.34 15 -14.68 15 -14 15 C-14 14.34 -14 13.68 -14 13 C-14.66 13 -15.32 13 -16 13 C-16 12.34 -16 11.68 -16 11 C-17.98 11 -19.96 11 -22 11 C-21.67 10.01 -21.34 9.02 -21 8 C-18.36 7.67 -15.72 7.34 -13 7 C-12.67 6.01 -12.34 5.02 -12 4 C-10.29296875 2.83203125 -10.29296875 2.83203125 -8.1875 1.8125 C-7.50042969 1.46832031 -6.81335938 1.12414062 -6.10546875 0.76953125 C-4 0 -4 0 0 0 Z " fill="#C52823" transform="translate(167,179)"/>
<path d="M0 0 C3.70222084 1.68282766 5.94320412 3.50228498 8 7 C8.3984375 10.4609375 8.3984375 10.4609375 8.375 14.375 C8.38273438 15.66148437 8.39046875 16.94796875 8.3984375 18.2734375 C7.9729947 22.25257899 7.17878562 24.65788088 5 28 C1.59197305 30.40443619 -1.74599116 30.47644922 -5.8125 30.3828125 C-9.42037295 29.75143473 -10.89481553 27.87070609 -13 25 C-15.74153322 20.43077797 -15.64293734 15.16702079 -15 10 C-13.78074734 6.21026108 -12.53544726 2.95615073 -9.07421875 0.80078125 C-5.92648029 -0.41444735 -3.34013689 -0.29299446 0 0 Z " fill="#F9FAFA" transform="translate(769,114)"/>
<path d="M0 0 C1.32 0 2.64 0 4 0 C3.835 0.886875 3.67 1.77375 3.5 2.6875 C2.90713383 5.88564414 2.90713383 5.88564414 3.125 8.6875 C3 11 3 11 1.9375 12.75 C-0.89753909 14.57905748 -3.68800975 14.68754809 -7 15 C-7 15.66 -7 16.32 -7 17 C-5.7625 16.938125 -4.525 16.87625 -3.25 16.8125 C-0.44366227 16.82245155 0.91693253 16.96054295 3.5 18.1875 C5 20 5 20 5.4375 22.5 C4.92895459 25.40597379 4.34350849 26.26406779 2 28 C-1.69375878 29.23125293 -5.15487401 29.46420032 -9 29 C-11.5 27.5 -11.5 27.5 -13 26 C-12.125 21.25 -12.125 21.25 -11 19 C-10.34227572 15.97065509 -10.34227572 15.97065509 -10 13 C-10.33 12.67 -10.66 12.34 -11 12 C-11.4534413 5.87854251 -11.4534413 5.87854251 -10 3.0625 C-6.73357754 1.32721307 -3.65648548 1.82017285 0 2 C0 1.34 0 0.68 0 0 Z " fill="#182B42" transform="translate(627,193)"/>
<path d="M0 0 C1.65 0 3.3 0 5 0 C5 8.58 5 17.16 5 26 C2.33333333 26 -0.33333333 26 -3 26 C-3.99 26.061875 -4.98 26.12375 -6 26.1875 C-9 26 -9 26 -10.8125 24.625 C-13.8515243 20.46633517 -13.56998117 15.97730032 -13 11 C-11.375 8.375 -11.375 8.375 -9 7 C-4.89222251 6.49700684 -3.49124017 6.67250655 0 9 C0 6.03 0 3.06 0 0 Z " fill="#162A41" transform="translate(777,188)"/>
<path d="M0 0 C1.32 0 2.64 0 4 0 C4.33 2.97 4.66 5.94 5 9 C5.66 8.34 6.32 7.68 7 7 C10.40925781 6.5553142 12.34766313 6.63949804 15.375 8.3125 C17.99879814 12.65185846 17.73312699 17.07009502 17 22 C15.375 24.6875 15.375 24.6875 13 26 C8.89222251 26.50299316 7.49124017 26.32749345 4 24 C4 24.66 4 25.32 4 26 C2.68 26 1.36 26 0 26 C0 17.42 0 8.84 0 0 Z " fill="#0A1E37" transform="translate(514,188)"/>
<path d="M0 0 C2.75329021 1.79562405 4.52627461 3.05254922 6 6 C6.37677003 10.99220285 6.07396361 13.98020143 3 18 C-0.48071228 19.74035614 -4.20212738 19.57339107 -8 19 C-10.84510981 16.84881942 -11.74884291 15.33547953 -12.40625 11.83984375 C-12.6895599 7.59727803 -12.35514432 5.5273355 -9.9375 1.9375 C-6.23442804 -0.50495172 -4.36043626 -0.7007844 0 0 Z " fill="#13273E" transform="translate(606,195)"/>
<path d="M0 0 C2.75329021 1.79562405 4.52627461 3.05254922 6 6 C6.37677003 10.99220285 6.07396361 13.98020143 3 18 C-0.48071228 19.74035614 -4.20212738 19.57339107 -8 19 C-10.84510981 16.84881942 -11.74884291 15.33547953 -12.40625 11.83984375 C-12.6895599 7.59727803 -12.35514432 5.5273355 -9.9375 1.9375 C-6.23442804 -0.50495172 -4.36043626 -0.7007844 0 0 Z " fill="#13273E" transform="translate(504,195)"/>
<path d="M0 0 C3.0625 1.875 3.0625 1.875 5 4 C5 4.66 5 5.32 5 6 C3.25 6.625 3.25 6.625 1 7 C0.401875 6.67 -0.19625 6.34 -0.8125 6 C-4.03578548 4.52649807 -6.60110277 5.34636592 -10 6 C-10.05410687 7.77049689 -10.09284119 9.54146849 -10.125 11.3125 C-10.15980469 12.79169922 -10.15980469 12.79169922 -10.1953125 14.30078125 C-10.20682639 17.22406527 -10.20682639 17.22406527 -8 20 C-4.91634129 20.2502157 -4.91634129 20.2502157 -2 20 C-1.34 18.35 -0.68 16.7 0 15 C-1.65 15 -3.3 15 -5 15 C-5 14.01 -5 13.02 -5 12 C-1.7 12 1.6 12 5 12 C5 16.29 5 20.58 5 25 C3.68 25 2.36 25 1 25 C0.67 24.34 0.34 23.68 0 23 C-0.66 23.66 -1.32 24.32 -2 25 C-8.98221191 25.80123743 -8.98221191 25.80123743 -12.9375 22.6875 C-16.48197242 18.06894503 -16.55395255 13.61866162 -16 8 C-12.7675777 0.56542872 -7.7320069 -1.2794958 0 0 Z " fill="#0F233A" transform="translate(471,189)"/>
<path d="M0 0 C0.33 0.66 0.66 1.32 1 2 C1.66 2 2.32 2 3 2 C3 1.34 3 0.68 3 0 C3.66 0 4.32 0 5 0 C6.50606515 3.01213029 6.12160331 6.11282622 6.09765625 9.4140625 C6.0962413 10.14370209 6.09482635 10.87334167 6.09336853 11.62509155 C6.08776531 13.95843585 6.07521235 16.29168464 6.0625 18.625 C6.05748541 20.20572778 6.05292243 21.78645707 6.04882812 23.3671875 C6.03779484 27.24482854 6.02052811 31.12239807 6 35 C3.69 35 1.38 35 -1 35 C-1.0246519 30.17619198 -1.04283693 25.35242033 -1.05493164 20.52856445 C-1.05997174 18.88630536 -1.06680378 17.24405077 -1.07543945 15.60180664 C-1.08751926 13.24624521 -1.09323139 10.89074291 -1.09765625 8.53515625 C-1.10281754 7.79660904 -1.10797882 7.05806183 -1.11329651 6.2971344 C-1.1134925 4.53101912 -1.06194719 2.76502854 -1 1 C-0.67 0.67 -0.34 0.34 0 0 Z " fill="#C32723" transform="translate(107,212)"/>
<path d="M0 0 C1.65 0 3.3 0 5 0 C6.98 5.61 8.96 11.22 11 17 C12.60390487 11.78047191 12.60390487 11.78047191 14.20092773 6.55883789 C15.88888889 1.11111111 15.88888889 1.11111111 17 0 C18.66617115 -0.04063832 20.33388095 -0.042721 22 0 C19.56541729 8.41217604 16.79856214 16.70386716 14 25 C12.02 25 10.04 25 8 25 C0 5.76595745 0 5.76595745 0 0 Z " fill="#13273E" transform="translate(328,189)"/>
<path d="M0 0 C1.25586914 -0.00386719 1.25586914 -0.00386719 2.53710938 -0.0078125 C3.41302734 -0.00007812 4.28894531 0.00765625 5.19140625 0.015625 C6.06345703 0.00789062 6.93550781 0.00015625 7.83398438 -0.0078125 C8.67251953 -0.00523437 9.51105469 -0.00265625 10.375 0 C11.14255615 0.00225586 11.9101123 0.00451172 12.70092773 0.00683594 C14.75390625 0.265625 14.75390625 0.265625 17.75390625 2.265625 C18.31640625 4.640625 18.31640625 4.640625 17.75390625 7.265625 C14.01750395 11.10581625 10.99654079 11.5592126 5.69140625 11.703125 C0.84873066 11.69689247 -2.72762028 10.78409847 -6.24609375 7.265625 C-6.43359375 4.828125 -6.43359375 4.828125 -6.24609375 2.265625 C-3.8442969 -0.13617185 -3.27659368 0.00964413 0 0 Z " fill="#F7F8F8" transform="translate(706.24609375,154.734375)"/>
<path d="M0 0 C0 15.51 0 31.02 0 47 C-1.65 47 -3.3 47 -5 47 C-5.07589394 40.62800706 -5.1285335 34.25613009 -5.16479492 27.88378906 C-5.179907 25.71479944 -5.20039735 23.5458405 -5.22631836 21.37695312 C-5.26259534 18.26424604 -5.2797019 15.15194195 -5.29296875 12.0390625 C-5.30845261 11.065065 -5.32393646 10.0910675 -5.33988953 9.08755493 C-5.34011612 8.18677216 -5.34034271 7.28598938 -5.34057617 6.35791016 C-5.34723801 5.56293121 -5.35389984 4.76795227 -5.36076355 3.94888306 C-5.24171158 3.30575165 -5.12265961 2.66262024 -5 2 C-2 0 -2 0 0 0 Z " fill="#F6E8E8" transform="translate(145,200)"/>
<path d="M0 0 C2.203125 1.13671875 2.203125 1.13671875 4 3 C4.390625 5.91796875 4.390625 5.91796875 4.25 9.1875 C4.21390625 10.27417969 4.1778125 11.36085937 4.140625 12.48046875 C4.07101562 13.72763672 4.07101562 13.72763672 4 15 C4.66 15 5.32 15 6 15 C6 16.32 6 17.64 6 19 C3 19 0 19 -3 19 C-4.546875 19.061875 -4.546875 19.061875 -6.125 19.125 C-9 19 -9 19 -11 17 C-11.375 14.0625 -11.375 14.0625 -11 11 C-8.16746984 7.84063943 -5.10303158 7.46625359 -1 7 C-1 6.01 -1 5.02 -1 4 C-3.97 4.66 -6.94 5.32 -10 6 C-10.33 5.01 -10.66 4.02 -11 3 C-7.49023606 -0.36937338 -4.755086 -0.5094735 0 0 Z " fill="#152940" transform="translate(546,195)"/>
<path d="M0 0 C2.203125 1.13671875 2.203125 1.13671875 4 3 C4.390625 5.91796875 4.390625 5.91796875 4.25 9.1875 C4.21390625 10.27417969 4.1778125 11.36085937 4.140625 12.48046875 C4.07101562 13.72763672 4.07101562 13.72763672 4 15 C4.66 15 5.32 15 6 15 C6 16.32 6 17.64 6 19 C3 19 0 19 -3 19 C-4.546875 19.061875 -4.546875 19.061875 -6.125 19.125 C-9 19 -9 19 -11 17 C-11.375 14.0625 -11.375 14.0625 -11 11 C-8.16746984 7.84063943 -5.10303158 7.46625359 -1 7 C-1 6.01 -1 5.02 -1 4 C-3.97 4.66 -6.94 5.32 -10 6 C-10.33 5.01 -10.66 4.02 -11 3 C-7.49023606 -0.36937338 -4.755086 -0.5094735 0 0 Z " fill="#152840" transform="translate(402,195)"/>
<path d="M0 0 C2.203125 1.13671875 2.203125 1.13671875 4 3 C4.390625 5.91796875 4.390625 5.91796875 4.25 9.1875 C4.21390625 10.27417969 4.1778125 11.36085937 4.140625 12.48046875 C4.07101562 13.72763672 4.07101562 13.72763672 4 15 C4.66 15 5.32 15 6 15 C6 16.32 6 17.64 6 19 C3 19 0 19 -3 19 C-4.546875 19.061875 -4.546875 19.061875 -6.125 19.125 C-9 19 -9 19 -11 17 C-11.375 14.0625 -11.375 14.0625 -11 11 C-8.16746984 7.84063943 -5.10303158 7.46625359 -1 7 C-1 6.01 -1 5.02 -1 4 C-3.97 4.66 -6.94 5.32 -10 6 C-10.33 5.01 -10.66 4.02 -11 3 C-7.49023606 -0.36937338 -4.755086 -0.5094735 0 0 Z " fill="#152840" transform="translate(362,195)"/>
<path d="M0 0 C0.33 0 0.66 0 1 0 C0.67 2.31 0.34 4.62 0 7 C1.98 6.67 3.96 6.34 6 6 C6 16.56 6 27.12 6 38 C3.69 38 1.38 38 -1 38 C-1.02464928 32.74894558 -1.04283568 27.49792455 -1.05493164 22.24682617 C-1.05997218 20.45905979 -1.06680454 18.67129755 -1.07543945 16.88354492 C-1.0875173 14.31948832 -1.09323094 11.75548603 -1.09765625 9.19140625 C-1.10281754 8.3872377 -1.10797882 7.58306915 -1.11329651 6.75453186 C-1.11349215 4.83598285 -1.06201983 2.91754632 -1 1 C-0.67 0.67 -0.34 0.34 0 0 Z " fill="#C42723" transform="translate(120,209)"/>
<path d="M0 0 C1.32 0 2.64 0 4 0 C4 13.86 4 27.72 4 42 C2.35 42 0.7 42 -1 42 C-1.02464638 36.17928378 -1.0428343 30.35859766 -1.05493164 24.5378418 C-1.05997267 22.55606559 -1.06680538 20.57429311 -1.07543945 18.5925293 C-1.08751515 15.75047891 -1.09323045 12.90847753 -1.09765625 10.06640625 C-1.10281754 9.17474258 -1.10797882 8.28307892 -1.11329651 7.36439514 C-1.11349177 5.24259399 -1.0621003 3.1208922 -1 1 C-0.67 0.67 -0.34 0.34 0 0 Z " fill="#F6E7E7" transform="translate(128,205)"/>
<path d="M0 0 C0 16.83 0 33.66 0 51 C-1.32 51 -2.64 51 -4 51 C-4 34.5 -4 18 -4 1 C-2 0 -2 0 0 0 Z " fill="#FDFBFB" transform="translate(158,196)"/>
<path d="M0 0 C2.375 1.4375 2.375 1.4375 4 4 C4.49269345 7.06687831 4.62344409 9.95017891 4 13 C2.47688258 15.0913753 1.60836752 15.87489216 -0.9375 16.3984375 C-1.618125 16.39070313 -2.29875 16.38296875 -3 16.375 C-3.680625 16.38273437 -4.36125 16.39046875 -5.0625 16.3984375 C-7.62667237 15.87112786 -8.48305382 15.12465245 -10 13 C-10.43359375 10.625 -10.43359375 10.625 -10.4375 8 C-10.45683594 7.13375 -10.47617187 6.2675 -10.49609375 5.375 C-10 3 -10 3 -8.16015625 1.21484375 C-5.20249783 -0.44850484 -3.34243475 -0.4874384 0 0 Z " fill="#F7F8F8" transform="translate(715,112)"/>
<path d="M0 0 C0.42277492 6.13023628 -0.00204602 9.03284505 -4 14 C-5.57922406 15.57922406 -7.19443874 15.207659 -9.375 15.25 C-10.16648437 15.27578125 -10.95796875 15.3015625 -11.7734375 15.328125 C-14 15 -14 15 -15.765625 13.671875 C-17.67270122 11.08887303 -17.38882527 9.11060214 -17 6 C-14.69494093 2.9087784 -12.15524452 2.24105002 -8.5 1.3125 C-7.5409375 1.06113281 -6.581875 0.80976563 -5.59375 0.55078125 C-3 0 -3 0 0 0 Z " fill="#F5F5F6" transform="translate(629,130)"/>
<path d="M0 0 C3.0625 0.3125 3.0625 0.3125 4.7421875 1.3203125 C6.8371505 4.48135135 6.37446267 7.84590377 6.25 11.5 C6.22969727 12.62438477 6.22969727 12.62438477 6.20898438 13.77148438 C6.17368539 15.61879767 6.11987917 17.46574066 6.0625 19.3125 C4.7425 19.3125 3.4225 19.3125 2.0625 19.3125 C2.0625 14.6925 2.0625 10.0725 2.0625 5.3125 C0.0825 5.3125 -1.8975 5.3125 -3.9375 5.3125 C-5.28841528 8.01433055 -5.27608058 10.43058206 -5.5 13.4375 C-5.58378906 14.53320312 -5.66757812 15.62890625 -5.75390625 16.7578125 C-5.81449219 17.60085937 -5.87507813 18.44390625 -5.9375 19.3125 C-7.2575 19.3125 -8.5775 19.3125 -9.9375 19.3125 C-9.9375 13.3725 -9.9375 7.4325 -9.9375 1.3125 C-7.4625 1.8075 -7.4625 1.8075 -4.9375 2.3125 C-2.9375 0.3125 -2.9375 0.3125 0 0 Z " fill="#091D36" transform="translate(421.9375,194.6875)"/>
<path d="M0 0 C0.99 0.66 1.98 1.32 3 2 C2.67 2.99 2.34 3.98 2 5 C-0.64 4.67 -3.28 4.34 -6 4 C-6 4.99 -6 5.98 -6 7 C-3.98177083 7.45572917 -1.96354167 7.91145833 0.0546875 8.3671875 C2 9 2 9 4 11 C4.3597605 13.80613194 4.4961552 15.34263349 2.76171875 17.640625 C0.5302537 19.36246499 -0.70919936 19.37296735 -3.5 19.3125 C-4.2734375 19.30863281 -5.046875 19.30476563 -5.84375 19.30078125 C-8 19 -8 19 -11 17 C-10.34 15.68 -9.68 14.36 -9 13 C-5.04 13.99 -5.04 13.99 -1 15 C-1 14.01 -1 13.02 -1 12 C-1.56589844 11.86722656 -2.13179687 11.73445312 -2.71484375 11.59765625 C-3.44832031 11.42105469 -4.18179688 11.24445313 -4.9375 11.0625 C-5.66839844 10.88847656 -6.39929688 10.71445313 -7.15234375 10.53515625 C-9 10 -9 10 -10 9 C-10.45232816 3.79822616 -10.45232816 3.79822616 -8.9375 1.125 C-5.92517484 -0.62409203 -3.40497373 -0.30401551 0 0 Z " fill="#14283F" transform="translate(715,195)"/>
<path d="M0 0 C0.99 0.66 1.98 1.32 3 2 C2.67 2.99 2.34 3.98 2 5 C-0.64 4.67 -3.28 4.34 -6 4 C-6 4.99 -6 5.98 -6 7 C-3.98177083 7.45572917 -1.96354167 7.91145833 0.0546875 8.3671875 C2 9 2 9 4 11 C4.3597605 13.80613194 4.4961552 15.34263349 2.76171875 17.640625 C0.5302537 19.36246499 -0.70919936 19.37296735 -3.5 19.3125 C-4.2734375 19.30863281 -5.046875 19.30476563 -5.84375 19.30078125 C-8 19 -8 19 -11 17 C-10.34 15.68 -9.68 14.36 -9 13 C-5.04 13.99 -5.04 13.99 -1 15 C-1 14.01 -1 13.02 -1 12 C-1.56589844 11.86722656 -2.13179687 11.73445312 -2.71484375 11.59765625 C-3.44832031 11.42105469 -4.18179688 11.24445313 -4.9375 11.0625 C-5.66839844 10.88847656 -6.39929688 10.71445313 -7.15234375 10.53515625 C-9 10 -9 10 -10 9 C-10.45232816 3.79822616 -10.45232816 3.79822616 -8.9375 1.125 C-5.92517484 -0.62409203 -3.40497373 -0.30401551 0 0 Z " fill="#14283F" transform="translate(655,195)"/>
<path d="M0 0 C1.65 0 3.3 0 5 0 C5 6.93 5 13.86 5 21 C8.63 21 12.26 21 16 21 C16 22.32 16 23.64 16 25 C10.72 25 5.44 25 0 25 C0 16.75 0 8.5 0 0 Z " fill="#0E223A" transform="translate(732,189)"/>
<path d="M0 0 C1.65 0 3.3 0 5 0 C5 6.93 5 13.86 5 21 C8.63 21 12.26 21 16 21 C16 22.32 16 23.64 16 25 C10.72 25 5.44 25 0 25 C0 16.75 0 8.5 0 0 Z " fill="#0E223A" transform="translate(575,189)"/>
<path d="M0 0 C2.4375 1.5 2.4375 1.5 4 3 C3.67 3.99 3.34 4.98 3 6 C1.700625 5.814375 0.40125 5.62875 -0.9375 5.4375 C-3.08575543 5.1018371 -3.08575543 5.1018371 -5 5 C-6.20561184 5.98267859 -6.20561184 5.98267859 -6.09765625 7.84765625 C-6.08605469 8.57855469 -6.07445312 9.30945313 -6.0625 10.0625 C-6.041875 11.361875 -6.02125 12.66125 -6 14 C-2.28400809 14.20086443 -1.22791555 14.1519437 2 12 C2.66 12.33 3.32 12.66 4 13 C3.42655063 15.86724686 3.1385485 16.8614515 1 19 C-2.05942484 19.56109143 -4.93529733 19.51169103 -8 19 C-10.84510981 16.84881942 -11.74884291 15.33547953 -12.40625 11.83984375 C-12.6895599 7.59727803 -12.35514432 5.5273355 -9.9375 1.9375 C-6.2676953 -0.48300948 -4.32043918 -0.62842752 0 0 Z " fill="#152940" transform="translate(698,195)"/>
<path d="M0 0 C1.32 0 2.64 0 4 0 C4 1.32 4 2.64 4 4 C5.65 4 7.3 4 9 4 C9 5.32 9 6.64 9 8 C7.35 8 5.7 8 4 8 C4.33 11.3 4.66 14.6 5 18 C7.475 18.99 7.475 18.99 10 20 C9.67 20.99 9.34 21.98 9 23 C2.55716353 23.36468886 2.55716353 23.36468886 0.28125 21.875 C-1.57197706 19.1629604 -1.29215369 17.05676436 -1.1875 13.8125 C-1.16042969 12.72582031 -1.13335938 11.63914063 -1.10546875 10.51953125 C-1.07066406 9.68808594 -1.03585937 8.85664063 -1 8 C-1.66 8 -2.32 8 -3 8 C-3 7.01 -3 6.02 -3 5 C-2.34 5 -1.68 5 -1 5 C-0.67 3.35 -0.34 1.7 0 0 Z " fill="#162A41" transform="translate(752,191)"/>
<path d="M0 0 C1.32 0 2.64 0 4 0 C4 1.32 4 2.64 4 4 C5.65 4 7.3 4 9 4 C9 5.32 9 6.64 9 8 C7.35 8 5.7 8 4 8 C4.33 11.3 4.66 14.6 5 18 C7.475 18.99 7.475 18.99 10 20 C9.67 20.99 9.34 21.98 9 23 C2.55716353 23.36468886 2.55716353 23.36468886 0.28125 21.875 C-1.57197706 19.1629604 -1.29215369 17.05676436 -1.1875 13.8125 C-1.16042969 12.72582031 -1.13335938 11.63914063 -1.10546875 10.51953125 C-1.07066406 9.68808594 -1.03585937 8.85664063 -1 8 C-1.66 8 -2.32 8 -3 8 C-3 7.01 -3 6.02 -3 5 C-2.34 5 -1.68 5 -1 5 C-0.67 3.35 -0.34 1.7 0 0 Z " fill="#162A41" transform="translate(664,191)"/>
<path d="M0 0 C1.32 0 2.64 0 4 0 C4 1.32 4 2.64 4 4 C5.65 4 7.3 4 9 4 C9 5.32 9 6.64 9 8 C7.35 8 5.7 8 4 8 C4.33 11.3 4.66 14.6 5 18 C7.475 18.99 7.475 18.99 10 20 C9.67 20.99 9.34 21.98 9 23 C2.55716353 23.36468886 2.55716353 23.36468886 0.28125 21.875 C-1.57197706 19.1629604 -1.29215369 17.05676436 -1.1875 13.8125 C-1.16042969 12.72582031 -1.13335937 11.63914063 -1.10546875 10.51953125 C-1.07066406 9.68808594 -1.03585937 8.85664063 -1 8 C-1.66 8 -2.32 8 -3 8 C-3 7.01 -3 6.02 -3 5 C-2.34 5 -1.68 5 -1 5 C-0.67 3.35 -0.34 1.7 0 0 Z " fill="#162A41" transform="translate(435,191)"/>
<path d="M0 0 C0.99 0.66 1.98 1.32 3 2 C5.11280345 2.63292383 5.11280345 2.63292383 7 3 C7 2.34 7 1.68 7 1 C15.58 1 24.16 1 33 1 C33 1.33 33 1.66 33 2 C25.41 2.33 17.82 2.66 10 3 C18.25 3.66 26.5 4.32 35 5 C35 5.33 35 5.66 35 6 C33.41747437 5.99214478 33.41747437 5.99214478 31.80297852 5.98413086 C27.9024337 5.96608099 24.0018926 5.95456805 20.10131836 5.94506836 C18.41055684 5.9400281 16.71979971 5.93319595 15.02905273 5.92456055 C12.60399293 5.91248143 10.17899056 5.90676877 7.75390625 5.90234375 C6.99348526 5.89718246 6.23306427 5.89202118 5.44960022 5.88670349 C3.6326743 5.88650762 1.81586873 5.93802723 0 6 C-0.33 6.33 -0.66 6.66 -1 7 C-3.18639453 7.07258946 -5.37500389 7.08373783 -7.5625 7.0625 C-9.35880859 7.04896484 -9.35880859 7.04896484 -11.19140625 7.03515625 C-12.11824219 7.02355469 -13.04507813 7.01195313 -14 7 C-9.34389301 1.24113083 -7.80128246 -0.41059381 0 0 Z " fill="#101A2E" transform="translate(160,119)"/>
<path d="M0 0 C1.32 0 2.64 0 4 0 C4 12.21 4 24.42 4 37 C2.68 37 1.36 37 0 37 C0 24.79 0 12.58 0 0 Z " fill="#FEFDFE" transform="translate(114,210)"/>
<path d="M0 0 C-0.625 1.9375 -0.625 1.9375 -2 4 C-5.125 4.75 -5.125 4.75 -8 5 C-7.81584568 7.94091587 -7.81584568 7.94091587 -7 11 C-5.04836882 12.43637698 -5.04836882 12.43637698 -3 13 C-8.05412455 15.02808819 -12.39769303 15.30508378 -17.75 15.25 C-18.90048828 15.26160156 -18.90048828 15.26160156 -20.07421875 15.2734375 C-25.74650022 15.25349978 -25.74650022 15.25349978 -28 13 C-27.21238281 12.64808594 -26.42476562 12.29617187 -25.61328125 11.93359375 C-18.41084413 8.66905716 -11.48616637 5.17727795 -4.58203125 1.3203125 C-2 0 -2 0 0 0 Z " fill="#C43230" transform="translate(67,132)"/>
<path d="M0 0 C3.57386064 3.57386064 2.69029248 9.14791553 3 14 C10.59 13.67 18.18 13.34 26 13 C26.33 11.68 26.66 10.36 27 9 C27.495 11.97 27.495 11.97 28 15 C19.42 15 10.84 15 2 15 C2 15.66 2 16.32 2 17 C-0.64 16.67 -3.28 16.34 -6 16 C-5.84653748 8.94072393 -5.1246795 4.99327746 0 0 Z " fill="#2A3647" transform="translate(165,105)"/>
<path d="M0 0 C1.32 0 2.64 0 4 0 C4 10.89 4 21.78 4 33 C2.68 33 1.36 33 0 33 C0 22.11 0 11.22 0 0 Z " fill="#FBF7F7" transform="translate(101,214)"/>
<path d="M0 0 C1.32 0 2.64 0 4 0 C4 7.26 4 14.52 4 22 C4.99 22 5.98 22 7 22 C7 23.32 7 24.64 7 26 C4.625 26.125 4.625 26.125 2 26 C0 24 0 24 -0.22705078 21.56982422 C-0.21657715 20.5748291 -0.20610352 19.57983398 -0.1953125 18.5546875 C-0.18886719 17.47832031 -0.18242188 16.40195313 -0.17578125 15.29296875 C-0.15902344 14.16503906 -0.14226563 13.03710938 -0.125 11.875 C-0.11597656 10.73933594 -0.10695313 9.60367188 -0.09765625 8.43359375 C-0.07403098 5.62218701 -0.04109013 2.81119702 0 0 Z " fill="#061B33" transform="translate(556,188)"/>
<path d="M0 0 C1.32 0 2.64 0 4 0 C4 7.26 4 14.52 4 22 C4.99 22 5.98 22 7 22 C7 23.32 7 24.64 7 26 C4.625 26.125 4.625 26.125 2 26 C0 24 0 24 -0.22705078 21.56982422 C-0.21657715 20.5748291 -0.20610352 19.57983398 -0.1953125 18.5546875 C-0.18886719 17.47832031 -0.18242187 16.40195313 -0.17578125 15.29296875 C-0.15902344 14.16503906 -0.14226562 13.03710938 -0.125 11.875 C-0.11597656 10.73933594 -0.10695313 9.60367188 -0.09765625 8.43359375 C-0.07403098 5.62218701 -0.04109013 2.81119702 0 0 Z " fill="#061B33" transform="translate(482,188)"/>
<path d="M0 0 C1.32 0 2.64 0 4 0 C4 7.26 4 14.52 4 22 C4.99 22 5.98 22 7 22 C7 23.32 7 24.64 7 26 C4.625 26.125 4.625 26.125 2 26 C0 24 0 24 -0.22705078 21.56982422 C-0.21657715 20.5748291 -0.20610352 19.57983398 -0.1953125 18.5546875 C-0.18886719 17.47832031 -0.18242187 16.40195313 -0.17578125 15.29296875 C-0.15902344 14.16503906 -0.14226562 13.03710938 -0.125 11.875 C-0.11597656 10.73933594 -0.10695313 9.60367188 -0.09765625 8.43359375 C-0.07403098 5.62218701 -0.04109013 2.81119702 0 0 Z " fill="#061B33" transform="translate(372,188)"/>
<path d="M0 0 C1.32 0 2.64 0 4 0 C4.73080266 1.97746603 5.39421747 3.98072489 6 6 C5.67 6.66 5.34 7.32 5 8 C6.65 8.33 8.3 8.66 10 9 C0.28571429 17 0.28571429 17 -5 17 C-4.42176904 12.93774452 -3.10882263 10.15237654 -0.9375 6.6875 C-0.38964844 5.80449219 0.15820312 4.92148438 0.72265625 4.01171875 C1.35494141 3.01591797 1.35494141 3.01591797 2 2 C1.34 1.34 0.68 0.68 0 0 Z " fill="#C43332" transform="translate(69,142)"/>
<path d="M0 0 C1.73830078 0.14888672 1.73830078 0.14888672 3.51171875 0.30078125 C8.01038256 0.71891014 12.50713389 1.14833023 17 1.625 C17 1.955 17 2.285 17 2.625 C13.37 2.955 9.74 3.285 6 3.625 C5.67 5.605 5.34 7.585 5 9.625 C0.25981099 7.79008812 -4.36413251 5.70558541 -9 3.625 C-8.67 2.635 -8.34 1.645 -8 0.625 C-5.19058307 -0.77970846 -3.11884309 -0.27216319 0 0 Z " fill="#C43533" transform="translate(155,151.375)"/>
<path d="M0 0 C0.33 0 0.66 0 1 0 C1.33 16.17 1.66 32.34 2 49 C4.97 48.505 4.97 48.505 8 48 C8 39.42 8 30.84 8 22 C8.33 22 8.66 22 9 22 C9 31.57 9 41.14 9 51 C6.03 51 3.06 51 0 51 C0 34.17 0 17.34 0 0 Z " fill="#CD4744" transform="translate(158,196)"/>
<path d="M0 0 C4.75 0.875 4.75 0.875 7 2 C8.5183512 5.795878 8.06687163 9.9877022 8 14 C1.125 13.125 1.125 13.125 0 12 C-0.07244053 9.98035801 -0.08377188 7.95832876 -0.0625 5.9375 C-0.05347656 4.83277344 -0.04445312 3.72804687 -0.03515625 2.58984375 C-0.02355469 1.73519531 -0.01195312 0.88054687 0 0 Z " fill="#162337" transform="translate(162,133)"/>
<path d="M0 0 C3.25166491 0.44699195 6.50092746 0.90956812 9.75 1.375 C11.13058594 1.56449219 11.13058594 1.56449219 12.5390625 1.7578125 C13.87324219 1.95117188 13.87324219 1.95117188 15.234375 2.1484375 C16.45979004 2.32125244 16.45979004 2.32125244 17.70996094 2.49755859 C20.06766104 3.01484503 21.89785279 3.83073338 24 5 C24 6.32 24 7.64 24 9 C20.74968273 8.35575667 17.49980394 7.70932737 14.25 7.0625 C13.32960937 6.88009766 12.40921875 6.69769531 11.4609375 6.50976562 C10.12675781 6.24389648 10.12675781 6.24389648 8.765625 5.97265625 C7.94868164 5.81031494 7.13173828 5.64797363 6.29003906 5.48071289 C4.17772917 5.03730797 2.089663 4.53920019 0 4 C0 2.68 0 1.36 0 0 Z " fill="#A42A2B" transform="translate(179,202)"/>
<path d="M0 0 C0 2.64 0 5.28 0 8 C-4.29 8 -8.58 8 -13 8 C-12 3 -12 3 -10.4375 1.1875 C-6.8580787 -0.55632063 -3.95820158 -0.19791008 0 0 Z " fill="#253344" transform="translate(191,164)"/>
<path d="M0 0 C1.38125018 2.76250036 1.19079306 4.94731099 1 8 C-1 10 -1 10 -3.5 10.3125 C-4.7375 10.1578125 -4.7375 10.1578125 -6 10 C-8 7 -8 7 -7.75 3.375 C-7.5025 2.26125 -7.255 1.1475 -7 0 C-4.30234372 -1.34882814 -2.84835666 -0.80338265 0 0 Z " fill="#EAEBED" transform="translate(526,200)"/>
<path d="M0 0 C4.55555556 0.55555556 4.55555556 0.55555556 6 2 C6.1875 5.4375 6.1875 5.4375 6 9 C4 11 4 11 1.4375 11.1875 C-1 11 -1 11 -2 10 C-2.27314815 4.26388889 -2.27314815 4.26388889 -2 2 C-1.34 1.34 -0.68 0.68 0 0 Z " fill="#F6F7F8" transform="translate(601,199)"/>
<path d="M0 0 C4.55555556 0.55555556 4.55555556 0.55555556 6 2 C6.1875 5.4375 6.1875 5.4375 6 9 C4 11 4 11 1.4375 11.1875 C-1 11 -1 11 -2 10 C-2.27314815 4.26388889 -2.27314815 4.26388889 -2 2 C-1.34 1.34 -0.68 0.68 0 0 Z " fill="#F6F7F8" transform="translate(499,199)"/>
<path d="M0 0 C0.33 0 0.66 0 1 0 C2.19247733 9.66758406 2.08890074 19.28018529 2 29 C2 29.99 2 30.98 2 32 C2 32.99 2 33.98 2 35 C1.01 35 0.02 35 -1 35 C-1.02485364 30.97982745 -1.04293238 26.95968512 -1.05493164 22.93945312 C-1.05993786 21.5738853 -1.06674482 20.20832276 -1.07543945 18.84277344 C-1.08766831 16.87176882 -1.09272866 14.9007239 -1.09765625 12.9296875 C-1.10289307 11.74616699 -1.10812988 10.56264648 -1.11352539 9.34326172 C-1.00470177 6.13846468 -0.60517483 3.14523388 0 0 Z " fill="#C32822" transform="translate(134,211)"/>
<path d="M0 0 C2.625 0.375 2.625 0.375 5 1 C6.25 7.625 6.25 7.625 4 11 C1.4375 11.25 1.4375 11.25 -1 11 C-2.89488952 9.10511048 -2.18019112 6.42860854 -2.23046875 3.91015625 C-2 2 -2 2 0 0 Z " fill="#F5F6F7" transform="translate(771,199)"/>
<path d="M0 0 C3.7910119 1.44950455 7.3874638 3.15172566 11 5 C9.68 8.3 8.36 11.6 7 15 C4.11990998 12.11990998 3.22556147 10.61362543 1.8125 6.9375 C1.46832031 6.05964844 1.12414063 5.18179688 0.76953125 4.27734375 C0 2 0 2 0 0 Z " fill="#C43330" transform="translate(46,54)"/>
<path d="M0 0 C1.32 0 2.64 0 4 0 C4 5.94 4 11.88 4 18 C2.68 18 1.36 18 0 18 C0 12.06 0 6.12 0 0 Z " fill="#041931" transform="translate(677,196)"/>
<path d="M0 0 C1.32 0 2.64 0 4 0 C4 5.94 4 11.88 4 18 C2.68 18 1.36 18 0 18 C0 12.06 0 6.12 0 0 Z " fill="#041832" transform="translate(636,196)"/>
<path d="M0 0 C1.32 0 2.64 0 4 0 C4 5.94 4 11.88 4 18 C2.68 18 1.36 18 0 18 C0 12.06 0 6.12 0 0 Z " fill="#041831" transform="translate(382,196)"/>
<path d="M0 0 C0 0.99 0 1.98 0 3 C2.31 3.66 4.62 4.32 7 5 C7 5.33 7 5.66 7 6 C4.20807795 6.05380578 1.4171859 6.09357669 -1.375 6.125 C-2.1690625 6.14175781 -2.963125 6.15851563 -3.78125 6.17578125 C-5.85492015 6.19335473 -7.92883241 6.10335168 -10 6 C-10.66 5.34 -11.32 4.68 -12 4 C-10.56570999 3.32645501 -9.12742943 2.66140299 -7.6875 2 C-6.88699219 1.62875 -6.08648437 1.2575 -5.26171875 0.875 C-3 0 -3 0 0 0 Z " fill="#C43F3E" transform="translate(51,141)"/>
<path d="M0 0 C4.455 0.99 4.455 0.99 9 2 C7.515 4.475 7.515 4.475 6 7 C7.98 7 9.96 7 12 7 C12.625 8.875 12.625 8.875 13 11 C12.34 11.66 11.68 12.32 11 13 C9.72486237 11.92173635 8.45507431 10.83714481 7.1875 9.75 C6.47980469 9.14671875 5.77210937 8.5434375 5.04296875 7.921875 C3.0657873 6.06188786 1.48607803 4.26896456 0 2 C0 1.34 0 0.68 0 0 Z " fill="#C1322E" transform="translate(58,83)"/>
<path d="M0 0 C3 1 3 1 4 2 C5.66014616 2.36442233 7.32706064 2.69972883 9 3 C9 6 9 6 8 9 C7.67 8.34 7.34 7.68 7 7 C4.13565596 6.36087308 1.33120119 5.83055456 -1.5625 5.375 C-2.36880859 5.2409375 -3.17511719 5.106875 -4.00585938 4.96875 C-6.0026124 4.63792701 -8.0011567 4.31794962 -10 4 C-10 3.67 -10 3.34 -10 3 C-6.97265625 2.26757812 -6.97265625 2.26757812 -3.9453125 1.53515625 C-1.9414343 1.05153008 -1.9414343 1.05153008 0 0 Z " fill="#16142D" transform="translate(195,200)"/>
<path d="M0 0 C0.66 0 1.32 0 2 0 C0.95902388 3.86648272 -0.03698408 7.49461443 -2 11 C-2.66 11 -3.32 11 -4 11 C-4 11.66 -4 12.32 -4 13 C-4.66 13 -5.32 13 -6 13 C-6.33 10.36 -6.66 7.72 -7 5 C-4 4 -4 4 -2 4 C-1.34 2.68 -0.68 1.36 0 0 Z " fill="#C13D3D" transform="translate(173,166)"/>
<path d="M0 0 C1.48831242 0.00667405 2.97660807 0.01863442 4.46484375 0.03515625 C5.22345703 0.03966797 5.98207031 0.04417969 6.76367188 0.04882812 C8.64326246 0.06064945 10.52281274 0.07858547 12.40234375 0.09765625 C12.40234375 0.42765625 12.40234375 0.75765625 12.40234375 1.09765625 C7.45234375 1.09765625 2.50234375 1.09765625 -2.59765625 1.09765625 C-2.59765625 2.08765625 -2.59765625 3.07765625 -2.59765625 4.09765625 C-1.93765625 4.42765625 -1.27765625 4.75765625 -0.59765625 5.09765625 C-2.57765625 5.42765625 -4.55765625 5.75765625 -6.59765625 6.09765625 C-6.59765625 5.43765625 -6.59765625 4.77765625 -6.59765625 4.09765625 C-10.55765625 3.76765625 -14.51765625 3.43765625 -18.59765625 3.09765625 C-18.26765625 2.43765625 -17.93765625 1.77765625 -17.59765625 1.09765625 C-16.67082031 1.10925781 -15.74398437 1.12085937 -14.7890625 1.1328125 C-12.99275391 1.14634766 -12.99275391 1.14634766 -11.16015625 1.16015625 C-9.36771484 1.17755859 -9.36771484 1.17755859 -7.5390625 1.1953125 C-3.89444843 1.07430938 -3.88062292 0.10533721 0 0 Z " fill="#99494B" transform="translate(163.59765625,123.90234375)"/>
<path d="M0 0 C1 3 1 3 1 7 C-0.28650706 7.69710731 -1.57940665 8.38242876 -2.875 9.0625 C-3.59429687 9.44535156 -4.31359375 9.82820312 -5.0546875 10.22265625 C-5.69664063 10.47917969 -6.33859375 10.73570312 -7 11 C-7.66 10.67 -8.32 10.34 -9 10 C-6.03 6.7 -3.06 3.4 0 0 Z " fill="#BF3F3F" transform="translate(109,129)"/>
<path d="M0 0 C0.33 0 0.66 0 1 0 C1 2.64 1 5.28 1 8 C-1.31 7.67 -3.62 7.34 -6 7 C-5.67 5.35 -5.34 3.7 -5 2 C-4.01 1.67 -3.02 1.34 -2 1 C-1.67 1.33 -1.34 1.66 -1 2 C-0.67 1.34 -0.34 0.68 0 0 Z " fill="#1C2B3C" transform="translate(169,139)"/>
<path d="M0 0 C5.94 0.99 5.94 0.99 12 2 C11.67 2.99 11.34 3.98 11 5 C7.37 4.67 3.74 4.34 0 4 C0 2.68 0 1.36 0 0 Z " fill="#BB2B2A" transform="translate(179,202)"/>
<path d="M0 0 C0.33 0 0.66 0 1 0 C1.10787818 2.77186988 1.18723327 5.53955537 1.25 8.3125 C1.30027344 9.49102539 1.30027344 9.49102539 1.3515625 10.69335938 C1.45047515 16.50447734 1.45047515 16.50447734 -0.875 19.0625 C-3 20 -3 20 -5.25 19.6875 C-5.8275 19.460625 -6.405 19.23375 -7 19 C-6.01 19 -5.02 19 -4 19 C-4 18.01 -4 17.02 -4 16 C-3.34 16 -2.68 16 -2 16 C-1.34 10.72 -0.68 5.44 0 0 Z " fill="#C86567" transform="translate(220,153)"/>
<path d="M0 0 C2.31 0 4.62 0 7 0 C7 1.32 7 2.64 7 4 C4.69 4 2.38 4 0 4 C0 2.68 0 1.36 0 0 Z " fill="#E7E9EC" transform="translate(619,214)"/>
<path d="M0 0 C0.66 0 1.32 0 2 0 C2 0.66 2 1.32 2 2 C2.99 2 3.98 2 5 2 C5 2.99 5 3.98 5 5 C3.02 5.33 1.04 5.66 -1 6 C-1.33 6.99 -1.66 7.98 -2 9 C-3 6 -3 6 -1.5625 2.8125 C-1.046875 1.884375 -0.53125 0.95625 0 0 Z " fill="#B12C28" transform="translate(67,150)"/>
<path d="M0 0 C0 0.99 0 1.98 0 3 C-2.31 3.66 -4.62 4.32 -7 5 C-7.66 4.01 -8.32 3.02 -9 2 C-5.5647952 -0.29013653 -4.014669 -0.17842973 0 0 Z " fill="#E8E9EC" transform="translate(545,199)"/>
<path d="M0 0 C0 0.99 0 1.98 0 3 C-2.31 3.66 -4.62 4.32 -7 5 C-7.66 4.01 -8.32 3.02 -9 2 C-5.5647952 -0.29013653 -4.014669 -0.17842973 0 0 Z " fill="#E8E9EC" transform="translate(401,199)"/>
<path d="M0 0 C0 0.99 0 1.98 0 3 C-2.31 3.66 -4.62 4.32 -7 5 C-7.66 4.01 -8.32 3.02 -9 2 C-5.5647952 -0.29013653 -4.014669 -0.17842973 0 0 Z " fill="#E8E9EC" transform="translate(361,199)"/>
<path d="M0 0 C1.125 3.75 1.125 3.75 0 6 C-1.65 5.67 -3.3 5.34 -5 5 C-4.67 3.68 -4.34 2.36 -4 1 C-2.68 0.67 -1.36 0.34 0 0 Z " fill="#E2E4E7" transform="translate(544,205)"/>
<path d="M0 0 C1.125 3.75 1.125 3.75 0 6 C-1.65 5.67 -3.3 5.34 -5 5 C-4.67 3.68 -4.34 2.36 -4 1 C-2.68 0.67 -1.36 0.34 0 0 Z " fill="#E2E4E7" transform="translate(400,205)"/>
<path d="M0 0 C1.125 3.75 1.125 3.75 0 6 C-1.65 5.67 -3.3 5.34 -5 5 C-4.67 3.68 -4.34 2.36 -4 1 C-2.68 0.67 -1.36 0.34 0 0 Z " fill="#E2E4E7" transform="translate(360,205)"/>
<path d="M0 0 C1.65 0.33 3.3 0.66 5 1 C4.67 2.32 4.34 3.64 4 5 C2.35 4.67 0.7 4.34 -1 4 C-0.67 2.68 -0.34 1.36 0 0 Z " fill="#24374C" transform="translate(677,188)"/>
<path d="M0 0 C1.65 0.33 3.3 0.66 5 1 C4.67 2.32 4.34 3.64 4 5 C2.35 4.67 0.7 4.34 -1 4 C-0.67 2.68 -0.34 1.36 0 0 Z " fill="#24374C" transform="translate(636,188)"/>
<path d="M0 0 C1.65 0.33 3.3 0.66 5 1 C4.67 2.32 4.34 3.64 4 5 C2.35 4.67 0.7 4.34 -1 4 C-0.67 2.68 -0.34 1.36 0 0 Z " fill="#24374C" transform="translate(382,188)"/>
<path d="M0 0 C4 2 4 2 5 4 C4.34 4 3.68 4 3 4 C2.34 6.97 1.68 9.94 1 13 C0.67 13 0.34 13 0 13 C0 8.71 0 4.42 0 0 Z " fill="#C34947" transform="translate(42,18)"/>
<path d="M0 0 C1.65 0 3.3 0 5 0 C5 1.65 5 3.3 5 5 C3.35 4.67 1.7 4.34 0 4 C0 2.68 0 1.36 0 0 Z " fill="#F1F2F4" transform="translate(620,199)"/>
<path d="M0 0 C1.65 0.33 3.3 0.66 5 1 C4.67 1.66 4.34 2.32 4 3 C3.01 3 2.02 3 1 3 C0.34 5.64 -0.32 8.28 -1 11 C-1.33 11 -1.66 11 -2 11 C-1.85892253 9.54119891 -1.71197585 8.08296449 -1.5625 6.625 C-1.48128906 5.81289062 -1.40007812 5.00078125 -1.31640625 4.1640625 C-1 2 -1 2 0 0 Z " fill="#38404D" transform="translate(178,77)"/>
<path d="M0 0 C1.875 0.625 1.875 0.625 4 2 C5.25 5.125 5.25 5.125 6 8 C4.68 7.67 3.36 7.34 2 7 C1.34 4.69 0.68 2.38 0 0 Z " fill="#C34543" transform="translate(46,54)"/>
<path d="M0 0 C3.68266103 0.59950296 7.34543185 1.24758891 11 2 C11 2.33 11 2.66 11 3 C3.375 4 3.375 4 0 4 C0 2.68 0 1.36 0 0 Z " fill="#24162A" transform="translate(190,208)"/>
<path d="M0 0 C1.32 0 2.64 0 4 0 C4 0.66 4 1.32 4 2 C6.31 1.34 8.62 0.68 11 0 C10.34 1.65 9.68 3.3 9 5 C5.22454612 3.90931332 2.52956528 3.0916909 0 0 Z " fill="#CB3E3F" transform="translate(58,75)"/>
<path d="M0 0 C0.66 0.33 1.32 0.66 2 1 C-0.97 3.97 -3.94 6.94 -7 10 C-7 6.04435836 -5.59478606 4.89133304 -3 2 C-2.01 1.34 -1.02 0.68 0 0 Z " fill="#F2DADB" transform="translate(184,58)"/>
<path d="M0 0 C-5.625 4 -5.625 4 -9 4 C-10.33981486 3.6937566 -11.67511887 3.36548445 -13 3 C-11.21189234 2.30329584 -9.41937948 1.61788811 -7.625 0.9375 C-6.62726563 0.55464844 -5.62953125 0.17179688 -4.6015625 -0.22265625 C-2 -1 -2 -1 0 0 Z " fill="#C85254" transform="translate(137,191)"/>
<path d="M0 0 C0.66 0.33 1.32 0.66 2 1 C1.34 1.66 0.68 2.32 0 3 C2.97 3.495 2.97 3.495 6 4 C6 4.33 6 4.66 6 5 C2.37 5 -1.26 5 -5 5 C-3.35 3.35 -1.7 1.7 0 0 Z " fill="#E0D3D5" transform="translate(200,121)"/>
<path d="M0 0 C1.32 0.33 2.64 0.66 4 1 C1.36 2.65 -1.28 4.3 -4 6 C-4.33 4.68 -4.66 3.36 -5 2 C-4.34 1.67 -3.68 1.34 -3 1 C-3 1.66 -3 2.32 -3 3 C-2.34 3 -1.68 3 -1 3 C-0.67 2.01 -0.34 1.02 0 0 Z " fill="#C23635" transform="translate(140,118)"/>
<path d="M0 0 C1.4606285 2.64738916 2 3.89448334 2 7 C-1.3 7 -4.6 7 -8 7 C-8 6.67 -8 6.34 -8 6 C-4.535 5.505 -4.535 5.505 -1 5 C-0.67 3.35 -0.34 1.7 0 0 Z " fill="#4B4F58" transform="translate(157,165)"/>
<path d="M0 0 C0.33 0.99 0.66 1.98 1 3 C-1.64 3 -4.28 3 -7 3 C-4.49955934 -0.00052879 -4.2621484 0 0 0 Z " fill="#BB2E28" transform="translate(166,244)"/>
<path d="M0 0 C-0.5625 1.9375 -0.5625 1.9375 -2 4 C-5.625 4.75 -5.625 4.75 -9 5 C-2.40909091 0 -2.40909091 0 0 0 Z " fill="#C54949" transform="translate(67,132)"/>
<path d="M0 0 C4.455 0.99 4.455 0.99 9 2 C9 2.33 9 2.66 9 3 C7.35 3 5.7 3 4 3 C3.67 3.99 3.34 4.98 3 6 C0 2.25 0 2.25 0 0 Z " fill="#C1474C" transform="translate(58,83)"/>
<path d="M0 0 C0 0.33 0 0.66 0 1 C-7.42857143 1.28571429 -7.42857143 1.28571429 -11 -1 C-6.70700357 -2.26264601 -4.12168689 -1.62950412 0 0 Z " fill="#EEC6C8" transform="translate(71,61)"/>
<path d="M0 0 C0.66 0 1.32 0 2 0 C1.43628586 3.26954202 0.50037734 4.82575883 -2 7 C-2.66 6.67 -3.32 6.34 -4 6 C-2.7260411 3.96166576 -1.38938077 1.96147874 0 0 Z " fill="#2B3644" transform="translate(219,215)"/>
<path d="M0 0 C-2.3125 2.0625 -2.3125 2.0625 -5 4 C-5.99 3.67 -6.98 3.34 -8 3 C-5.53387212 -0.1151089 -3.89156016 -0.31553191 0 0 Z " fill="#C13D3E" transform="translate(73,155)"/>
<path d="M0 0 C2.625 1.4375 2.625 1.4375 5 3 C4.401875 3.144375 3.80375 3.28875 3.1875 3.4375 C1.43849596 3.8872439 -0.28677023 4.42892341 -2 5 C-2 3.68 -2 2.36 -2 1 C-1.34 0.67 -0.68 0.34 0 0 Z " fill="#C13A37" transform="translate(107,125)"/>
<path d="M0 0 C3.96 1.98 3.96 1.98 8 4 C7.01 4.33 6.02 4.66 5 5 C4.67 5.66 4.34 6.32 4 7 C3.34 5.35 2.68 3.7 2 2 C1.34 2 0.68 2 0 2 C0 1.34 0 0.68 0 0 Z " fill="#C8403D" transform="translate(64,34)"/>
</svg>
