<?xml version="1.0" encoding="UTF-8"?>
<svg version="1.1" xmlns="http://www.w3.org/2000/svg" width="500" height="500">
<path d="M0 0 C165 0 330 0 500 0 C500 165 500 330 500 500 C335 500 170 500 0 500 C0 335 0 170 0 0 Z " fill="#004AAD" transform="translate(0,0)"/>
<path d="M0 0 C1.81761857 0.85046353 3.63524985 1.70090041 5.45336914 2.55029297 C14.24812563 6.74729167 20.09683254 11.63451989 26.3125 19.015625 C27.35881168 20.24601003 28.4374377 21.45056083 29.5625 22.609375 C37.25815616 30.70584659 40.45272289 41.63290244 43.23828125 52.19921875 C43.88146274 54.92693427 43.88146274 54.92693427 45 57 C45.07092842 59.2072923 45.08415025 61.41667452 45.0625 63.625 C45.05347656 64.81351562 45.04445313 66.00203125 45.03515625 67.2265625 C45.01775391 68.59941406 45.01775391 68.59941406 45 70 C45.99 70.33 46.98 70.66 48 71 C47.875 73.6875 47.875 73.6875 47 77 C45.49953125 78.051875 45.49953125 78.051875 43.96875 79.125 C41.93178097 80.73458826 41.10990531 81.5334754 40.50830078 84.0871582 C40.41027015 86.51989257 40.47540734 88.88257824 40.625 91.3125 C40.66560547 92.56643555 40.66560547 92.56643555 40.70703125 93.84570312 C40.77740437 95.89825247 40.88501678 97.94946591 41 100 C40.01 100 39.02 100 38 100 C37.67 99.01 37.34 98.02 37 97 C34.3985448 95.0489086 32.54422623 94.07593854 29.3125 93.625 C28.549375 93.74875 27.78625 93.8725 27 94 C26.34 94.99 25.68 95.98 25 97 C3.89342755 108.11652341 -22.06264987 107.6751421 -45.31640625 107.52148438 C-48.82364085 107.4985157 -52.32967299 107.51236943 -55.83686829 107.53525448 C-95.3021916 107.75357339 -95.3021916 107.75357339 -109 98 C-111 95 -111 95 -110.9140625 92.56640625 C-108.50591109 85.80505806 -99.23731363 81.05501076 -93 78 C-92.01 78 -91.02 78 -90 78 C-90.01160156 77.28972656 -90.02320313 76.57945312 -90.03515625 75.84765625 C-90.04417969 74.92855469 -90.05320313 74.00945312 -90.0625 73.0625 C-90.07410156 72.14597656 -90.08570313 71.22945313 -90.09765625 70.28515625 C-90 68 -90 68 -89 67 C-88.65657551 65.66923011 -88.32380126 64.33568021 -88 63 C-87.67 62.34 -87.34 61.68 -87 61 C-86.84400177 58.96046762 -86.72454614 56.91806592 -86.625 54.875 C-86.22100445 49.28639485 -85.27241467 45.06041923 -83 40 C-82.67257813 39.11054688 -82.34515625 38.22109375 -82.0078125 37.3046875 C-75.3808242 19.80029771 -63.26891899 7.11198257 -47.08984375 -2.0859375 C-33.27945566 -8.12636893 -12.92267356 -6.99758378 0 0 Z " fill="#044CAD" transform="translate(273,191)"/>
<path d="M0 0 C0.66 0 1.32 0 2 0 C2.40202637 0.72888428 2.80405273 1.45776855 3.21826172 2.20874023 C13.00263526 19.96854564 13.00263526 19.96854564 23.16088867 37.515625 C26.89048475 43.79194831 30.54308814 50.11137742 34.1875 56.4375 C35.14462891 58.09857788 35.14462891 58.09857788 36.12109375 59.79321289 C37.42906691 62.06369079 38.73684513 64.334281 40.04443359 66.60498047 C43.19332054 72.0716998 46.34683264 77.53574887 49.5 83 C50.7500235 85.16665311 52.00002347 87.33331979 53.25 89.5 C54.178125 91.10875 54.178125 91.10875 55.125 92.75 C67 113.33333333 78.875 133.91666667 90.75 154.5 C91.36866943 155.57233887 91.98733887 156.64467773 92.62475586 157.74951172 C93.8756448 159.91776264 95.12645852 162.08605697 96.37719727 164.25439453 C99.48798335 169.64717915 102.60004238 175.03922093 105.71484375 180.4296875 C112.99780683 193.03731431 120.24958301 205.66206589 127.45874023 218.31201172 C128.69607798 220.48155951 129.93954096 222.64762771 131.18969727 224.80981445 C132.42970682 226.99500729 133.62902431 229.20365253 134.79272461 231.43041992 C135.37546143 232.51685791 135.95819824 233.6032959 136.55859375 234.72265625 C137.06447021 235.69984619 137.57034668 236.67703613 138.09155273 237.68383789 C140.64032589 240.77712316 142.66340955 241.00834845 146.5625 241.5625 C148.70822132 241.70997226 150.85404198 241.85601314 153 242 C157.75917531 243.78469074 160.64299126 246.20127958 164 250 C164.69867188 250.75925781 165.39734375 251.51851562 166.1171875 252.30078125 C169.47466734 257.43626015 168.57287893 263.99002619 168.5 269.875 C168.51546875 271.11636719 168.5309375 272.35773438 168.546875 273.63671875 C168.51169243 281.89582763 167.79305324 287.60447074 162.25390625 294.0234375 C161.69574219 294.46945312 161.13757813 294.91546875 160.5625 295.375 C160.00691406 295.83648437 159.45132812 296.29796875 158.87890625 296.7734375 C153.61994259 300.20652396 148.77544553 300.34607084 142.67578125 300.40625 C141.77433884 300.41765015 140.87289642 300.42905029 139.94413757 300.4407959 C138.03873351 300.45965038 136.1332649 300.47274578 134.2277832 300.48046875 C131.33882147 300.49982366 128.45274403 300.56187335 125.56445312 300.625 C108.27529087 300.83348161 108.27529087 300.83348161 101.87353516 295.93310547 C95.59050156 289.45029859 93.27673489 283.6554891 93.32617188 274.625 C93.36291016 273.5525 93.39964844 272.48 93.4375 271.375 C93.43943359 270.29476563 93.44136719 269.21453125 93.44335938 268.1015625 C93.56201521 260.89431931 94.08451027 254.58098195 98.796875 248.79296875 C99.44140625 248.26316406 100.0859375 247.73335937 100.75 247.1875 C101.70132813 246.37345703 101.70132813 246.37345703 102.671875 245.54296875 C108.85926853 241.44226331 113.66998598 240.56962678 120.9375 240.8125 C121.71673828 240.82603516 122.49597656 240.83957031 123.29882812 240.85351562 C125.19952404 240.88849776 127.09985834 240.94229041 129 241 C120.1299077 224.88756172 111.08859038 208.9000147 101.77685547 193.03759766 C98.68203638 187.74689429 95.62247281 182.43590977 92.5625 177.125 C91.93988281 176.04468506 91.31726563 174.96437012 90.67578125 173.85131836 C89.41405964 171.66171652 88.15250399 169.47201904 86.89111328 167.28222656 C83.76319852 161.85340058 80.63141552 156.42680719 77.5 151 C76.24998121 148.83334417 74.99998122 146.6666775 73.75 144.5 C73.13125 143.4275 72.5125 142.355 71.875 141.25 C60 120.66666667 48.125 100.08333333 36.25 79.5 C35.63068604 78.4265332 35.01137207 77.35306641 34.37329102 76.24707031 C33.12895002 74.09019097 31.88464636 71.93329008 30.64038086 69.77636719 C26.7668379 63.06175229 22.89178709 56.34800974 19.01586914 49.63476562 C17.12381419 46.35624421 15.23358588 43.07667593 13.34375 39.796875 C11.33035174 36.30290348 9.31103951 32.81259698 7.28125 29.328125 C6.54165293 28.0520913 5.80206816 26.77605046 5.0625 25.5 C4.15177734 23.93765625 4.15177734 23.93765625 3.22265625 22.34375 C2 20 2 20 2 18 C1.34 18 0.68 18 0 18 C-0.24363281 18.84046875 -0.48726562 19.6809375 -0.73828125 20.546875 C-2.14879975 24.40724141 -4.05985465 27.75814098 -6.1875 31.25 C-7.09498405 32.76618915 -8.00114806 34.28316888 -8.90625 35.80078125 C-9.64875 37.04335693 -9.64875 37.04335693 -10.40625 38.31103516 C-13.3790229 43.32667865 -16.27939472 48.38418227 -19.1875 53.4375 C-19.82453857 54.54319336 -20.46157715 55.64888672 -21.11791992 56.78808594 C-22.42700657 59.06024082 -23.73584262 61.33254009 -25.04443359 63.60498047 C-28.19332054 69.0716998 -31.34683264 74.53574887 -34.5 80 C-35.7500235 82.16665311 -37.00002347 84.33331979 -38.25 86.5 C-90.75 177.5 -90.75 177.5 -92.6262207 180.75195312 C-93.87233969 182.91200093 -95.11827161 185.07215667 -96.36401367 187.23242188 C-99.54684409 192.75127079 -102.73320911 198.26803002 -105.92578125 203.78125 C-113.06857208 216.12406386 -120.13612961 228.49968074 -127 241 C-126.3390332 240.97679687 -125.67806641 240.95359375 -124.99707031 240.9296875 C-117.78165981 240.78184155 -112.95561437 241.71811863 -107 246 C-99.87713102 253.43191909 -98.6370792 259.65572428 -98.625 269.6875 C-98.58826172 271.2643457 -98.58826172 271.2643457 -98.55078125 272.87304688 C-98.52098132 280.854461 -99.77366309 287.08790322 -104.9296875 293.33984375 C-105.57164062 293.86707031 -106.21359375 294.39429688 -106.875 294.9375 C-107.83019531 295.75541016 -107.83019531 295.75541016 -108.8046875 296.58984375 C-114.23814886 300.08002089 -119.59132927 300.30792214 -125.8359375 300.30078125 C-127.09321152 300.30720894 -127.09321152 300.30720894 -128.37588501 300.31376648 C-130.14250794 300.31948833 -131.90915442 300.32002592 -133.67578125 300.31567383 C-136.3597897 300.31251788 -139.04269036 300.33598536 -141.7265625 300.36132812 C-143.45051946 300.36360195 -145.17447935 300.36430423 -146.8984375 300.36328125 C-147.69140228 300.372491 -148.48436707 300.38170074 -149.30136108 300.39118958 C-155.75222555 300.33837803 -161.36645661 299.19461949 -166.4609375 294.94921875 C-167.09257812 294.20285156 -167.72421875 293.45648438 -168.375 292.6875 C-169.02210938 291.94886719 -169.66921875 291.21023438 -170.3359375 290.44921875 C-174.62600058 284.13497097 -174.39687711 277.56732568 -174.4375 270.1875 C-174.47037109 269.14529297 -174.50324219 268.10308594 -174.53710938 267.02929688 C-174.59423782 258.75605915 -172.76836134 252.87541706 -166.9375 246.87890625 C-165.9784375 246.22728516 -165.9784375 246.22728516 -165 245.5625 C-164.360625 245.11003906 -163.72125 244.65757812 -163.0625 244.19140625 C-158.19731447 241.38102445 -155.51561201 241.02620977 -149.87207031 241.74389648 C-145.5485091 242.10632609 -141.93116286 241.96684007 -138 240 C-132.33502397 233.97301341 -129.16012532 225.86431928 -125.68115234 218.45996094 C-123.1013145 213.15042536 -120.09267957 208.12408961 -117.0625 203.0625 C-115.8937961 201.07280981 -114.72714603 199.08191189 -113.5625 197.08984375 C-112.68658203 195.59493408 -112.68658203 195.59493408 -111.79296875 194.06982422 C-108.69562962 188.7667275 -105.62886142 183.44605065 -102.5625 178.125 C-101.93996338 177.04484619 -101.31742676 175.96469238 -100.67602539 174.85180664 C-99.41423174 172.66203666 -98.15259466 170.47217645 -96.89111328 168.28222656 C-93.76319852 162.85340058 -90.63141552 157.42680719 -87.5 152 C-86.24998121 149.83334417 -84.99998122 147.6666775 -83.75 145.5 C-31.25 54.5 -31.25 54.5 -29.37255859 51.24584961 C-28.13060256 49.09307184 -26.8887396 46.94024037 -25.64697266 44.78735352 C-22.74353087 39.75383085 -19.839215 34.72081952 -16.93145752 29.68978882 C-15.90654597 27.91637392 -14.88193877 26.14278354 -13.85742188 24.36914062 C-12.57547262 22.15004227 -11.29295893 19.93126984 -10.00976562 17.71289062 C-6.617222 11.83872946 -3.26927827 5.9437165 0 0 Z " fill="#FAFBFD" transform="translate(249,69)"/>
<path d="M0 0 C0.83485428 -0.00902847 1.66970856 -0.01805695 2.52986145 -0.02735901 C4.29404127 -0.04183392 6.05827444 -0.05074138 7.82250977 -0.05444336 C10.49394722 -0.06629277 13.16303704 -0.11546219 15.83398438 -0.16601562 C25.90355744 -0.262411 34.56859922 -0.17923165 42.24682617 7.21508789 C48.59599512 14.09816201 48.69694149 19.93240561 48.70703125 29.05859375 C48.73152344 30.20521484 48.75601563 31.35183594 48.78125 32.53320312 C48.80891145 40.58729674 48.03977437 47.43885837 42.33203125 53.4921875 C41.67203125 53.92660156 41.01203125 54.36101562 40.33203125 54.80859375 C39.67203125 55.26105469 39.01203125 55.71351563 38.33203125 56.1796875 C34.85218341 58.25264374 32.27387005 59.61592888 28.1652832 59.67749023 C27.35376297 59.69347763 26.54224274 59.70946503 25.70613098 59.72593689 C24.83631088 59.73129959 23.96649078 59.73666229 23.0703125 59.7421875 C21.71246895 59.75573021 21.71246895 59.75573021 20.32719421 59.76954651 C18.41160381 59.78404302 16.49596396 59.79293426 14.58032227 59.79663086 C11.67182082 59.80848255 8.76547293 59.85763476 5.85742188 59.90820312 C3.9908957 59.9176734 2.12435657 59.92490554 0.2578125 59.9296875 C-0.60188644 59.94921982 -1.46158539 59.96875214 -2.34733582 59.98887634 C-9.41553655 59.93694888 -14.98594294 57.70448494 -20.26176453 52.9282074 C-26.42093804 46.07730626 -26.06183181 38.17499538 -26.10546875 29.49609375 C-26.13833984 28.35011719 -26.17121094 27.20414062 -26.20507812 26.0234375 C-26.25956549 17.41443401 -24.56497839 12.6478967 -18.82421875 6.34765625 C-18.27765625 5.90164063 -17.73109375 5.455625 -17.16796875 4.99609375 C-16.62140625 4.53460938 -16.07484375 4.073125 -15.51171875 3.59765625 C-10.48082813 0.25083495 -5.85642861 0.03946006 0 0 Z " fill="#FBFCFD" transform="translate(238.66796875,309.62890625)"/>
<path d="M0 0 C1.9965394 2.9948091 2.68557433 5.11448337 3.5625 8.5625 C4.51176356 12.382278 4.51176356 12.382278 6 16 C6.07092842 18.2072923 6.08415025 20.41667452 6.0625 22.625 C6.05347656 23.81351563 6.04445313 25.00203125 6.03515625 26.2265625 C6.01775391 27.59941406 6.01775391 27.59941406 6 29 C6.99 29.33 7.98 29.66 9 30 C8.875 32.6875 8.875 32.6875 8 36 C6.49953125 37.051875 6.49953125 37.051875 4.96875 38.125 C2.93178097 39.73458826 2.10990531 40.5334754 1.50830078 43.0871582 C1.41027015 45.51989257 1.47540734 47.88257824 1.625 50.3125 C1.65207031 51.14845703 1.67914063 51.98441406 1.70703125 52.84570312 C1.77740437 54.89825247 1.88501678 56.94946591 2 59 C1.01 59 0.02 59 -1 59 C-1.33 58.01 -1.66 57.02 -2 56 C-4.6014552 54.0489086 -6.45577377 53.07593854 -9.6875 52.625 C-10.450625 52.74875 -11.21375 52.8725 -12 53 C-12.66 53.99 -13.32 54.98 -14 56 C-35.10657245 67.11652341 -61.06264987 66.6751421 -84.31640625 66.52148438 C-87.82364085 66.4985157 -91.32967299 66.51236943 -94.83686829 66.53525448 C-134.3021916 66.75357339 -134.3021916 66.75357339 -148 57 C-150 54 -150 54 -149.9140625 51.56640625 C-147.50591109 44.80505806 -138.23731363 40.05501076 -132 37 C-131.01 37 -130.02 37 -129 37 C-129.01160156 36.28972656 -129.02320313 35.57945312 -129.03515625 34.84765625 C-129.04417969 33.92855469 -129.05320313 33.00945312 -129.0625 32.0625 C-129.07410156 31.14597656 -129.08570313 30.22945313 -129.09765625 29.28515625 C-129 27 -129 27 -128 26 C-126.90927591 22.21205896 -126.30050606 18.31203341 -125.59765625 14.4375 C-125 12 -125 12 -123 8 C-123 16.25 -123 24.5 -123 33 C-112.16015793 36.28711548 -112.16015793 36.28711548 -101 38 C-101 38.66 -101 39.32 -101 40 C-99.35 40.33 -97.7 40.66 -96 41 C-96 40.34 -96 39.68 -96 39 C-90.39 39 -84.78 39 -79 39 C-79 39.66 -79 40.32 -79 41 C-77.515 41.495 -77.515 41.495 -76 42 C-76 37.05 -76 32.1 -76 27 C-73 30 -73 30 -72.65942383 32.17651367 C-72.67513428 32.99869385 -72.69084473 33.82087402 -72.70703125 34.66796875 C-72.71669922 35.56064453 -72.72636719 36.45332031 -72.73632812 37.37304688 C-72.76146484 38.30181641 -72.78660156 39.23058594 -72.8125 40.1875 C-72.83280273 41.59805664 -72.83280273 41.59805664 -72.85351562 43.03710938 C-72.88886397 45.35831735 -72.94267085 47.67923088 -73 50 C-68.38 50 -63.76 50 -59 50 C-59 50.66 -59 51.32 -59 52 C-63.67201205 53.20568053 -68.21496292 53.09382426 -73 53 C-73 52.34 -73 51.68 -73 51 C-73.99 51 -74.98 51 -76 51 C-76 48.69 -76 46.38 -76 44 C-76.75917725 44.02618408 -77.51835449 44.05236816 -78.30053711 44.0793457 C-93.37206506 44.52976967 -106.88213941 44.64714424 -121 39 C-121.97066406 38.61585938 -122.94132812 38.23171875 -123.94140625 37.8359375 C-124.62074219 37.56007813 -125.30007812 37.28421875 -126 37 C-125.67 36.01 -125.34 35.02 -125 34 C-125.33 33.34 -125.66 32.68 -126 32 C-126.33 34.64 -126.66 37.28 -127 40 C-128.01191406 40.07089844 -129.02382812 40.14179688 -130.06640625 40.21484375 C-134.50340803 40.84870115 -137.41137349 42.91891721 -140.9375 45.5625 C-141.52595703 45.98724609 -142.11441406 46.41199219 -142.72070312 46.84960938 C-144.15573089 47.8879628 -145.57912809 48.9423585 -147 50 C-146.04445065 52.42725763 -145.51316964 53.72804878 -143.16552734 54.97216797 C-142.4380127 55.18502441 -141.71049805 55.39788086 -140.9609375 55.6171875 C-140.15495117 55.8553418 -139.34896484 56.09349609 -138.51855469 56.33886719 C-134.5725555 57.3747111 -130.62168024 58.3059646 -126.625 59.125 C-125.37456909 59.38265137 -125.37456909 59.38265137 -124.09887695 59.64550781 C-118.07105835 60.85376959 -112.15320305 61.78186577 -106 62 C-104.95199219 62.0515625 -103.90398437 62.103125 -102.82421875 62.15625 C-95.26433246 62.36172822 -88.24241019 61.56020895 -80.86083984 60.06738281 C-76.83618384 59.25957343 -73.10479936 58.84607002 -69 59 C-69 59.66 -69 60.32 -69 61 C-68.34 61 -67.68 61 -67 61 C-67 60.34 -67 59.68 -67 59 C-60.40096639 56.65347298 -53.75909552 54.88379305 -46.9375 53.3125 C-45.97650391 53.08755859 -45.01550781 52.86261719 -44.02539062 52.63085938 C-41.68444298 52.08347361 -39.34267692 51.53992759 -37 51 C-38.59521484 51.24556641 -38.59521484 51.24556641 -40.22265625 51.49609375 C-44.24621348 52.03284544 -47.95249582 52.07100885 -52 52 C-52 51.34 -52 50.68 -52 50 C-50.79085937 49.81824219 -49.58171875 49.63648438 -48.3359375 49.44921875 C-38.47224953 47.94284174 -28.72836723 46.23768316 -19 44 C-19.33 42.02 -19.66 40.04 -20 38 C-20.66 38 -21.32 38 -22 38 C-22 39.65 -22 41.3 -22 43 C-23.485 43.495 -23.485 43.495 -25 44 C-25 42.35 -25 40.7 -25 39 C-26.89666526 39.08772455 -28.79238993 39.19591301 -30.6875 39.3125 C-31.74324219 39.37050781 -32.79898438 39.42851562 -33.88671875 39.48828125 C-37.03661017 39.80779399 -37.03661017 39.80779399 -39.53125 41.53125 C-42.52679042 43.31340696 -44.36198925 43.31221726 -47.8125 43.1875 C-49.27623047 43.14689453 -49.27623047 43.14689453 -50.76953125 43.10546875 C-51.87361328 43.05326172 -51.87361328 43.05326172 -53 43 C-53 45.64 -53 48.28 -53 51 C-53.33 51 -53.66 51 -54 51 C-54 45.39 -54 39.78 -54 34 C-53.67 34 -53.34 34 -53 34 C-53 35.65 -53 37.3 -53 39 C-49.3532707 38.5486251 -45.70781904 38.08761523 -42.0625 37.625 C-40.53012695 37.43550781 -40.53012695 37.43550781 -38.96679688 37.2421875 C-32.87831838 36.46410718 -26.96934161 35.43164606 -21 34 C-21 32.02 -21 30.04 -21 28 C-18.1071271 26.99064871 -15.21121485 25.99231256 -12.3125 25 C-11.49587891 24.71382813 -10.67925781 24.42765625 -9.83789062 24.1328125 C-2.32355667 21.57733051 -2.32355667 21.57733051 2 22 C2.33 23.65 2.66 25.3 3 27 C2.67 26.34 2.34 25.68 2 25 C1.34 25.33 0.68 25.66 0 26 C-2.52820185 26.23417307 -5.05487703 26.38156896 -7.58984375 26.5234375 C-10.40740693 27.08055696 -11.06458101 27.9843841 -13 30 C-16.6875 30.1875 -16.6875 30.1875 -20 30 C-20 31.32 -20 32.64 -20 34 C-19.34 34 -18.68 34 -18 34 C-18 37.63 -18 41.26 -18 45 C-19.7015625 45.680625 -19.7015625 45.680625 -21.4375 46.375 C-25.04721692 47.57095806 -25.04721692 47.57095806 -26 50 C-27.99291777 50.78344256 -30.02051823 51.48016365 -32.0625 52.125 C-33.16722656 52.47820312 -34.27195312 52.83140625 -35.41015625 53.1953125 C-36.69212891 53.59363281 -36.69212891 53.59363281 -38 54 C-28.90777351 51.89676945 -20.57619365 49.20537013 -12.10546875 45.28686523 C-7.16170343 43 -7.16170343 43 -5 43 C-4.67 42.01 -4.34 41.02 -4 40 C-3.175 39.5875 -2.35 39.175 -1.5 38.75 C1.4061227 37.13579798 1.4061227 37.13579798 1.8125 33.3125 C1.874375 32.219375 1.93625 31.12625 2 30 C2.99 31.98 2.99 31.98 4 34 C4.05389087 32.04196493 4.09274217 30.08351091 4.125 28.125 C4.14820313 27.03445313 4.17140625 25.94390625 4.1953125 24.8203125 C4.30060534 21.8628949 4.30060534 21.8628949 2 20 C1.58935547 17.93701172 1.58935547 17.93701172 1.3671875 15.4296875 C1.28339844 14.53378906 1.19960938 13.63789063 1.11328125 12.71484375 C1.03464844 11.77769531 0.95601562 10.84054688 0.875 9.875 C0.78863281 8.93011719 0.70226562 7.98523438 0.61328125 7.01171875 C0.40085917 4.67507582 0.19678458 2.3380033 0 0 Z " fill="#8CABD6" transform="translate(312,232)"/>
<path d="M0 0 C1.81761857 0.85046353 3.63524985 1.70090041 5.45336914 2.55029297 C14.24225179 6.74448858 20.07183897 11.62759675 26.296875 18.98828125 C27.40681997 20.2993401 28.54151777 21.58995629 29.703125 22.85546875 C32.92328721 26.396084 34.83761485 29.2342209 36 34 C33.63739216 31.76471833 31.77954561 29.38140118 29.875 26.75 C20.61085609 14.77487503 10.48168646 11.87643803 -4 10 C-4 9.01 -4 8.02 -4 7 C-7.12197478 8.3089572 -7.12197478 8.3089572 -9 11 C-8.34 11 -7.68 11 -7 11 C-7 11.66 -7 12.32 -7 13 C-7.60585938 13.25652344 -8.21171875 13.51304687 -8.8359375 13.77734375 C-19.53666369 18.66675248 -26.7029427 25.59325062 -32.625 35.71484375 C-34 38 -34 38 -36 40 C-35.83681411 30.04566054 -31.16921952 23.01962214 -24.3125 16 C-17.88084532 10 -17.88084532 10 -14 10 C-14 10.99 -14 11.98 -14 13 C-12.68 12.67 -11.36 12.34 -10 12 C-10 10.35 -10 8.7 -10 7 C-6.73454239 5.11608215 -3.71888239 4.50712033 0 4 C-4.32564205 2.41744803 -8.428721 1.54855348 -13 1 C-12.01 0.34 -11.02 -0.32 -10 -1 C-11.32 -1.33 -12.64 -1.66 -14 -2 C-14.33 -1.01 -14.66 -0.02 -15 1 C-15 -0.32 -15 -1.64 -15 -3 C-16.8141927 -2.71905418 -18.62635001 -2.42493567 -20.4375 -2.125 C-21.44683594 -1.96257812 -22.45617187 -1.80015625 -23.49609375 -1.6328125 C-24.32238281 -1.42398438 -25.14867187 -1.21515625 -26 -1 C-26.33 -0.34 -26.66 0.32 -27 1 C-26.01 1 -25.02 1 -24 1 C-23.67 0.34 -23.34 -0.32 -23 -1 C-23 -0.01 -23 0.98 -23 2 C-27.95 3.98 -32.9 5.96 -38 8 C-38.495 7.01 -38.495 7.01 -39 6 C-39.2784375 7.2375 -39.2784375 7.2375 -39.5625 8.5 C-40.91057124 11.78226041 -41.81839202 13.03527779 -44.1875 15.5 C-52.47405635 24.58068466 -56.13749271 36.30105715 -59 48 C-59.33 48 -59.66 48 -60 48 C-61.14515887 33.87637396 -55.92410128 23.39517734 -48 12 C-47.01 12.33 -46.02 12.66 -45 13 C-44.67 11.35 -44.34 9.7 -44 8 C-43.505 8.99 -43.505 8.99 -43 10 C-42.34 10 -41.68 10 -41 10 C-41.0825 9.24332031 -41.165 8.48664063 -41.25 7.70703125 C-41 5 -41 5 -39.25 3.19921875 C-38.5075 2.70035156 -37.765 2.20148438 -37 1.6875 C-36.2575 1.17574219 -35.515 0.66398438 -34.75 0.13671875 C-33.88375 -0.42595703 -33.88375 -0.42595703 -33 -1 C-44.47029536 -0.96058318 -51.3580223 2.38646498 -59.6875 10.125 C-64.50003547 15.13448976 -67.78069325 20.88228203 -71 27 C-71.66 26.34 -72.32 25.68 -73 25 C-76.91141228 32.53348722 -80.60292686 39.82175048 -83 48 C-85.00320655 42.41210805 -82.14957896 37.20716973 -80 32 C-72.85263091 17.50672379 -60.45465985 2.98082771 -45 -3 C-30.4133914 -6.94232665 -13.39095299 -7.25115549 0 0 Z " fill="#6F97CC" transform="translate(273,191)"/>
<path d="M0 0 C0.495 2.475 0.495 2.475 1 5 C0.505 4.01 0.505 4.01 0 3 C-0.66 3.33 -1.32 3.66 -2 4 C-4.52820185 4.23417307 -7.05487703 4.38156896 -9.58984375 4.5234375 C-12.40740693 5.08055696 -13.06458101 5.9843841 -15 8 C-18.6875 8.1875 -18.6875 8.1875 -22 8 C-22 9.32 -22 10.64 -22 12 C-21.34 12 -20.68 12 -20 12 C-20 15.63 -20 19.26 -20 23 C-21.134375 23.45375 -22.26875 23.9075 -23.4375 24.375 C-27.04721692 25.57095806 -27.04721692 25.57095806 -28 28 C-29.99291777 28.78344256 -32.02051823 29.48016365 -34.0625 30.125 C-35.16722656 30.47820312 -36.27195312 30.83140625 -37.41015625 31.1953125 C-38.26480469 31.46085937 -39.11945313 31.72640625 -40 32 C-29.95178601 32.16489368 -29.95178601 32.16489368 -20 31 C-20.33 31.99 -20.66 32.98 -21 34 C-22.93017578 34.89135742 -22.93017578 34.89135742 -25.4453125 35.60546875 C-26.35796875 35.86650391 -27.270625 36.12753906 -28.2109375 36.39648438 C-29.17257812 36.65751953 -30.13421875 36.91855469 -31.125 37.1875 C-32.0634375 37.46013672 -33.001875 37.73277344 -33.96875 38.01367188 C-39.13884831 39.45825817 -43.63379254 40.33445891 -49 40 C-49 38.35 -49 36.7 -49 35 C-50.10859375 35.28875 -51.2171875 35.5775 -52.359375 35.875 C-53.82285243 36.25025062 -55.28639768 36.62523678 -56.75 37 C-57.47960937 37.19078125 -58.20921875 37.3815625 -58.9609375 37.578125 C-62.44571646 38.46515964 -65.38123722 39 -69 39 C-69 38.34 -69 37.68 -69 37 C-62.40096639 34.65347298 -55.75909552 32.88379305 -48.9375 31.3125 C-47.49600586 30.97508789 -47.49600586 30.97508789 -46.02539062 30.63085938 C-43.68444298 30.08347361 -41.34267692 29.53992759 -39 29 C-40.59521484 29.24556641 -40.59521484 29.24556641 -42.22265625 29.49609375 C-46.24621348 30.03284544 -49.95249582 30.07100885 -54 30 C-54 29.34 -54 28.68 -54 28 C-52.18628906 27.72736328 -52.18628906 27.72736328 -50.3359375 27.44921875 C-40.47224953 25.94284174 -30.72836723 24.23768316 -21 22 C-21.495 19.03 -21.495 19.03 -22 16 C-22.66 16 -23.32 16 -24 16 C-24 17.65 -24 19.3 -24 21 C-24.99 21.33 -25.98 21.66 -27 22 C-27 20.35 -27 18.7 -27 17 C-28.89666526 17.08772455 -30.79238993 17.19591301 -32.6875 17.3125 C-33.74324219 17.37050781 -34.79898438 17.42851562 -35.88671875 17.48828125 C-39.03661017 17.80779399 -39.03661017 17.80779399 -41.53125 19.53125 C-44.52679042 21.31340696 -46.36198925 21.31221726 -49.8125 21.1875 C-50.78832031 21.16042969 -51.76414062 21.13335937 -52.76953125 21.10546875 C-53.50558594 21.07066406 -54.24164063 21.03585937 -55 21 C-55 23.64 -55 26.28 -55 29 C-55.33 29 -55.66 29 -56 29 C-56 23.39 -56 17.78 -56 12 C-55.67 12 -55.34 12 -55 12 C-55 13.65 -55 15.3 -55 17 C-51.3532707 16.5486251 -47.70781904 16.08761523 -44.0625 15.625 C-43.04091797 15.49867188 -42.01933594 15.37234375 -40.96679688 15.2421875 C-34.87831838 14.46410718 -28.96934161 13.43164606 -23 12 C-23 10.02 -23 8.04 -23 6 C-20.1071271 4.99064871 -17.21121485 3.99231256 -14.3125 3 C-13.08756836 2.57074219 -13.08756836 2.57074219 -11.83789062 2.1328125 C-4.32355667 -0.42266949 -4.32355667 -0.42266949 0 0 Z " fill="#7299CE" transform="translate(314,254)"/>
<path d="M0 0 C1.9965394 2.9948091 2.68557433 5.11448337 3.5625 8.5625 C4.51176356 12.382278 4.51176356 12.382278 6 16 C6.07092842 18.2072923 6.08415025 20.41667452 6.0625 22.625 C6.05347656 23.81351563 6.04445313 25.00203125 6.03515625 26.2265625 C6.02355469 27.14179688 6.01195312 28.05703125 6 29 C6.99 29.33 7.98 29.66 9 30 C8.875 32.6875 8.875 32.6875 8 36 C6.9996875 36.70125 5.999375 37.4025 4.96875 38.125 C2.93178097 39.73458826 2.10990531 40.5334754 1.50830078 43.0871582 C1.41027015 45.51989257 1.47540734 47.88257824 1.625 50.3125 C1.65207031 51.14845703 1.67914063 51.98441406 1.70703125 52.84570312 C1.77740437 54.89825247 1.88501678 56.94946591 2 59 C1.01 59 0.02 59 -1 59 C-1.33 58.01 -1.66 57.02 -2 56 C-4.6014552 54.0489086 -6.45577377 53.07593854 -9.6875 52.625 C-10.450625 52.74875 -11.21375 52.8725 -12 53 C-12.66 53.99 -13.32 54.98 -14 56 C-16.50224925 57.17512173 -18.91181464 58.1845394 -21.5 59.125 C-22.57507813 59.52356201 -22.57507813 59.52356201 -23.671875 59.93017578 C-29.07751391 61.85399017 -34.23173469 62.97226796 -40 63 C-40 62.34 -40 61.68 -40 61 C-39.36908447 60.82871582 -38.73816895 60.65743164 -38.08813477 60.48095703 C-35.24393505 59.70385902 -32.40325095 58.91460757 -29.5625 58.125 C-28.56927734 57.85558594 -27.57605469 57.58617187 -26.55273438 57.30859375 C-25.13637695 56.91220703 -25.13637695 56.91220703 -23.69140625 56.5078125 C-22.81685791 56.26691895 -21.94230957 56.02602539 -21.04125977 55.77783203 C-18.81456717 55.19293381 -18.81456717 55.19293381 -18 53 C-19.36125 53.495 -19.36125 53.495 -20.75 54 C-26.06183796 55.55521854 -31.52020695 55.16196433 -37 55 C-33.78221323 53.24063457 -30.58665428 52.24321035 -27.0625 51.25 C-20.89726698 49.40879919 -15.35689123 46.99296742 -9.58203125 44.171875 C-7 43 -7 43 -5 43 C-4.67 42.01 -4.34 41.02 -4 40 C-2.7625 39.38125 -2.7625 39.38125 -1.5 38.75 C1.4061227 37.13579798 1.4061227 37.13579798 1.8125 33.3125 C1.874375 32.219375 1.93625 31.12625 2 30 C2.66 31.32 3.32 32.64 4 34 C4.05389087 32.04196493 4.09274217 30.08351091 4.125 28.125 C4.14820313 27.03445313 4.17140625 25.94390625 4.1953125 24.8203125 C4.30060534 21.8628949 4.30060534 21.8628949 2 20 C1.58935547 17.93701172 1.58935547 17.93701172 1.3671875 15.4296875 C1.28339844 14.53378906 1.19960938 13.63789063 1.11328125 12.71484375 C1.03464844 11.77769531 0.95601563 10.84054688 0.875 9.875 C0.78863281 8.93011719 0.70226562 7.98523438 0.61328125 7.01171875 C0.40085917 4.67507582 0.19678458 2.3380033 0 0 Z " fill="#B0C5E1" transform="translate(312,232)"/>
<path d="M0 0 C1.16337891 0.00966797 2.32675781 0.01933594 3.52539062 0.02929688 C4.74033203 0.05443359 5.95527344 0.07957031 7.20703125 0.10546875 C8.43357422 0.11900391 9.66011719 0.13253906 10.92382812 0.14648438 C13.95616789 0.18188134 16.98763121 0.23126115 20.01953125 0.29296875 C20.01953125 2.27296875 20.01953125 4.25296875 20.01953125 6.29296875 C17.27744447 5.6667272 14.79565265 4.82180201 12.20703125 3.73046875 C8.28156753 2.21331016 5.19954019 2.03171819 1.01953125 2.29296875 C5.27147185 5.12759582 9.85219161 5.93012199 14.76953125 7.1953125 C19.25161681 8.7090938 19.25161681 8.7090938 21.01953125 11.29296875 C21.08203125 14.29296875 21.08203125 14.29296875 20.01953125 17.29296875 C12.17614538 23.3263425 -0.83627718 20.03082859 -9.98046875 19.29296875 C-9.98046875 16.65296875 -9.98046875 14.01296875 -9.98046875 11.29296875 C-7.45906185 12.50324406 -5.25136525 13.78399764 -2.91796875 15.35546875 C1.72883651 18.0847059 6.74291843 18.10213284 12.01953125 18.29296875 C12.01953125 17.63296875 12.01953125 16.97296875 12.01953125 16.29296875 C10.85035156 16.050625 9.68117188 15.80828125 8.4765625 15.55859375 C6.92822747 15.2207752 5.38005889 14.88219312 3.83203125 14.54296875 C3.06310547 14.38570313 2.29417969 14.2284375 1.50195312 14.06640625 C-3.2578526 13.00413201 -6.35525284 11.75109054 -9.98046875 8.29296875 C-9.63254866 5.71836009 -9.32847322 3.78398278 -7.8112793 1.64331055 C-5.18279955 -0.29536414 -3.2382159 -0.04738853 0 0 Z " fill="#2A67BA" transform="translate(101.98046875,331.70703125)"/>
<path d="M0 0 C0.33 0 0.66 0 1 0 C2.06685013 15.20684794 2.06685013 15.20684794 -0.3828125 19.32421875 C-2.18801103 20.81292144 -3.95018177 21.87795249 -6 23 C-6.72832031 23.62132812 -7.45664062 24.24265625 -8.20703125 24.8828125 C-11.75123423 27.56946707 -15.44137121 29.28188238 -19.5 31.0625 C-20.29229004 31.41175537 -21.08458008 31.76101074 -21.90087891 32.12084961 C-38.91339842 39.40138395 -38.91339842 39.40138395 -46 37 C-43.89748139 36.32815382 -41.79292237 35.66269032 -39.6875 35 C-38.51574219 34.62875 -37.34398437 34.2575 -36.13671875 33.875 C-33 33 -33 33 -30 33 C-29.67 32.01 -29.34 31.02 -29 30 C-25.9375 28.8125 -25.9375 28.8125 -23 28 C-22.67 24.37 -22.34 20.74 -22 17 C-22.66 17 -23.32 17 -24 17 C-24 15.68 -24 14.36 -24 13 C-22.906875 12.896875 -21.81375 12.79375 -20.6875 12.6875 C-17.08718709 12.40413361 -17.08718709 12.40413361 -15.65625 10.5 C-13.21018185 8.284693 -11.05209343 8.48667169 -7.8125 8.3125 C-6.18248047 8.21388672 -6.18248047 8.21388672 -4.51953125 8.11328125 C-3.68808594 8.07589844 -2.85664063 8.03851563 -2 8 C-2.04125 7.236875 -2.0825 6.47375 -2.125 5.6875 C-2 3 -2 3 0 0 Z " fill="#054DAE" transform="translate(316,249)"/>
<path d="M0 0 C11.55 0 23.1 0 35 0 C35 2.31 35 4.62 35 7 C34.5153125 6.72285156 34.030625 6.44570313 33.53125 6.16015625 C28.5861627 3.48790715 24.60455867 2.40032562 19 2 C19 3.98 19 5.96 19 8 C22.35433109 7.05066101 25.69246505 6.10251165 29 5 C29 7.64 29 10.28 29 13 C25.7 12.01 22.4 11.02 19 10 C19 11.98 19 13.96 19 16 C25.13053511 16.32712342 29.62669111 16.39366878 35 13 C35 14.98 35 16.96 35 19 C23.78 19 12.56 19 1 19 C2.32 18.34 3.64 17.68 5 17 C6.33901792 15.88873341 6.33901792 15.88873341 6.09765625 13.05859375 C6.08605469 11.86363281 6.07445312 10.66867187 6.0625 9.4375 C6.05347656 8.23996094 6.04445313 7.04242188 6.03515625 5.80859375 C6.02355469 4.88175781 6.01195312 3.95492188 6 3 C3.03 2.505 3.03 2.505 0 2 C0 1.34 0 0.68 0 0 Z " fill="#044CAE" transform="translate(362,332)"/>
<path d="M0 0 C3 3 3 3 3.34057617 5.17651367 C3.3170105 6.40978394 3.3170105 6.40978394 3.29296875 7.66796875 C3.2784668 9.00698242 3.2784668 9.00698242 3.26367188 10.37304688 C3.23853516 11.30181641 3.21339844 12.23058594 3.1875 13.1875 C3.16719727 14.59805664 3.16719727 14.59805664 3.14648438 16.03710938 C3.11113603 18.35831735 3.05732915 20.67923088 3 23 C7.62 23 12.24 23 17 23 C17 23.66 17 24.32 17 25 C12.32798795 26.20568053 7.78503708 26.09382426 3 26 C3 25.34 3 24.68 3 24 C2.01 24 1.02 24 0 24 C0 21.69 0 19.38 0 17 C-0.75917725 17.02618408 -1.51835449 17.05236816 -2.30053711 17.0793457 C-17.37206506 17.52976967 -30.88213941 17.64714424 -45 12 C-46.45599609 11.42378906 -46.45599609 11.42378906 -47.94140625 10.8359375 C-48.62074219 10.56007813 -49.30007812 10.28421875 -50 10 C-49.67 9.01 -49.34 8.02 -49 7 C-49.87483915 4.83284443 -49.87483915 4.83284443 -51 3 C-50.01 2.34 -49.02 1.68 -48 1 C-47.67 2.65 -47.34 4.3 -47 6 C-36.16621784 9.29666926 -36.16621784 9.29666926 -25 11 C-25 11.66 -25 12.32 -25 13 C-22.525 13.495 -22.525 13.495 -20 14 C-20 13.34 -20 12.68 -20 12 C-14.39 12 -8.78 12 -3 12 C-3 12.66 -3 13.32 -3 14 C-2.01 14.33 -1.02 14.66 0 15 C0 10.05 0 5.1 0 0 Z " fill="#7FA3D2" transform="translate(236,259)"/>
<path d="M0 0 C5.90978863 -0.81976891 5.90978863 -0.81976891 8.70263672 1.28027344 C10.38843796 3.07729963 11.92233623 4.93209238 13.4375 6.875 C13.97826172 7.52597656 14.51902344 8.17695313 15.07617188 8.84765625 C19 13.65943031 19 13.65943031 19 16 C20.65 16.33 22.3 16.66 24 17 C24 17.33 24 17.66 24 18 C16.74 18 9.48 18 2 18 C2 17.34 2 16.68 2 16 C2.99 16 3.98 16 5 16 C4.67 15.01 4.34 14.02 4 13 C-0.29 12.67 -4.58 12.34 -9 12 C-8.4260261 16.20180184 -8.4260261 16.20180184 -5 18 C-8.96 18 -12.92 18 -17 18 C-17 17.34 -17 16.68 -17 16 C-16.21625 15.9175 -15.4325 15.835 -14.625 15.75 C-11.85955198 15.28474077 -11.85955198 15.28474077 -10.8125 13 C-10.544375 12.34 -10.27625 11.68 -10 11 C-7.59454362 9.79727181 -6.05003047 9.89928528 -3.375 9.9375 C-2.14910156 9.95103516 -2.14910156 9.95103516 -0.8984375 9.96484375 C0.04128906 9.98224609 0.04128906 9.98224609 1 10 C1 9.34 1 8.68 1 8 C1.99 8 2.98 8 4 8 C5.31640625 9.49609375 5.31640625 9.49609375 6.5625 11.4375 C8.30536929 14.23259721 8.30536929 14.23259721 11 16 C10.2059375 15.01257813 9.411875 14.02515625 8.59375 13.0078125 C7.56224612 11.71374399 6.53100992 10.41946209 5.5 9.125 C4.97535156 8.47402344 4.45070312 7.82304687 3.91015625 7.15234375 C3.41386719 6.52714844 2.91757813 5.90195312 2.40625 5.2578125 C1.94541016 4.6817627 1.48457031 4.10571289 1.00976562 3.51220703 C0 2 0 2 0 0 Z " fill="#0950B0" transform="translate(246,333)"/>
<path d="M0 0 C10.58904858 4.89080239 15.21341527 15.55597861 19.10546875 25.953125 C20.43516999 30.12326785 21.13139914 33.60199349 21 38 C19.23537317 34.91190305 19 33.76687864 19 30 C18.01 30 17.02 30 16 30 C16 31.65 16 33.3 16 35 C13.78600697 31.20458337 12.99019802 27.24370579 12 23 C11.01 23 10.02 23 9 23 C9.22816406 23.61488281 9.45632813 24.22976562 9.69140625 24.86328125 C9.97886719 25.67152344 10.26632812 26.47976562 10.5625 27.3125 C10.85253906 28.11300781 11.14257812 28.91351563 11.44140625 29.73828125 C12 32 12 32 11 35 C10.60167969 33.89140625 10.20335937 32.7828125 9.79296875 31.640625 C9.25816594 30.17695414 8.72299003 28.71341957 8.1875 27.25 C7.92646484 26.52039063 7.66542969 25.79078125 7.39648438 25.0390625 C6.24426816 21.90958636 5.26371304 19.34849882 3.23828125 16.671875 C2.82964844 16.12015625 2.42101562 15.5684375 2 15 C2.33 14.01 2.66 13.02 3 12 C3 9.3534665 2.01860366 7.4191837 1 5 C4.58806317 8.38872633 7.45684799 11.76141332 10 16 C10 16.66 10 17.32 10 18 C10.66 18 11.32 18 12 18 C10.08198936 12.58444054 7.52974817 8.99972921 3.62109375 4.796875 C2 3 2 3 0 0 Z " fill="#4F81C3" transform="translate(290,209)"/>
<path d="M0 0 C0.33 0.99 0.66 1.98 1 3 C2.65 2.34 4.3 1.68 6 1 C4.96501431 4.10495707 4.21350711 4.78649289 2 7 C1.71640625 7.62261719 1.4328125 8.24523437 1.140625 8.88671875 C-0.18815484 11.34860194 -1.65007845 12.61363943 -3.8125 14.375 C-7.32619556 17.33828059 -10.17554296 20.38116442 -13 24 C-13.33 23.01 -13.66 22.02 -14 21 C-14.99 21.33 -15.98 21.66 -17 22 C-18 19 -18 19 -18 15 C-13.60846589 8.55740554 -6.41838353 4.20877609 0 0 Z " fill="#1B5CB2" transform="translate(246,197)"/>
<path d="M0 0 C0.33 0 0.66 0 1 0 C2.06685013 15.20684794 2.06685013 15.20684794 -0.3828125 19.32421875 C-2.18028473 20.80654974 -3.94689843 21.90673417 -6 23 C-6.825 23.721875 -7.65 24.44375 -8.5 25.1875 C-11.5458579 27.39574698 -14.50192223 28.6282048 -18 30 C-18 29.34 -18 28.68 -18 28 C-16.02 27.01 -14.04 26.02 -12 25 C-11.94615479 22.70858714 -11.90727913 20.41681812 -11.875 18.125 C-11.85179687 16.84882813 -11.82859375 15.57265625 -11.8046875 14.2578125 C-11.64358476 10.91406662 -11.64358476 10.91406662 -14 9 C-8.06 8.505 -8.06 8.505 -2 8 C-2 6.35 -2 4.7 -2 3 C-1.34 2.01 -0.68 1.02 0 0 Z " fill="#175AB2" transform="translate(316,249)"/>
<path d="M0 0 C0.33 0 0.66 0 1 0 C1 1.65 1 3.3 1 5 C4.6467293 4.5486251 8.29218096 4.08761523 11.9375 3.625 C12.95908203 3.49867188 13.98066406 3.37234375 15.03320312 3.2421875 C19.81042598 2.63167979 24.45349691 1.94065049 29.12890625 0.7734375 C30.40636719 0.51820313 31.68382812 0.26296875 33 0 C33.66 0.66 34.32 1.32 35 2 C34.625 4.125 34.625 4.125 34 6 C34 5.34 34 4.68 34 4 C33.34 4 32.68 4 32 4 C32 5.65 32 7.3 32 9 C31.01 9.33 30.02 9.66 29 10 C29 8.35 29 6.7 29 5 C27.10333474 5.08772455 25.20761007 5.19591301 23.3125 5.3125 C22.25675781 5.37050781 21.20101563 5.42851562 20.11328125 5.48828125 C16.96338983 5.80779399 16.96338983 5.80779399 14.46875 7.53125 C11.47320958 9.31340696 9.63801075 9.31221726 6.1875 9.1875 C5.21167969 9.16042969 4.23585938 9.13335937 3.23046875 9.10546875 C2.49441406 9.07066406 1.75835937 9.03585937 1 9 C1 11.64 1 14.28 1 17 C0.67 17 0.34 17 0 17 C0 11.39 0 5.78 0 0 Z " fill="#5D8BC7" transform="translate(258,266)"/>
<path d="M0 0 C0.99 0.33 1.98 0.66 3 1 C2.43152344 1.42410156 1.86304688 1.84820312 1.27734375 2.28515625 C-8.3051288 9.563996 -14.23816024 16.33446684 -20 27 C-20.66 26.34 -21.32 25.68 -22 25 C-25.91141228 32.53348722 -29.60292686 39.82175048 -32 48 C-34.00320655 42.41210805 -31.14957896 37.20716973 -29 32 C-22.30591514 18.42588348 -12.55696375 8.37130917 0 0 Z " fill="#A3BCDE" transform="translate(222,191)"/>
<path d="M0 0 C5.61 0 11.22 0 17 0 C17 0.33 17 0.66 17 1 C14.69 1 12.38 1 10 1 C11.06541016 2.35544922 11.06541016 2.35544922 12.15234375 3.73828125 C13.08094601 4.92951849 14.00931953 6.12093408 14.9375 7.3125 C15.64036133 8.20485352 15.64036133 8.20485352 16.35742188 9.11523438 C18.38555959 11.72700884 19.94630801 13.83892403 21 17 C17.28631113 15.76210371 16.22645819 14.14775123 14 11 C14 10.34 14 9.68 14 9 C13.01 9 12.02 9 11 9 C11.33 9.99 11.66 10.98 12 12 C8.7 12 5.4 12 2 12 C2.79802815 8.8078874 3.74231289 6.01844907 5 3 C3.35 2.67 1.7 2.34 0 2 C0 1.34 0 0.68 0 0 Z " fill="#2867BA" transform="translate(236,332)"/>
<path d="M0 0 C0.66 0.33 1.32 0.66 2 1 C-1.96 4.465 -1.96 4.465 -6 8 C-5.67 8.33 -5.34 8.66 -5 9 C-4.34 8.01 -3.68 7.02 -3 6 C-2.01 6 -1.02 6 0 6 C0 5.34 0 4.68 0 4 C1.98 3.34 3.96 2.68 6 2 C3.71100449 4.36283407 1.44873014 6.62927342 -1.08984375 8.7265625 C-6.43881995 13.17032735 -10.05886736 17.68620985 -13.58984375 23.6796875 C-15 26 -15 26 -17 28 C-16.83557543 17.9701013 -12.09169988 10.93841622 -5.1875 3.875 C-3.45506418 2.21788747 -2.14617242 1.07308621 0 0 Z " fill="#8BABD5" transform="translate(254,203)"/>
<path d="M0 0 C0.33 1.98 0.66 3.96 1 6 C-1.97 6 -4.94 6 -8 6 C-8 5.01 -8 4.02 -8 3 C-11.12197478 4.3089572 -11.12197478 4.3089572 -13 7 C-12.34 7 -11.68 7 -11 7 C-11 7.66 -11 8.32 -11 9 C-14.99000166 10.42500059 -18.80530429 11.40075776 -23 12 C-23 12.66 -23 13.32 -23 14 C-23.99 14 -24.98 14 -26 14 C-26.433125 14.9590625 -26.433125 14.9590625 -26.875 15.9375 C-28 18 -28 18 -30 19 C-29.44514063 15.431946 -28.33214619 14.11384185 -25.5 11.9375 C-22.83347234 9.8774981 -22.10366566 9.31099698 -21 6 C-20.01 6 -19.02 6 -18 6 C-18 6.99 -18 7.98 -18 9 C-16.68 8.67 -15.36 8.34 -14 8 C-14 6.35 -14 4.7 -14 3 C-9.5718927 0.52025991 -4.9510693 -1.65035643 0 0 Z " fill="#487BC1" transform="translate(277,195)"/>
<path d="M0 0 C-0.33 0.99 -0.66 1.98 -1 3 C-2.93017578 3.89135742 -2.93017578 3.89135742 -5.4453125 4.60546875 C-6.81429688 4.99702148 -6.81429688 4.99702148 -8.2109375 5.39648438 C-9.17257812 5.65751953 -10.13421875 5.91855469 -11.125 6.1875 C-12.0634375 6.46013672 -13.001875 6.73277344 -13.96875 7.01367188 C-19.13884831 8.45825817 -23.63379254 9.33445891 -29 9 C-29 8.01 -29 7.02 -29 6 C-19.63545391 2.46685624 -10.07590306 0 0 0 Z " fill="#1256B0" transform="translate(294,285)"/>
<path d="M0 0 C11.55 0 23.1 0 35 0 C35 2.31 35 4.62 35 7 C34.01 6.38125 33.02 5.7625 32 5.125 C25.49159314 1.80005302 18.15813101 1.7158131 11 1 C11 6.61 11 12.22 11 18 C10.34 18 9.68 18 9 18 C9 12.39 9 6.78 9 1 C4.545 1.495 4.545 1.495 0 2 C0 1.34 0 0.68 0 0 Z " fill="#789FD3" transform="translate(362,332)"/>
<path d="M0 0 C-1.98 0.99 -1.98 0.99 -4 2 C-3.01 2.66 -2.02 3.32 -1 4 C-2.43554025 4.50559908 -3.8735202 5.0042749 -5.3125 5.5 C-6.51326172 5.91765625 -6.51326172 5.91765625 -7.73828125 6.34375 C-10 7 -10 7 -13 7 C-13 6.34 -13 5.68 -13 5 C-14.10859375 5.28875 -15.2171875 5.5775 -16.359375 5.875 C-17.82285243 6.25025062 -19.28639768 6.62523678 -20.75 7 C-21.47960937 7.19078125 -22.20921875 7.3815625 -22.9609375 7.578125 C-26.44571646 8.46515964 -29.38123722 9 -33 9 C-33 8.34 -33 7.68 -33 7 C-26.45700122 4.69212785 -19.87141428 2.8603729 -13.125 1.25 C-12.18914062 1.01667969 -11.25328125 0.78335937 -10.2890625 0.54296875 C-9.391875 0.32769531 -8.4946875 0.11242187 -7.5703125 -0.109375 C-6.76352051 -0.30499023 -5.95672852 -0.50060547 -5.12548828 -0.70214844 C-3 -1 -3 -1 0 0 Z " fill="#749BCE" transform="translate(278,284)"/>
<path d="M0 0 C0.33 0 0.66 0 1 0 C1 1.65 1 3.3 1 5 C15.67822822 7.58689166 30.08855736 9.64454249 45 10 C45 10.66 45 11.32 45 12 C10.07627829 12.72757754 10.07627829 12.72757754 -0.5625 6.5 C-2 5 -2 5 -2 3 C-1.34 3 -0.68 3 0 3 C0 2.01 0 1.02 0 0 Z " fill="#5C8AC7" transform="translate(187,271)"/>
<path d="M0 0 C0 3.92165239 -1.25271215 4.73024249 -3.875 7.5625 C-4.59429687 8.34753906 -5.31359375 9.13257813 -6.0546875 9.94140625 C-7.35054115 11.31272126 -8.66588202 12.66588202 -10 14 C-9.67 12.35 -9.34 10.7 -9 9 C-9.78375 9.99 -10.5675 10.98 -11.375 12 C-12.24125 12.99 -13.1075 13.98 -14 15 C-14.66 15 -15.32 15 -16 15 C-17.62514468 16.45833358 -17.62514468 16.45833358 -19 18 C-19.6640625 16.26171875 -19.6640625 16.26171875 -20 14 C-18.48805536 10.9363227 -16.40566991 8.41685907 -14 6 C-11.5 5.3125 -11.5 5.3125 -9 5 C-7.41599887 3.85277141 -7.41599887 3.85277141 -5.875 2.4375 C-3 0 -3 0 0 0 Z " fill="#2D68B7" transform="translate(225,197)"/>
<path d="M0 0 C2.475 0.99 2.475 0.99 5 2 C5 6.29 5 10.58 5 15 C4.01 15 3.02 15 2 15 C1.67 14.01 1.34 13.02 1 12 C-2.24365824 9.65735794 -5.05123902 8.56410871 -9 8 C-6.53846154 3.2 -6.53846154 3.2 -3.8125 2.1875 C-2.9153125 2.0946875 -2.9153125 2.0946875 -2 2 C-2 2.66 -2 3.32 -2 4 C-1.34 4 -0.68 4 0 4 C0 3.34 0 2.68 0 2 C0 1.34 0 0.68 0 0 Z " fill="#5585C5" transform="translate(309,276)"/>
<path d="M0 0 C0 0.66 0 1.32 0 2 C-1.98 2.33 -3.96 2.66 -6 3 C-6 3.66 -6 4.32 -6 5 C-6.66 5 -7.32 5 -8 5 C-8 5.66 -8 6.32 -8 7 C-10.70716242 7.90238747 -12.23776768 8.11851302 -15.01171875 8.09765625 C-16.14770508 8.09282227 -16.14770508 8.09282227 -17.30664062 8.08789062 C-18.09232422 8.07951172 -18.87800781 8.07113281 -19.6875 8.0625 C-20.48478516 8.05798828 -21.28207031 8.05347656 -22.10351562 8.04882812 C-24.06904257 8.0370585 -26.03453085 8.01912348 -28 8 C-28 7.34 -28 6.68 -28 6 C-23.89716988 4.99446119 -19.79252943 3.9965189 -15.6875 3 C-14.52025391 2.71382813 -13.35300781 2.42765625 -12.15039062 2.1328125 C-11.03212891 1.86210937 -9.91386719 1.59140625 -8.76171875 1.3125 C-7.73006592 1.06113281 -6.69841309 0.80976563 -5.63549805 0.55078125 C-3 0 -3 0 0 0 Z " fill="#B4C7E1" transform="translate(265,289)"/>
<path d="M0 0 C0.99 0 1.98 0 3 0 C4.44163842 1.72293372 5.53720446 3.56009952 6.71875 5.46875 C7.1415625 5.9740625 7.564375 6.479375 8 7 C8.99 7 9.98 7 11 7 C11 7.66 11 8.32 11 9 C7.78548731 10.60725635 4.56387464 10.05748185 1 10 C1 9.34 1 8.68 1 8 C1.99 8 2.98 8 4 8 C3.67 7.01 3.34 6.02 3 5 C-1.29 4.67 -5.58 4.34 -10 4 C-9.4260261 8.20180184 -9.4260261 8.20180184 -6 10 C-9.96 10 -13.92 10 -18 10 C-18 9.34 -18 8.68 -18 8 C-16.824375 7.87625 -16.824375 7.87625 -15.625 7.75 C-12.85955198 7.28474077 -12.85955198 7.28474077 -11.8125 5 C-11.544375 4.34 -11.27625 3.68 -11 3 C-8.59454362 1.79727181 -7.05003047 1.89928528 -4.375 1.9375 C-3.14910156 1.95103516 -3.14910156 1.95103516 -1.8984375 1.96484375 C-0.95871094 1.98224609 -0.95871094 1.98224609 0 2 C0 1.34 0 0.68 0 0 Z " fill="#1257B2" transform="translate(247,341)"/>
<path d="M0 0 C1.9965394 2.9948091 2.68557433 5.11448337 3.5625 8.5625 C4.51176356 12.382278 4.51176356 12.382278 6 16 C6.07092842 18.2072923 6.08415025 20.41667452 6.0625 22.625 C6.05347656 23.81351563 6.04445313 25.00203125 6.03515625 26.2265625 C6.02355469 27.14179688 6.01195312 28.05703125 6 29 C6.99 29.33 7.98 29.66 9 30 C5.73151751 37.00389105 5.73151751 37.00389105 3 39 C0.3125 39.6875 0.3125 39.6875 -2 40 C-1.525625 39.649375 -1.05125 39.29875 -0.5625 38.9375 C1.67873825 36.15836457 1.67117658 33.4855283 2 30 C2.66 31.32 3.32 32.64 4 34 C4.05389087 32.04196493 4.09274217 30.08351091 4.125 28.125 C4.14820313 27.03445313 4.17140625 25.94390625 4.1953125 24.8203125 C4.30060534 21.8628949 4.30060534 21.8628949 2 20 C1.58935547 17.93701172 1.58935547 17.93701172 1.3671875 15.4296875 C1.28339844 14.53378906 1.19960938 13.63789063 1.11328125 12.71484375 C1.03464844 11.77769531 0.95601563 10.84054688 0.875 9.875 C0.78863281 8.93011719 0.70226562 7.98523438 0.61328125 7.01171875 C0.40085917 4.67507582 0.19678458 2.3380033 0 0 Z " fill="#93B0D8" transform="translate(312,232)"/>
<path d="M0 0 C7.60295688 0.58484284 13.72166351 4.21702258 18.6875 9.875 C19.79603052 11.24648427 20.90029821 12.62142646 22 14 C23.10282897 15.20955435 24.20692898 16.41795145 25.3125 17.625 C27.8230286 20.53721317 29.07898437 23.22383592 30 27 C27.63739216 24.76471833 25.77954561 22.38140118 23.875 19.75 C18.1556709 12.35701459 11.85189627 7.85061066 3 5 C1.6534734 4.36039986 0.31077107 3.710001 -1 3 C-0.67 2.01 -0.34 1.02 0 0 Z " fill="#7DA1D1" transform="translate(279,198)"/>
<path d="M0 0 C0 3.89165786 -1.40471663 5.88942182 -3.25 9.3125 C-6.92185039 16.32180509 -9.11602376 23.30027102 -11 31 C-11.33 31 -11.66 31 -12 31 C-12.73540555 21.92999817 -11.54581273 14.01498561 -7 6 C-4.9375 4.765625 -4.9375 4.765625 -3 4 C-1.26574227 1.96682993 -1.26574227 1.96682993 0 0 Z " fill="#93B0D8" transform="translate(225,208)"/>
<path d="M0 0 C0.99 0.33 1.98 0.66 3 1 C1.59122859 4.3088067 -0.03750445 6.11467858 -2.8125 8.375 C-6.32619556 11.33828059 -9.17554296 14.38116442 -12 18 C-12.66 17.01 -13.32 16.02 -14 15 C-12.95282773 10.74971256 -10.84153063 8.59617625 -7.5625 5.8125 C-6.78003906 5.13832031 -5.99757812 4.46414062 -5.19140625 3.76953125 C-3 2 -3 2 0 0 Z " fill="#1759B2" transform="translate(245,203)"/>
<path d="M0 0 C0.33 0 0.66 0 1 0 C1 6.6 1 13.2 1 20 C5.62 20 10.24 20 15 20 C15 20.66 15 21.32 15 22 C10.32798795 23.20568053 5.78503708 23.09382426 1 23 C1 22.34 1 21.68 1 21 C0.01 21 -0.98 21 -2 21 C-1.835 19.72125 -1.67 18.4425 -1.5 17.125 C-1.00044509 12.74695631 -0.95229195 8.46784007 -1.0625 4.06640625 C-1 2 -1 2 0 0 Z " fill="#4B7EC2" transform="translate(238,262)"/>
<path d="M0 0 C0.33 1.65 0.66 3.3 1 5 C0.67 4.34 0.34 3.68 0 3 C-0.99 3.495 -0.99 3.495 -2 4 C-4.52820185 4.23417307 -7.05487703 4.38156896 -9.58984375 4.5234375 C-12.41564346 5.08218558 -13.0387663 6.00166188 -15 8 C-17.72507798 8.39078556 -20.23121956 8.13616953 -23 8 C-23 7.34 -23 6.68 -23 6 C-20.1071271 4.99064871 -17.21121485 3.99231256 -14.3125 3 C-13.08756836 2.57074219 -13.08756836 2.57074219 -11.83789062 2.1328125 C-4.32355667 -0.42266949 -4.32355667 -0.42266949 0 0 Z " fill="#5D8AC7" transform="translate(314,254)"/>
<path d="M0 0 C0 0.99 0 1.98 0 3 C2.31 3 4.62 3 7 3 C6.67 3.66 6.34 4.32 6 5 C-4.19337525 7.29032842 -14.61412321 7.24565806 -25 7 C-25 6.67 -25 6.34 -25 6 C-16.585 5.505 -16.585 5.505 -8 5 C-8 4.34 -8 3.68 -8 3 C-7.34 3 -6.68 3 -6 3 C-6 2.34 -6 1.68 -6 1 C-3 0 -3 0 0 0 Z " fill="#7BA0D2" transform="translate(265,291)"/>
<path d="M0 0 C2.31 0 4.62 0 7 0 C6.67 3.96 6.34 7.92 6 12 C5.34 12 4.68 12 4 12 C4.33 13.65 4.66 15.3 5 17 C2.03 18.32 -0.94 19.64 -4 21 C-4 20.34 -4 19.68 -4 19 C-2.02 18.01 -0.04 17.02 2 16 C2.05384521 13.70858714 2.09272087 11.41681812 2.125 9.125 C2.14820313 7.84882813 2.17140625 6.57265625 2.1953125 5.2578125 C2.35641524 1.91406662 2.35641524 1.91406662 0 0 Z " fill="#3B72BC" transform="translate(302,258)"/>
<path d="M0 0 C0.67804688 0.25394531 1.35609375 0.50789063 2.0546875 0.76953125 C8.31072112 3.08305061 14.58775839 5.16395685 21 7 C21 7.66 21 8.32 21 9 C13.22051261 9.64352377 8.08231248 9.0925022 2 4 C0.98511985 3.01510494 -0.01961707 2.01923957 -1 1 C-0.67 0.67 -0.34 0.34 0 0 Z " fill="#EDF2F9" transform="translate(93,341)"/>
<path d="M0 0 C0.99 0.99 1.98 1.98 3 3 C2.01 3.495 2.01 3.495 1 4 C1 4.66 1 5.32 1 6 C1.70125 6.12375 2.4025 6.2475 3.125 6.375 C6.17656387 7.03838345 9.05340938 7.97211955 12 9 C11.34 9.66 10.68 10.32 10 11 C10 12.32 10 13.64 10 15 C7.64828869 14.40138258 5.3140622 13.73075648 3 13 C2.67 12.34 2.34 11.68 2 11 C-0.01669827 9.86649466 -0.01669827 9.86649466 -2 9 C-1.34 9 -0.68 9 0 9 C0 6.03 0 3.06 0 0 Z " fill="#2B67B7" transform="translate(185,263)"/>
<path d="M0 0 C0.33 0 0.66 0 1 0 C1 1.65 1 3.3 1 5 C4.96 5 8.92 5 13 5 C12.67 6.32 12.34 7.64 12 9 C8.37 9 4.74 9 1 9 C1 11.64 1 14.28 1 17 C0.67 17 0.34 17 0 17 C0 11.39 0 5.78 0 0 Z " fill="#7A9FD0" transform="translate(258,266)"/>
<path d="M0 0 C0.99 0 1.98 0 3 0 C6.25851406 3.35725691 7.75037104 6.5221629 9 11 C8.34 11 7.68 11 7 11 C7.22816406 11.61488281 7.45632813 12.22976562 7.69140625 12.86328125 C7.97886719 13.67152344 8.26632812 14.47976562 8.5625 15.3125 C8.85253906 16.11300781 9.14257812 16.91351563 9.44140625 17.73828125 C10 20 10 20 9 23 C8.40251953 21.33710938 8.40251953 21.33710938 7.79296875 19.640625 C7.25816594 18.17695414 6.72299003 16.71341957 6.1875 15.25 C5.92646484 14.52039063 5.66542969 13.79078125 5.39648438 13.0390625 C3.98146482 9.19579951 2.53069837 6.25266938 0 3 C0 2.01 0 1.02 0 0 Z " fill="#316BB9" transform="translate(292,221)"/>
<path d="M0 0 C7.1191234 -0.8089913 12.62116486 2.06720223 19 5 C17.484375 6.1171875 17.484375 6.1171875 15 7 C12.29721652 6.49969753 9.8607765 5.91958415 7.25 5.125 C6.20392578 4.82529297 6.20392578 4.82529297 5.13671875 4.51953125 C3.42072495 4.0258892 1.7098122 3.51464497 0 3 C0 2.01 0 1.02 0 0 Z " fill="#E9EFF7" transform="translate(103,333)"/>
<path d="M0 0 C2.875 -0.125 2.875 -0.125 6 0 C6.66 0.66 7.32 1.32 8 2 C7.63318342 4.93453261 7.13562754 5.86437246 5 8 C4.01 7.67 3.02 7.34 2 7 C2 7.99 2 8.98 2 10 C1.34 10 0.68 10 0 10 C0 6.7 0 3.4 0 0 Z " fill="#6994CE" transform="translate(225,384)"/>
<path d="M0 0 C0 0.66 0 1.32 0 2 C0.66 2.33 1.32 2.66 2 3 C-4.3778552 4.17293889 -10.50321562 5.29530838 -17 5 C-17 4.01 -17 3.02 -17 2 C-5.47835991 -0.29612756 -5.47835991 -0.29612756 0 0 Z " fill="#5887C6" transform="translate(243,291)"/>
<path d="M0 0 C8.73458083 1.09344976 17.34906408 5.13814924 23 12 C22.34 11.731875 21.68 11.46375 21 11.1875 C17.35060933 9.74294953 13.67754567 8.37128822 10 7 C10.33 7.99 10.66 8.98 11 10 C10.34 10 9.68 10 9 10 C8.67 8.02 8.34 6.04 8 4 C7.05125 3.71125 6.1025 3.4225 5.125 3.125 C2 2 2 2 0 0 Z " fill="#A5BDDE" transform="translate(269,191)"/>
<path d="M0 0 C0.70125 0.2475 1.4025 0.495 2.125 0.75 C1.135 1.245 1.135 1.245 0.125 1.75 C0.455 6.04 0.785 10.33 1.125 14.75 C0.135 15.245 0.135 15.245 -0.875 15.75 C-1.205 12.12 -1.535 8.49 -1.875 4.75 C-4.38583114 6.00541557 -4.74625446 7.25063488 -5.875 9.75 C-7.375 8.4375 -7.375 8.4375 -8.875 6.75 C-8.875 5.76 -8.875 4.77 -8.875 3.75 C-3.98222101 -0.34628009 -3.98222101 -0.34628009 0 0 Z " fill="#074EAE" transform="translate(303.875,259.25)"/>
<path d="M0 0 C5.61 0 11.22 0 17 0 C17 0.66 17 1.32 17 2 C14.23434618 2.92188461 12.61716298 3.11785222 9.76953125 3.09765625 C8.96708984 3.09443359 8.16464844 3.09121094 7.33789062 3.08789062 C6.50451172 3.07951172 5.67113281 3.07113281 4.8125 3.0625 C3.96751953 3.05798828 3.12253906 3.05347656 2.25195312 3.04882812 C0.16793845 3.03705403 -1.91603977 3.0191189 -4 3 C-2.68 2.67 -1.36 2.34 0 2 C0 1.34 0 0.68 0 0 Z " fill="#4278BF" transform="translate(216,271)"/>
<path d="M0 0 C1.258125 -0.04125 2.51625 -0.0825 3.8125 -0.125 C4.52019531 -0.14820313 5.22789062 -0.17140625 5.95703125 -0.1953125 C8 0 8 0 11 2 C7.20307814 4.82561627 4.81430721 6.56638908 0 6 C0 4.02 0 2.04 0 0 Z " fill="#F0F4FA" transform="translate(381,334)"/>
<path d="M0 0 C1.32 0.99 2.64 1.98 4 3 C1.58662205 7.82675589 -1.86062408 10.69984002 -6 14 C-6.66 13.34 -7.32 12.68 -8 12 C-7.05125 11.13375 -6.1025 10.2675 -5.125 9.375 C-2.22795407 6.50528469 -0.95685867 4.01880642 0 0 Z " fill="#1658B1" transform="translate(234,196)"/>
<path d="M0 0 C0.66 0 1.32 0 2 0 C2 0.99 2 1.98 2 3 C2.5775 2.484375 3.155 1.96875 3.75 1.4375 C6 0 6 0 8.25 0.3125 C8.8275 0.539375 9.405 0.76625 10 1 C9.360625 1.226875 8.72125 1.45375 8.0625 1.6875 C5.72806339 2.85250896 5.72806339 2.85250896 5.25 5.625 C5.1675 6.40875 5.085 7.1925 5 8 C4.34 7.34 3.68 6.68 3 6 C2.67 7.32 2.34 8.64 2 10 C-0.62187494 8.95125002 -1.79371361 8.35068687 -3.25 5.875 C-3.4975 5.25625 -3.745 4.6375 -4 4 C-2.515 4.99 -2.515 4.99 -1 6 C-0.67 4.02 -0.34 2.04 0 0 Z " fill="#89ABD8" transform="translate(177,384)"/>
<path d="M0 0 C0.2475 0.598125 0.495 1.19625 0.75 1.8125 C2.95635506 5.67362136 5.45500439 6.82664501 9.671875 8.16796875 C11.0288932 8.5171045 12.38838423 8.85674834 13.75 9.1875 C14.44738281 9.36474609 15.14476563 9.54199219 15.86328125 9.72460938 C17.57344679 10.15800749 19.28646044 10.58014018 21 11 C20.34 11.66 19.68 12.32 19 13 C16.46040977 12.58525035 14.15207535 12.06573894 11.6875 11.375 C11.02298828 11.20871094 10.35847656 11.04242188 9.67382812 10.87109375 C5.29883447 9.68538825 2.33216152 8.05501849 -1 5 C-0.67 3.35 -0.34 1.7 0 0 Z " fill="#326DBD" transform="translate(93,335)"/>
<path d="M0 0 C0.99 0.33 1.98 0.66 3 1 C2.01 3.64 1.02 6.28 0 9 C-0.66 9 -1.32 9 -2 9 C-3.62514468 10.45833358 -3.62514468 10.45833358 -5 12 C-5.68359375 10.265625 -5.68359375 10.265625 -6 8 C-4.78515625 5.859375 -4.78515625 5.859375 -3.0625 3.75 C-2.49660156 3.04359375 -1.93070313 2.3371875 -1.34765625 1.609375 C-0.90292969 1.07828125 -0.45820313 0.5471875 0 0 Z " fill="#2865B6" transform="translate(211,203)"/>
<path d="M0 0 C-1.30295142 2.60590285 -2.2991275 2.96190955 -5 4 C-7.796875 4.1953125 -7.796875 4.1953125 -10.75 4.125 C-11.73484375 4.10695313 -12.7196875 4.08890625 -13.734375 4.0703125 C-14.85585937 4.03550781 -14.85585937 4.03550781 -16 4 C-16 3.34 -16 2.68 -16 2 C-10.42932723 0.40837921 -5.78898419 -0.20674944 0 0 Z " fill="#D9E2EE" transform="translate(253,293)"/>
<path d="M0 0 C-3.4066466 3.13043202 -6.00878902 3.42813877 -10.5625 3.625 C-15.36526385 3.84848538 -15.36526385 3.84848538 -20 5 C-20.33 4.34 -20.66 3.68 -21 3 C-17.5885381 1.01834199 -14.38223009 0.40462913 -10.5 -0.1875 C-9.3759375 -0.36667969 -8.251875 -0.54585937 -7.09375 -0.73046875 C-4.33089488 -0.97117204 -2.58651581 -0.89386944 0 0 Z " fill="#628EC9" transform="translate(245,187)"/>
<path d="M0 0 C0 0.66 0 1.32 0 2 C-1.74816858 2.50636607 -3.49862263 3.00484619 -5.25 3.5 C-6.22453125 3.7784375 -7.1990625 4.056875 -8.203125 4.34375 C-11 5 -11 5 -15 5 C-15 4.34 -15 3.68 -15 3 C-13.58398286 2.51891725 -12.16715563 2.04021859 -10.75 1.5625 C-9.96109375 1.29566406 -9.1721875 1.02882813 -8.359375 0.75390625 C-2.33939394 -1.16969697 -2.33939394 -1.16969697 0 0 Z " fill="#4C7EC2" transform="translate(260,288)"/>
<path d="M0 0 C1.76923828 0.01353516 1.76923828 0.01353516 3.57421875 0.02734375 C4.47785156 0.03894531 5.38148438 0.05054688 6.3125 0.0625 C2.86330374 2.36196417 0.1743978 2.87019035 -3.875 3.6875 C-5.78345703 4.07808594 -5.78345703 4.07808594 -7.73046875 4.4765625 C-9.19419922 4.76660156 -9.19419922 4.76660156 -10.6875 5.0625 C-10.375 3.125 -10.375 3.125 -9.6875 1.0625 C-6.26517028 -0.07827657 -3.60076783 -0.03565117 0 0 Z " fill="#B4C8E2" transform="translate(251.6875,185.9375)"/>
<path d="M0 0 C0.90492187 0.02320313 1.80984375 0.04640625 2.7421875 0.0703125 C4.10730469 0.09738281 4.10730469 0.09738281 5.5 0.125 C6.19867188 0.14820313 6.89734375 0.17140625 7.6171875 0.1953125 C7.6171875 2.1753125 7.6171875 4.1553125 7.6171875 6.1953125 C4.77168738 5.53520774 2.09392751 4.67806284 -0.6328125 3.6328125 C-1.33921875 3.36339844 -2.045625 3.09398437 -2.7734375 2.81640625 C-3.30453125 2.61144531 -3.835625 2.40648437 -4.3828125 2.1953125 C-2.3828125 0.1953125 -2.3828125 0.1953125 0 0 Z " fill="#1559B3" transform="translate(114.3828125,331.8046875)"/>
<path d="M0 0 C0 0.99 0 1.98 0 3 C-1.90625 4.39453125 -1.90625 4.39453125 -4.5 5.8125 C-9.30397068 8.54296196 -13.66354522 11.58413339 -18 15 C-15.42285179 8.60008195 -8.39785836 4.01142918 -2.375 1 C-1.59125 0.67 -0.8075 0.34 0 0 Z " fill="#2B67B6" transform="translate(251,198)"/>
<path d="M0 0 C2.31 0 4.62 0 7 0 C7 0.33 7 0.66 7 1 C5.35 1 3.7 1 2 1 C2 1.99 2 2.98 2 4 C3.32 4 4.64 4 6 4 C6 4.66 6 5.32 6 6 C4.68 6 3.36 6 2 6 C2 6.99 2 7.98 2 9 C3.65 9 5.3 9 7 9 C7 9.33 7 9.66 7 10 C4.69 10 2.38 10 0 10 C0 6.7 0 3.4 0 0 Z " fill="#97B5DD" transform="translate(216,384)"/>
<path d="M0 0 C2.31 0 4.62 0 7 0 C7 0.33 7 0.66 7 1 C5.35 1 3.7 1 2 1 C2 1.99 2 2.98 2 4 C3.32 4 4.64 4 6 4 C6 4.66 6 5.32 6 6 C4.68 6 3.36 6 2 6 C2 6.99 2 7.98 2 9 C3.65 9 5.3 9 7 9 C7 9.33 7 9.66 7 10 C4.69 10 2.38 10 0 10 C0 6.7 0 3.4 0 0 Z " fill="#97B5DD" transform="translate(160,384)"/>
<path d="M0 0 C0.33 1.32 0.66 2.64 1 4 C1.66 4 2.32 4 3 4 C3 7.63 3 11.26 3 15 C-0.3 16.32 -3.6 17.64 -7 19 C-7.66 18.34 -8.32 17.68 -9 17 C-7.54293274 16.49632243 -6.08429904 15.99717444 -4.625 15.5 C-3.81289063 15.2215625 -3.00078125 14.943125 -2.1640625 14.65625 C0 14 0 14 2 14 C1.855625 12.700625 1.71125 11.40125 1.5625 10.0625 C1.44068359 8.96615234 1.44068359 8.96615234 1.31640625 7.84765625 C1.18113386 5.98859771 1.18113386 5.98859771 0 5 C-0.04063832 3.33382885 -0.042721 1.66611905 0 0 Z " fill="#80A3D1" transform="translate(291,262)"/>
<path d="M0 0 C0.33 0.99 0.66 1.98 1 3 C-3.11111111 8.55555556 -3.11111111 8.55555556 -6 10 C-6.40729228 12.32156597 -6.74438677 14.6568787 -7 17 C-7.99 15.68 -8.98 14.36 -10 13 C-9.34 12.67 -8.68 12.34 -8 12 C-9.65 11.67 -11.3 11.34 -13 11 C-12 9 -12 9 -10.29296875 8.359375 C-9.59816406 8.15828125 -8.90335937 7.9571875 -8.1875 7.75 C-3.64779642 6.17699678 -2.22645059 4.17459486 0 0 Z " fill="#A8BFDF" transform="translate(320,263)"/>
<path d="M0 0 C0.66 0.33 1.32 0.66 2 1 C1.505 1.556875 1.01 2.11375 0.5 2.6875 C-1.22222853 4.86423799 -1.22222853 4.86423799 -0.9375 7.3125 C-1.03050632 11.3117719 -2.88955417 13.63647696 -5 17 C-5.33 17 -5.66 17 -6 17 C-5.82316211 10.05509386 -4.11844576 5.57737857 0 0 Z " fill="#A0BADC" transform="translate(243,214)"/>
<path d="M0 0 C0 1.98 0 3.96 0 6 C-5.15171623 6.09038099 -9.91913204 5.84681133 -15 5 C-15 4.67 -15 4.34 -15 4 C-14.40832031 3.96261719 -13.81664062 3.92523438 -13.20703125 3.88671875 C-8.71089695 3.51265211 -3.7002421 0 0 0 Z " fill="#1B5DB5" transform="translate(397,345)"/>
<path d="M0 0 C1.33998047 0.31324219 1.33998047 0.31324219 2.70703125 0.6328125 C3.60808594 0.83648437 4.50914062 1.04015625 5.4375 1.25 C6.46810547 1.50136719 6.46810547 1.50136719 7.51953125 1.7578125 C7.51953125 2.7478125 7.51953125 3.7378125 7.51953125 4.7578125 C2.80549337 4.27841882 -1.14626176 3.78947202 -5.48046875 1.7578125 C-2.48046875 -0.2421875 -2.48046875 -0.2421875 0 0 Z " fill="#7FA3D2" transform="translate(174.48046875,290.2421875)"/>
<path d="M0 0 C0 2.64 0 5.28 0 8 C-1.98 7.34 -3.96 6.68 -6 6 C-6 5.01 -6 4.02 -6 3 C-2.66666667 0 -2.66666667 0 0 0 Z " fill="#0C53B0" transform="translate(391,337)"/>
<path d="M0 0 C0.99 0.33 1.98 0.66 3 1 C2.40832031 1.45890625 1.81664062 1.9178125 1.20703125 2.390625 C-2.88379822 5.56719079 -6.96818271 8.74853444 -11 12 C-11 9 -11 9 -9.1015625 6.9921875 C-8.28429687 6.29351562 -7.46703125 5.59484375 -6.625 4.875 C-5.81289062 4.17117187 -5.00078125 3.46734375 -4.1640625 2.7421875 C-2 1 -2 1 0 0 Z " fill="#8FAED8" transform="translate(222,191)"/>
<path d="M0 0 C4.03527446 1.5548764 6.07508555 4.17821081 8.75 7.5 C9.54921875 8.4796875 10.3484375 9.459375 11.171875 10.46875 C13 13 13 13 13 15 C8.92053693 13.64017898 7.28679158 10.82493962 4.8125 7.5 C4.11737305 6.58927734 4.11737305 6.58927734 3.40820312 5.66015625 C0 1.15269468 0 1.15269468 0 0 Z " fill="#D1DEF0" transform="translate(244,334)"/>
<path d="M0 0 C1.68762851 1.6454378 3.3540349 3.31288577 5 5 C5 5.33 5 5.66 5 6 C2.03 6 -0.94 6 -4 6 C-2 2 -2 2 0 0 Z " fill="#F4F7FB" transform="translate(243,338)"/>
<path d="M0 0 C0.66 0.66 1.32 1.32 2 2 C-0.50123051 6.16871752 -2.49415979 8.98422938 -7 11 C-7.66 10.67 -8.32 10.34 -9 10 C-8.01 9.34 -7.02 8.68 -6 8 C-5.26393501 4.43230448 -5.26393501 4.43230448 -5 1 C-4.34 2.32 -3.68 3.64 -3 5 C-2.34 5 -1.68 5 -1 5 C-0.67 3.35 -0.34 1.7 0 0 Z " fill="#6791C9" transform="translate(319,261)"/>
<path d="M0 0 C0 3.33896168 -0.59422625 4.40480889 -2.3125 7.1875 C-2.95638672 8.26064453 -2.95638672 8.26064453 -3.61328125 9.35546875 C-4.07089844 9.89816406 -4.52851563 10.44085938 -5 11 C-5.99 11 -6.98 11 -8 11 C-7.75 8.625 -7.75 8.625 -7 6 C-5.125 4.9375 -5.125 4.9375 -3 4 C-1.26574227 1.96682993 -1.26574227 1.96682993 0 0 Z " fill="#9FB9DB" transform="translate(225,208)"/>
<path d="M0 0 C1.65 0 3.3 0 5 0 C4.01 0.495 4.01 0.495 3 1 C3 1.99 3 2.98 3 4 C3.99 4.33 4.98 4.66 6 5 C5.67 5.99 5.34 6.98 5 8 C4.67 7.67 4.34 7.34 4 7 C3.67 9.31 3.34 11.62 3 14 C2.67 14 2.34 14 2 14 C2 10.7 2 7.4 2 4 C1.34 4 0.68 4 0 4 C0 2.68 0 1.36 0 0 Z " fill="#2865B6" transform="translate(292,262)"/>
<path d="M0 0 C0 1.32 0 2.64 0 4 C-3.37817425 4.84454356 -5.67465243 5.10844919 -9 4 C-8.67 3.01 -8.34 2.02 -8 1 C-5.17884816 -0.07009208 -3.09455459 0 0 0 Z " fill="#2C68B8" transform="translate(255,188)"/>
<path d="M0 0 C0 3.63 0 7.26 0 11 C-0.66 10.34 -1.32 9.68 -2 9 C-2.99 9.495 -2.99 9.495 -4 10 C-4.29296875 3.9453125 -4.29296875 3.9453125 -4 2 C-1 0 -1 0 0 0 Z " fill="#2764B5" transform="translate(303,263)"/>
<path d="M0 0 C0.33 0 0.66 0 1 0 C1 1.65 1 3.3 1 5 C1.66 5 2.32 5 3 5 C3 7.31 3 9.62 3 12 C1.68 12.33 0.36 12.66 -1 13 C-0.67 8.71 -0.34 4.42 0 0 Z " fill="#2965B6" transform="translate(196,245)"/>
<path d="M0 0 C0 0.99 0 1.98 0 3 C-1.32 3.33 -2.64 3.66 -4 4 C-4 4.66 -4 5.32 -4 6 C-4.99 6 -5.98 6 -7 6 C-7.28875 6.639375 -7.5775 7.27875 -7.875 7.9375 C-9 10 -9 10 -11 11 C-10.45418801 7.20450741 -8.94590705 5.69020705 -6.0625 3.25 C-5.35222656 2.63640625 -4.64195312 2.0228125 -3.91015625 1.390625 C-2 0 -2 0 0 0 Z " fill="#376FBB" transform="translate(258,203)"/>
<path d="M0 0 C5.53846154 0.61538462 5.53846154 0.61538462 7.875 2.5625 C8.431875 3.2740625 8.431875 3.2740625 9 4 C3.58461538 5.23076923 3.58461538 5.23076923 0.625 4.0625 C0.08875 3.711875 -0.4475 3.36125 -1 3 C-0.67 2.01 -0.34 1.02 0 0 Z " fill="#5484C5" transform="translate(279,198)"/>
<path d="M0 0 C0.99 0 1.98 0 3 0 C3.33 0.66 3.66 1.32 4 2 C4.99 2 5.98 2 7 2 C7 2.66 7 3.32 7 4 C3.78548731 5.60725635 0.56387464 5.05748185 -3 5 C-3 4.34 -3 3.68 -3 3 C-2.01 3 -1.02 3 0 3 C0 2.01 0 1.02 0 0 Z " fill="#2363B8" transform="translate(251,346)"/>
<path d="M0 0 C3.3 0 6.6 0 10 0 C10 1.98 10 3.96 10 6 C6.7 4.35 3.4 2.7 0 1 C0 0.67 0 0.34 0 0 Z " fill="#0A51B0" transform="translate(387,333)"/>
<path d="M0 0 C0.33 0.66 0.66 1.32 1 2 C1.66 2.33 2.32 2.66 3 3 C0.586238 3.69951063 -1.83010234 4.38483919 -4.25 5.0625 C-4.93191406 5.26166016 -5.61382812 5.46082031 -6.31640625 5.66601562 C-12.58342161 7.40009269 -12.58342161 7.40009269 -16 6 C-13.89748139 5.32815382 -11.79292237 4.66269032 -9.6875 4 C-8.51574219 3.62875 -7.34398437 3.2575 -6.13671875 2.875 C-3 2 -3 2 0 2 C0 1.34 0 0.68 0 0 Z " fill="#2D69B9" transform="translate(286,280)"/>
<path d="M0 0 C0.66 0 1.32 0 2 0 C2 3.3 2 6.6 2 10 C1.34 10 0.68 10 0 10 C-1.38232443 8.37373596 -2.71937515 6.7074998 -4 5 C-3.67 4.34 -3.34 3.68 -3 3 C-2.34 3.66 -1.68 4.32 -1 5 C-0.67 3.35 -0.34 1.7 0 0 Z " fill="#92B1DB" transform="translate(246,384)"/>
<path d="M0 0 C-3.11910856 1.79275866 -5.67682428 2.34290718 -9.25 2.625 C-10.14203125 2.69976562 -11.0340625 2.77453125 -11.953125 2.8515625 C-12.62859375 2.90054687 -13.3040625 2.94953125 -14 3 C-14 2.34 -14 1.68 -14 1 C-8.83955235 -0.512545 -5.34001821 -1.33500455 0 0 Z " fill="#81A4D3" transform="translate(286,292)"/>
<path d="M0 0 C0 0.66 0 1.32 0 2 C0.99 2.33 1.98 2.66 3 3 C-1.29 3 -5.58 3 -10 3 C-10 2.34 -10 1.68 -10 1 C-6.56484998 0.37542727 -3.50935186 0 0 0 Z " fill="#9BB6DB" transform="translate(237,295)"/>
<path d="M0 0 C2.31 0.33 4.62 0.66 7 1 C7.66 2.65 8.32 4.3 9 6 C5.9168649 4.80100302 2.93720508 3.52299523 0 2 C0 1.34 0 0.68 0 0 Z " fill="#8DACD6" transform="translate(286,202)"/>
<path d="M0 0 C-2.73704754 2.73704754 -5.26044774 3.16182449 -9 4 C-11.2265625 3.55078125 -11.2265625 3.55078125 -13 3 C-11.40084119 2.30093058 -9.79544955 1.61610532 -8.1875 0.9375 C-7.29417969 0.55464844 -6.40085937 0.17179687 -5.48046875 -0.22265625 C-3 -1 -3 -1 0 0 Z " fill="#9BB6DB" transform="translate(296,288)"/>
<path d="M0 0 C-0.99 0.33 -1.98 0.66 -3 1 C-3 1.66 -3 2.32 -3 3 C-2.34 3.33 -1.68 3.66 -1 4 C-1.99 4 -2.98 4 -4 4 C-4 3.34 -4 2.68 -4 2 C-5.65 2.33 -7.3 2.66 -9 3 C-9 2.01 -9 1.02 -9 0 C-5.93109813 -1.53445094 -3.29905734 -0.54984289 0 0 Z " fill="#6490C9" transform="translate(269,287)"/>
<path d="M0 0 C0.33 1.98 0.66 3.96 1 6 C-1.31 6 -3.62 6 -6 6 C-2.61538462 0 -2.61538462 0 0 0 Z " fill="#7C9FCF" transform="translate(306,278)"/>
<path d="M0 0 C4.29 0.33 8.58 0.66 13 1 C13 1.33 13 1.66 13 2 C4.585 2.495 4.585 2.495 -4 3 C-2.68 2.67 -1.36 2.34 0 2 C0 1.34 0 0.68 0 0 Z " fill="#5887C6" transform="translate(216,271)"/>
<path d="M0 0 C0.99 0 1.98 0 3 0 C3 2.97 3 5.94 3 9 C1.68 9 0.36 9 -1 9 C-0.67 6.03 -0.34 3.06 0 0 Z " fill="#3971BB" transform="translate(310,259)"/>
<path d="M0 0 C0.33 0 0.66 0 1 0 C1.1546875 1.175625 1.1546875 1.175625 1.3125 2.375 C1.77595022 5.33045181 1.77595022 5.33045181 5 7 C6.33790641 7.99387334 7.67218122 8.9926892 9 10 C3.52173913 9.39130435 3.52173913 9.39130435 1.25 7.6875 C-0.09382624 5.87333457 -1.0774519 4.05799191 -2 2 C-1.34 1.34 -0.68 0.68 0 0 Z " fill="#4E80C2" transform="translate(187,260)"/>
<path d="M0 0 C1.98 0 3.96 0 6 0 C6 1.32 6 2.64 6 4 C4.02 4 2.04 4 0 4 C0 2.68 0 1.36 0 0 Z " fill="#2E6ABB" transform="translate(285,385)"/>
<path d="M0 0 C0.33 1.32 0.66 2.64 1 4 C-1.97 4 -4.94 4 -8 4 C-7.34 3.67 -6.68 3.34 -6 3 C-6 2.34 -6 1.68 -6 1 C-3 0 -3 0 0 0 Z " fill="#5E8AC5" transform="translate(265,291)"/>
<path d="M0 0 C0.33 1.98 0.66 3.96 1 6 C-0.9375 6.5625 -0.9375 6.5625 -3 7 C-4 6 -4 6 -4.0625 3.4375 C-4.041875 2.633125 -4.02125 1.82875 -4 1 C-2 0 -2 0 0 0 Z " fill="#2160B4" transform="translate(292,270)"/>
<path d="M0 0 C0.33 0 0.66 0 1 0 C1 4.95 1 9.9 1 15 C-0.98 15 -2.96 15 -5 15 C-4.01 14.67 -3.02 14.34 -2 14 C-2 13.34 -2 12.68 -2 12 C-1.34 12 -0.68 12 0 12 C0 8.04 0 4.08 0 0 Z " fill="#2060B4" transform="translate(235,259)"/>
<path d="M0 0 C1.65 0 3.3 0 5 0 C5 0.99 5 1.98 5 3 C6.65 2.34 8.3 1.68 10 1 C10 1.66 10 2.32 10 3 C10.99 3.33 11.98 3.66 13 4 C10.03 4 7.06 4 4 4 C4 3.01 4 2.02 4 1 C2.35 1.33 0.7 1.66 -1 2 C-0.67 1.34 -0.34 0.68 0 0 Z " fill="#6892CA" transform="translate(265,197)"/>
<path d="M0 0 C-0.33 1.98 -0.66 3.96 -1 6 C-2.32 5.67 -3.64 5.34 -5 5 C-5.33 3.68 -5.66 2.36 -6 1 C-3 0 -3 0 0 0 Z " fill="#5F8CC7" transform="translate(299,282)"/>
<path d="M0 0 C2.97 0.495 2.97 0.495 6 1 C5.34 1.66 4.68 2.32 4 3 C4 4.32 4 5.64 4 7 C2.68 6.67 1.36 6.34 0 6 C0 4.02 0 2.04 0 0 Z " fill="#1B5CB3" transform="translate(191,271)"/>
<path d="M0 0 C0.66 0.33 1.32 0.66 2 1 C1.43410156 1.48210937 0.86820313 1.96421875 0.28515625 2.4609375 C-0.44832031 3.09257812 -1.18179688 3.72421875 -1.9375 4.375 C-2.66839844 5.00148437 -3.39929688 5.62796875 -4.15234375 6.2734375 C-6.08380906 7.87747714 -6.08380906 7.87747714 -7 10 C-7.66 10 -8.32 10 -9 10 C-7.61811547 6.78956118 -6.07578097 4.95063635 -3.375 2.75 C-2.74335938 2.22921875 -2.11171875 1.7084375 -1.4609375 1.171875 C-0.73777344 0.59179688 -0.73777344 0.59179688 0 0 Z " fill="#97B4DA" transform="translate(254,203)"/>
<path d="M0 0 C2.97 0.495 2.97 0.495 6 1 C5.67 1.99 5.34 2.98 5 4 C1.37 3.67 -2.26 3.34 -6 3 C-5.01 2.34 -4.02 1.68 -3 1 C-2.01 1.33 -1.02 1.66 0 2 C0 1.34 0 0.68 0 0 Z " fill="#7DA1D1" transform="translate(266,189)"/>
<path d="M0 0 C0 1.32 0 2.64 0 4 C-3.465 5.485 -3.465 5.485 -7 7 C-6.61402985 4.20171644 -6.19863427 3.1794116 -4.0625 1.25 C-2 0 -2 0 0 0 Z " fill="#477BC0" transform="translate(242,192)"/>
<path d="M0 0 C0.99 0 1.98 0 3 0 C3 0.66 3 1.32 3 2 C3.99 2 4.98 2 6 2 C6.33 1.34 6.66 0.68 7 0 C7 0.99 7 1.98 7 3 C4.69 3.66 2.38 4.32 0 5 C0 3.35 0 1.7 0 0 Z " fill="#5E8BC8" transform="translate(243,190)"/>
<path d="M0 0 C0.66 0 1.32 0 2 0 C3.231394 3.69418201 2.64432764 6.2056261 2 10 C1.34 10 0.68 10 0 10 C0 6.7 0 3.4 0 0 Z " fill="#86A9D8" transform="translate(239,384)"/>
<path d="M0 0 C0.2475 0.5775 0.495 1.155 0.75 1.75 C2.16683317 4.3002997 3.87627537 6.01785701 6 8 C1.25 7.25 1.25 7.25 -1 5 C-0.625 2.375 -0.625 2.375 0 0 Z " fill="#2866BA" transform="translate(93,335)"/>
<path d="M0 0 C-0.33 0.99 -0.66 1.98 -1 3 C-3.875 3.625 -3.875 3.625 -7 4 C-7.66 3.34 -8.32 2.68 -9 2 C-3.375 0 -3.375 0 0 0 Z " fill="#376FBB" transform="translate(294,285)"/>
<path d="M0 0 C0.66 0.33 1.32 0.66 2 1 C1.01 1.33 0.02 1.66 -1 2 C-1 2.66 -1 3.32 -1 4 C-0.01 4.33 0.98 4.66 2 5 C-0.31 5 -2.62 5 -5 5 C-5 4.01 -5 3.02 -5 2 C-2.625 0.9375 -2.625 0.9375 0 0 Z " fill="#316BB9" transform="translate(270,289)"/>
<path d="M0 0 C1.65 0 3.3 0 5 0 C5.33 1.65 5.66 3.3 6 5 C5.67 4.34 5.34 3.68 5 3 C3.35 3 1.7 3 0 3 C0 2.01 0 1.02 0 0 Z " fill="#749ACD" transform="translate(309,254)"/>
<path d="M0 0 C0.33 0 0.66 0 1 0 C1 1.98 1 3.96 1 6 C-0.65 6.66 -2.3 7.32 -4 8 C-2.25 2.25 -2.25 2.25 0 0 Z " fill="#2865B7" transform="translate(200,215)"/>
<path d="M0 0 C0.66 0.66 1.32 1.32 2 2 C0.68 4.31 -0.64 6.62 -2 9 C-2.66 7.68 -3.32 6.36 -4 5 C-2.68 3.35 -1.36 1.7 0 0 Z " fill="#6E96CD" transform="translate(204,209)"/>
<path d="M0 0 C0.33 0.66 0.66 1.32 1 2 C1.66 2 2.32 2 3 2 C3.33 3.65 3.66 5.3 4 7 C3.01 7.33 2.02 7.66 1 8 C0.34 7.34 -0.32 6.68 -1 6 C-0.67 5.67 -0.34 5.34 0 5 C0.04063832 3.33382885 0.042721 1.66611905 0 0 Z " fill="#618CC7" transform="translate(306,278)"/>
<path d="M0 0 C3 4 3 4 2.85546875 6.140625 C2.23697917 8.09375 1.61848958 10.046875 1 12 C0.67 12 0.34 12 0 12 C0 8.04 0 4.08 0 0 Z " fill="#9CB6DA" transform="translate(213,227)"/>
<path d="M0 0 C0.598125 0.350625 1.19625 0.70125 1.8125 1.0625 C1.8125 2.0525 1.8125 3.0425 1.8125 4.0625 C-0.4975 3.4025 -2.8075 2.7425 -5.1875 2.0625 C-5.1875 1.4025 -5.1875 0.7425 -5.1875 0.0625 C-2.1875 -0.9375 -2.1875 -0.9375 0 0 Z " fill="#1B5CB3" transform="translate(292.1875,206.9375)"/>
<path d="M0 0 C0.99 0.33 1.98 0.66 3 1 C1.02 3.31 -0.96 5.62 -3 8 C-3.33 7.01 -3.66 6.02 -4 5 C-2.0625 2.3125 -2.0625 2.3125 0 0 Z " fill="#1A5CB3" transform="translate(211,203)"/>
<path d="M0 0 C0.598125 0.350625 1.19625 0.70125 1.8125 1.0625 C-0.1875 3.0625 -0.1875 3.0625 -2.8125 3.1875 C-3.59625 3.14625 -4.38 3.105 -5.1875 3.0625 C-5.1875 2.0725 -5.1875 1.0825 -5.1875 0.0625 C-2.1875 -0.9375 -2.1875 -0.9375 0 0 Z " fill="#1659B2" transform="translate(292.1875,278.9375)"/>
<path d="M0 0 C-3.13498292 1.85776765 -5.37471432 2.20140476 -9 2 C-9 1.34 -9 0.68 -9 0 C-5.67465243 -1.10844919 -3.37817425 -0.84454356 0 0 Z " fill="#7198CD" transform="translate(287,269)"/>
<path d="M0 0 C0.99 0 1.98 0 3 0 C2.25 1.9375 2.25 1.9375 1 4 C-1.125 4.75 -1.125 4.75 -3 5 C-1.125 1.125 -1.125 1.125 0 0 Z " fill="#BFD0E8" transform="translate(208,202)"/>
<path d="M0 0 C0.66 0.33 1.32 0.66 2 1 C0.02 3.31 -1.96 5.62 -4 8 C-4.33 6.68 -4.66 5.36 -5 4 C-3.35 2.68 -1.7 1.36 0 0 Z " fill="#4277BE" transform="translate(217,201)"/>
</svg>
